<svg width="300" height="300" viewBox="0 0 300 300" fill="none" xmlns="http://www.w3.org/2000/svg">
<path fill-rule="evenodd" clip-rule="evenodd" d="M237.5 124.999C237.5 74.2597 209.52 39.0431 173.317 28.4708C172.006 25.0791 169.935 21.9261 167.119 19.2804C157.497 10.2399 142.504 10.2399 132.882 19.2804C130.072 21.9202 128.003 25.0652 126.692 28.4483C90.4422 38.9744 62.5 74.1141 62.5 124.999C62.5 157.923 55.8623 176.372 43.5745 189.741C41.52 191.976 35.9536 197.097 32.1831 200.566L32.1817 200.567C30.3986 202.207 29.0173 203.478 28.5996 203.899L25 207.549V250.175H101.1C103.673 263.451 110.876 272.333 123.902 280.283C139.927 290.061 160.073 290.061 176.098 280.283C187.594 273.267 195.302 262.485 198.429 250.175H275V207.549L271.4 203.899C271.021 203.514 269.696 202.291 267.963 200.693L267.962 200.693L267.962 200.692C264.203 197.224 258.528 191.99 256.442 189.711C244.146 176.279 237.5 157.807 237.5 124.999ZM171.709 250.175H127.232C128.998 253.461 132.009 255.942 136.925 258.942C144.953 263.841 155.047 263.841 163.075 258.942C166.793 256.673 169.698 253.671 171.709 250.175ZM238.002 206.592C240.633 209.465 246.27 214.717 250 218.148V225.175H50V218.154C53.7009 214.763 59.3554 209.515 61.9811 206.658C78.6778 188.492 87.5 163.972 87.5 124.999C87.5 77.7481 116.66 50.1542 150 50.1542C183.246 50.1542 212.5 77.8905 212.5 124.999C212.5 163.847 221.325 188.374 238.002 206.592Z" fill="#464646"/>
</svg>
