<svg width="603" height="500" viewBox="0 0 603 500" fill="none" xmlns="http://www.w3.org/2000/svg">
<path d="M104.585 282.481C104.585 282.481 104.585 276.826 96.6741 268.929C88.7634 261.033 83.6939 256.506 83.6939 256.506C83.6939 256.506 79.7386 269.486 87.0782 277.397C92.4791 282.955 98.335 288.051 104.585 292.634V282.481Z" fill="#3E8A23"/>
<path d="M93.1091 317.675C93.1091 317.675 93.1091 312.104 85.1984 304.124C77.2877 296.143 72.2181 291.714 72.2181 291.714C72.2181 291.714 68.2628 304.764 75.6442 312.605C81.0451 318.163 86.901 323.26 93.1509 327.842L93.1091 317.675Z" fill="#3E8A23"/>
<path d="M104.085 292.036C104.085 292.036 104.684 286.465 113.375 279.39C122.065 272.315 127.609 268.415 127.609 268.415C127.609 268.415 130.157 281.744 122.038 288.833C116.084 293.794 109.724 298.248 103.027 302.147L104.085 292.036Z" fill="#3E8A23"/>
<path d="M90.231 333.675C90.231 333.675 91.4148 328.105 100.802 322.088C110.189 316.071 116.122 312.659 116.122 312.659C116.122 312.659 117.264 326.183 108.434 332.38C101.989 336.684 95.1969 340.443 88.1279 343.62L90.231 333.675Z" fill="#3E8A23"/>
<path d="M92.8369 379.081C92.8369 379.081 92.8369 373.44 100.748 365.53C108.658 357.619 113.728 353.107 113.728 353.107C113.728 353.107 117.683 366.101 110.344 373.997C104.948 379.586 99.0918 384.711 92.8369 389.317V379.081Z" fill="#3E8A23"/>
<path d="M92.708 390.166C92.708 390.166 93.5019 384.595 86.8029 375.626C80.1038 366.657 75.661 361.49 75.661 361.49C75.661 361.49 69.8951 373.773 76.0371 382.645C80.5908 388.919 85.6643 394.798 91.2039 400.221L92.708 390.166Z" fill="#3E8A23"/>
<path d="M84.9102 423.009C84.9102 423.009 84.9102 417.438 92.8069 409.457C100.704 401.477 105.801 397.034 105.801 397.034C105.801 397.034 109.756 410.028 102.417 417.925C97.0184 423.49 91.1623 428.591 84.9102 433.175V423.009Z" fill="#3E8A23"/>
<path d="M90.187 452.783C90.187 452.783 88.7942 447.323 94.3652 437.671C99.9361 428.02 103.794 422.351 103.794 422.351C103.794 422.351 110.897 433.925 105.799 443.423C101.989 450.17 97.6191 456.585 92.7357 462.601L90.187 452.783Z" fill="#3E8A23"/>
<path d="M105.3 280.977C104.903 286.852 104.182 292.701 103.141 298.497C100.007 314.653 92.1941 325.057 89.0743 339.639C85.9546 354.22 94.9238 373.064 92.5144 391.741C90.105 410.417 82.7653 420.89 84.9101 433.383C87.0549 445.876 98.2385 480.444 98.2385 480.444" stroke="#263238" stroke-width="1.09196" stroke-linecap="round" stroke-linejoin="round"/>
<path d="M104.002 295.781L112.525 289.249" stroke="#263238" stroke-width="1.09196" stroke-linecap="round" stroke-linejoin="round"/>
<path d="M104.406 288.26L100.841 281.923" stroke="#263238" stroke-width="1.09196" stroke-linecap="round" stroke-linejoin="round"/>
<path d="M89.5732 338.97C89.5732 338.97 96.704 333.622 104.03 328.274" stroke="#263238" stroke-width="1.09196" stroke-linecap="round" stroke-linejoin="round"/>
<path d="M93.1145 327.842C93.1145 327.842 87.1676 316.199 80.4407 308.469" stroke="#263238" stroke-width="1.09196" stroke-linecap="round" stroke-linejoin="round"/>
<path d="M93.1104 387.118C97.1803 379.615 102.317 372.742 108.361 366.714" stroke="#263238" stroke-width="1.09196" stroke-linecap="round" stroke-linejoin="round"/>
<path d="M91.7333 395.039C89.563 389.947 86.9777 385.042 84.0036 380.374C79.8254 374.232 79.2405 373.41 79.2405 373.41" stroke="#263238" stroke-width="1.09196" stroke-linecap="round" stroke-linejoin="round"/>
<path d="M84.9102 433.383C86.7128 428.884 88.8594 424.531 91.3306 420.361C93.8108 416.502 96.6057 412.855 99.687 409.456" stroke="#263238" stroke-width="1.09196" stroke-linecap="round" stroke-linejoin="round"/>
<path d="M92.763 462.615C92.345 458.322 93.0806 453.995 94.8938 450.081C97.8604 444.343 101.231 436.808 102.623 433.841" stroke="#263238" stroke-width="1.09196" stroke-linecap="round" stroke-linejoin="round"/>
<path d="M40.08 357.856C40.08 357.856 39.4393 354.304 43.6175 348.496C47.7957 342.689 50.414 339.291 50.414 339.291C50.414 339.291 54.2997 347.006 50.5533 352.758C47.7756 356.834 44.6587 360.669 41.2359 364.22L40.08 357.856Z" fill="#3E8A23"/>
<path d="M51.0936 378.718C51.0936 378.718 50.4808 375.181 54.5894 369.359C58.6979 363.537 61.3859 360.167 61.3859 360.167C61.3859 360.167 65.2716 367.869 61.5252 373.635C58.7444 377.704 55.6277 381.534 52.2078 385.083L51.0936 378.718Z" fill="#3E8A23"/>
<path d="M41.4285 363.829C41.4285 363.829 40.4535 360.375 34.228 356.865C28.0025 353.355 24.1168 351.559 24.1168 351.559C24.1168 351.559 23.9636 360.208 29.827 363.759C34.1 366.223 38.5724 368.325 43.1972 370.04L41.4285 363.829Z" fill="#3E8A23"/>
<path d="M54.6434 388.438C54.6434 388.438 53.2507 385.095 46.7606 382.31C40.2704 379.524 36.134 378.062 36.134 378.062C36.134 378.062 36.8861 386.669 43.0977 389.594C47.5971 391.594 52.2557 393.215 57.025 394.44L54.6434 388.438Z" fill="#3E8A23"/>
<path d="M57.9442 417.185C57.9442 417.185 57.3174 413.647 51.5098 409.553C45.7021 405.458 42.0113 403.174 42.0113 403.174C42.0113 403.174 40.9529 411.739 46.4124 415.903C50.4006 418.807 54.6262 421.369 59.0444 423.563L57.9442 417.185Z" fill="#3E8A23"/>
<path d="M59.2249 424.121C59.2249 424.121 58.1107 420.709 61.3419 414.372C64.573 408.035 66.7596 404.303 66.7596 404.303C66.7596 404.303 71.7038 411.378 68.8208 417.603C66.6444 422.033 64.1008 426.272 61.2165 430.277L59.2249 424.121Z" fill="#3E8A23"/>
<path d="M69.1439 452.684C69.1439 452.684 69.5617 449.119 75.1326 444.69C80.7036 440.261 84.2411 437.727 84.2411 437.727C84.2411 437.727 85.8009 446.222 80.5782 450.679C76.7632 453.802 72.6912 456.597 68.4058 459.035L69.1439 452.684Z" fill="#3E8A23"/>
<path d="M67.6841 443.867C67.6841 443.867 67.0713 440.33 61.2497 436.235C55.4281 432.141 51.7652 429.857 51.7652 429.857C51.7652 429.857 50.6928 438.464 56.1523 442.642C60.1405 445.545 64.3661 448.108 68.7844 450.302L67.6841 443.867Z" fill="#3E8A23"/>
<path d="M67.5974 463.118C67.5974 463.118 67.9038 459.539 63.3217 454.107C58.7396 448.676 55.7452 445.528 55.7452 445.528C55.7452 445.528 52.542 453.55 56.7758 458.954C59.8988 462.773 63.337 466.323 67.0542 469.567L67.5974 463.118Z" fill="#3E8A23"/>
<path d="M39.4346 357.017C40.3258 360.659 41.4185 364.248 42.7075 367.769C46.4121 377.518 52.4566 383.242 55.9802 392.044C59.5038 400.846 55.9802 413.604 59.4759 425.094C62.9717 436.584 68.7237 442.322 68.7794 450.386C68.8351 458.45 65.8964 480.246 65.8964 480.246" stroke="#263238" stroke-width="1.09196" stroke-linecap="round" stroke-linejoin="round"/>
<path d="M41.8877 366.167L35.8433 362.992" stroke="#263238" stroke-width="1.09196" stroke-linecap="round" stroke-linejoin="round"/>
<path d="M40.8311 361.491L42.377 357.131" stroke="#263238" stroke-width="1.09196" stroke-linecap="round" stroke-linejoin="round"/>
<path d="M55.6484 391.684C55.6484 391.684 50.5928 389.107 45.4119 386.545" stroke="#263238" stroke-width="1.09196" stroke-linecap="round" stroke-linejoin="round"/>
<path d="M52.2102 385.085C53.6933 380.409 55.6485 375.897 58.0457 371.617" stroke="#263238" stroke-width="1.09196" stroke-linecap="round" stroke-linejoin="round"/>
<path d="M58.6421 422.254C55.2712 417.993 51.3028 414.24 46.8596 411.112" stroke="#263238" stroke-width="1.09196" stroke-linecap="round" stroke-linejoin="round"/>
<path d="M60.3281 427.075C61.1313 423.649 62.2167 420.295 63.5732 417.048C65.523 412.744 65.8016 412.187 65.8016 412.187" stroke="#263238" stroke-width="1.09196" stroke-linecap="round" stroke-linejoin="round"/>
<path d="M68.5283 456.572C70.4927 454.133 72.6692 451.873 75.0324 449.818C76.5196 448.704 77.9167 447.475 79.2106 446.141" stroke="#263238" stroke-width="1.09196" stroke-linecap="round" stroke-linejoin="round"/>
<path d="M68.8111 450.388C67.1907 447.768 65.3701 445.277 63.3655 442.937C61.399 440.811 59.261 438.85 56.9729 437.074" stroke="#263238" stroke-width="1.09196" stroke-linecap="round" stroke-linejoin="round"/>
<path d="M67.0547 469.566C66.8498 466.836 65.9168 464.21 64.3528 461.962C61.8737 458.675 58.935 454.316 57.7512 452.603" stroke="#263238" stroke-width="1.09196" stroke-linecap="round" stroke-linejoin="round"/>
<path d="M580.445 374.565H449.654V385.721H580.445V374.565Z" stroke="#263238" stroke-width="1.09196" stroke-linecap="round" stroke-linejoin="round"/>
<path d="M574.386 385.859H455.726V480.885H574.386V385.859Z" stroke="#263238" stroke-width="1.09196" stroke-linecap="round" stroke-linejoin="round"/>
<path d="M570.113 392.058H459.85V420.957H570.113V392.058Z" stroke="#263238" stroke-width="1.09196" stroke-linecap="round" stroke-linejoin="round"/>
<path d="M520.307 403.839H509.276V409.159H520.307V403.839Z" stroke="#263238" stroke-width="1.09196" stroke-linecap="round" stroke-linejoin="round"/>
<path d="M570.113 428.561H459.85V457.46H570.113V428.561Z" stroke="#263238" stroke-width="1.09196" stroke-linecap="round" stroke-linejoin="round"/>
<path d="M520.307 440.341H509.276V445.662H520.307V440.341Z" stroke="#263238" stroke-width="1.09196" stroke-linecap="round" stroke-linejoin="round"/>
<path d="M519.168 297.336H464.419V351.068H519.168V297.336Z" fill="#263238" stroke="#263238" stroke-width="1.09196" stroke-linecap="round" stroke-linejoin="round"/>
<path d="M495.338 371.9V349.046H488.249V371.9H478.11V374.393H488.249H495.338H505.477V371.9H495.338Z" stroke="#263238" stroke-width="1.09196" stroke-linecap="round" stroke-linejoin="round"/>
<path d="M467.843 299.286V347.948" stroke="#5C5C5C" stroke-width="1.09196" stroke-linecap="round" stroke-linejoin="round"/>
<path d="M476.967 299.286V347.948" stroke="#5C5C5C" stroke-width="1.09196" stroke-linecap="round" stroke-linejoin="round"/>
<path d="M491.801 299.286V347.948" stroke="#5C5C5C" stroke-width="1.09196" stroke-linecap="round" stroke-linejoin="round"/>
<path d="M509.276 299.286V347.948" stroke="#5C5C5C" stroke-width="1.09196" stroke-linecap="round" stroke-linejoin="round"/>
<path d="M544.4 147.315H455.098V267.229H544.4V147.315Z" stroke="#263238" stroke-width="1.09196" stroke-linecap="round" stroke-linejoin="round"/>
<path d="M535.851 158.788H463.652V255.75H535.851V158.788Z" stroke="#263238" stroke-width="1.09196" stroke-linecap="round" stroke-linejoin="round"/>
<path d="M437.678 116.006H263.169V480.887H437.678V116.006Z" stroke="#263238" stroke-width="1.09196" stroke-linecap="round" stroke-linejoin="round"/>
<path d="M342.484 133.245H279.031V228.438H342.484V133.245Z" stroke="#263238" stroke-width="1.09196" stroke-linecap="round" stroke-linejoin="round"/>
<path d="M333.378 146.939H288.156V214.765H333.378V146.939Z" stroke="#263238" stroke-width="1.09196" stroke-linecap="round" stroke-linejoin="round"/>
<path d="M288.154 146.936L279.031 133.245" stroke="#263238" stroke-width="1.09196" stroke-linecap="round" stroke-linejoin="round"/>
<path d="M333.357 146.936L342.48 133.245" stroke="#263238" stroke-width="1.09196" stroke-linecap="round" stroke-linejoin="round"/>
<path d="M333.357 214.764L342.48 228.441" stroke="#263238" stroke-width="1.09196" stroke-linecap="round" stroke-linejoin="round"/>
<path d="M288.154 214.764L279.031 228.441" stroke="#263238" stroke-width="1.09196" stroke-linecap="round" stroke-linejoin="round"/>
<path d="M418.75 133.245H355.297V228.438H418.75V133.245Z" stroke="#263238" stroke-width="1.09196" stroke-linecap="round" stroke-linejoin="round"/>
<path d="M409.64 146.939H364.418V214.765H409.64V146.939Z" stroke="#263238" stroke-width="1.09196" stroke-linecap="round" stroke-linejoin="round"/>
<path d="M364.419 146.936L355.297 133.245" stroke="#263238" stroke-width="1.09196" stroke-linecap="round" stroke-linejoin="round"/>
<path d="M409.629 146.936L418.751 133.245" stroke="#263238" stroke-width="1.09196" stroke-linecap="round" stroke-linejoin="round"/>
<path d="M409.629 214.764L418.751 228.441" stroke="#263238" stroke-width="1.09196" stroke-linecap="round" stroke-linejoin="round"/>
<path d="M364.419 214.764L355.297 228.441" stroke="#263238" stroke-width="1.09196" stroke-linecap="round" stroke-linejoin="round"/>
<path d="M342.484 252.979H279.031V348.172H342.484V252.979Z" stroke="#263238" stroke-width="1.09196" stroke-linecap="round" stroke-linejoin="round"/>
<path d="M333.378 266.656H288.156V334.482H333.378V266.656Z" stroke="#263238" stroke-width="1.09196" stroke-linecap="round" stroke-linejoin="round"/>
<path d="M288.154 266.656L279.031 252.979" stroke="#263238" stroke-width="1.09196" stroke-linecap="round" stroke-linejoin="round"/>
<path d="M333.357 266.656L342.48 252.979" stroke="#263238" stroke-width="1.09196" stroke-linecap="round" stroke-linejoin="round"/>
<path d="M333.357 334.481L342.48 348.172" stroke="#263238" stroke-width="1.09196" stroke-linecap="round" stroke-linejoin="round"/>
<path d="M288.154 334.481L279.031 348.172" stroke="#263238" stroke-width="1.09196" stroke-linecap="round" stroke-linejoin="round"/>
<path d="M418.75 252.979H355.297V348.172H418.75V252.979Z" stroke="#263238" stroke-width="1.09196" stroke-linecap="round" stroke-linejoin="round"/>
<path d="M409.64 266.656H364.418V334.482H409.64V266.656Z" stroke="#263238" stroke-width="1.09196" stroke-linecap="round" stroke-linejoin="round"/>
<path d="M364.419 266.656L355.297 252.979" stroke="#263238" stroke-width="1.09196" stroke-linecap="round" stroke-linejoin="round"/>
<path d="M409.629 266.656L418.751 252.979" stroke="#263238" stroke-width="1.09196" stroke-linecap="round" stroke-linejoin="round"/>
<path d="M409.629 334.481L418.751 348.172" stroke="#263238" stroke-width="1.09196" stroke-linecap="round" stroke-linejoin="round"/>
<path d="M364.419 334.481L355.297 348.172" stroke="#263238" stroke-width="1.09196" stroke-linecap="round" stroke-linejoin="round"/>
<path d="M342.484 374.538H279.031V469.731H342.484V374.538Z" stroke="#263238" stroke-width="1.09196" stroke-linecap="round" stroke-linejoin="round"/>
<path d="M333.378 388.214H288.156V456.04H333.378V388.214Z" stroke="#263238" stroke-width="1.09196" stroke-linecap="round" stroke-linejoin="round"/>
<path d="M288.154 388.215L279.031 374.538" stroke="#263238" stroke-width="1.09196" stroke-linecap="round" stroke-linejoin="round"/>
<path d="M333.357 388.215L342.48 374.538" stroke="#263238" stroke-width="1.09196" stroke-linecap="round" stroke-linejoin="round"/>
<path d="M333.357 456.043L342.48 469.719" stroke="#263238" stroke-width="1.09196" stroke-linecap="round" stroke-linejoin="round"/>
<path d="M288.154 456.043L279.031 469.719" stroke="#263238" stroke-width="1.09196" stroke-linecap="round" stroke-linejoin="round"/>
<path d="M418.75 374.538H355.297V469.731H418.75V374.538Z" stroke="#263238" stroke-width="1.09196" stroke-linecap="round" stroke-linejoin="round"/>
<path d="M409.64 388.214H364.418V456.04H409.64V388.214Z" stroke="#263238" stroke-width="1.09196" stroke-linecap="round" stroke-linejoin="round"/>
<path d="M364.419 388.215L355.297 374.538" stroke="#263238" stroke-width="1.09196" stroke-linecap="round" stroke-linejoin="round"/>
<path d="M409.629 388.215L418.751 374.538" stroke="#263238" stroke-width="1.09196" stroke-linecap="round" stroke-linejoin="round"/>
<path d="M409.629 456.043L418.751 469.719" stroke="#263238" stroke-width="1.09196" stroke-linecap="round" stroke-linejoin="round"/>
<path d="M364.419 456.043L355.297 469.719" stroke="#263238" stroke-width="1.09196" stroke-linecap="round" stroke-linejoin="round"/>
<path d="M426.063 308.926C429.525 308.926 432.33 306.12 432.33 302.658C432.33 299.197 429.525 296.391 426.063 296.391C422.602 296.391 419.796 299.197 419.796 302.658C419.796 306.12 422.602 308.926 426.063 308.926Z" stroke="#263238" stroke-width="1.09196" stroke-linecap="round" stroke-linejoin="round"/>
<path d="M601.545 480.886H1" stroke="#263238" stroke-width="1.09196" stroke-linecap="round" stroke-linejoin="round"/>
<path d="M198.476 327.127H342.833C348.318 327.127 353.578 329.306 357.457 333.184C361.336 337.063 363.515 342.323 363.515 347.809V480.898H177.808V347.795C177.812 342.314 179.99 337.059 183.866 333.184C187.741 329.309 192.996 327.13 198.476 327.127Z" fill="#263238" stroke="#263238" stroke-width="1.09196" stroke-miterlimit="10"/>
<path d="M187.07 327.127H331.371C336.856 327.127 342.116 329.306 345.995 333.184C349.874 337.063 352.053 342.323 352.053 347.809V480.898H166.346V347.795C166.348 345.076 166.886 342.385 167.929 339.875C168.971 337.364 170.499 335.084 172.424 333.165C174.348 331.245 176.633 329.724 179.146 328.688C181.659 327.652 184.352 327.121 187.07 327.127Z" fill="#787878" stroke="#263238" stroke-width="1.09196" stroke-miterlimit="10"/>
<path d="M227.066 219.372C227.066 219.372 209.462 214.776 211.37 196.782C213.278 178.788 227.066 172.66 237.414 170.738C247.762 168.816 262.692 168.83 262.692 168.83C262.692 168.83 259.628 162.702 271.494 161.546C283.36 160.39 316.298 171.894 329.32 195.25C342.343 218.606 339.655 257.282 333.916 269.928C328.178 282.574 322.775 308.604 333.527 317.406C344.278 326.208 364.557 335.79 361.493 360.302C358.428 384.814 331.618 385.538 332.76 398.588C333.903 411.638 359.571 421.192 353.067 443.782C346.562 466.372 308.262 469.826 282.218 455.272C256.174 440.718 262.302 393.616 254.266 367.53C246.23 341.445 215.576 337.322 210.98 315.902C206.384 294.482 222.122 283.73 229.754 265.764C237.386 247.798 227.066 219.372 227.066 219.372Z" fill="#263238" stroke="#263238" stroke-width="1.09196" stroke-linecap="round" stroke-linejoin="round"/>
<path d="M262.694 168.83C262.694 168.83 213.461 165.516 195.843 189.833" stroke="#263238" stroke-width="1.09196" stroke-linecap="round" stroke-linejoin="round"/>
<path d="M319.251 183.147C319.251 183.147 349.654 206.252 350.866 241.516C352.078 276.78 336.939 288.869 334.446 304.746C331.953 320.623 344.794 329.662 344.794 329.662" stroke="#263238" stroke-width="1.09196" stroke-linecap="round" stroke-linejoin="round"/>
<path d="M324.729 191.045C324.729 191.045 350.871 214.722 355.133 247.59C359.395 280.458 355.133 284.678 355.133 284.678" stroke="#263238" stroke-width="1.09196" stroke-linecap="round" stroke-linejoin="round"/>
<path d="M138.229 394.382C138.229 394.382 122.143 418.894 118.313 428.462C114.483 438.03 114.872 445.69 124.831 447.96C134.789 450.23 150.109 438.462 155.039 433.058C159.969 427.654 169.203 410.844 169.203 410.844L138.229 394.382Z" fill="#AD6359" stroke="#263238" stroke-width="1.09196" stroke-linecap="round" stroke-linejoin="round"/>
<path d="M242.778 311.276C242.778 311.276 202.946 310.9 192.639 314.34C182.333 317.78 132.891 393.99 132.891 393.99L167.361 416.594L182.291 400.118C182.291 400.118 186.47 421.19 186.47 428.084C186.47 434.978 181.484 481.008 181.484 481.008H296.37C296.37 481.008 298.292 438.042 304.726 426.176C311.161 414.31 320.046 398.224 320.046 398.224L352.594 419.282L372.97 370.216C372.97 370.216 321.272 329.284 308.236 323.532C295.2 317.78 242.778 311.276 242.778 311.276Z" fill="#3E8A23" stroke="#263238" stroke-width="1.09196" stroke-linecap="round" stroke-linejoin="round"/>
<path d="M182.26 400.121C182.26 400.121 183.653 387.796 185.394 376.306C187.135 364.816 194.224 350.679 194.224 350.679" stroke="#263238" stroke-width="1.09196" stroke-linecap="round" stroke-linejoin="round"/>
<path d="M320.128 398.212L300.296 386.917" stroke="#263238" stroke-width="1.09196" stroke-linecap="round" stroke-linejoin="round"/>
<path d="M316.201 397.531C316.201 397.531 298.486 395.762 291.522 393.102" stroke="#263238" stroke-width="1.09196" stroke-linecap="round" stroke-linejoin="round"/>
<path d="M192.739 381.68L260.606 497.138L263.336 495.578L268.419 390.26L192.739 381.68Z" fill="#263238" stroke="#263238" stroke-width="1.09196" stroke-linecap="round" stroke-linejoin="round"/>
<path d="M190.006 381.68L184.546 484.659L260.603 497.138L265.673 390.26L190.006 381.68Z" fill="#575757" stroke="#263238" stroke-width="1.09196" stroke-linecap="round" stroke-linejoin="round"/>
<path d="M218.086 415.218L233.698 417.168L230.969 481.93L202.877 477.251L218.086 415.218Z" fill="#263238" stroke="#263238" stroke-width="1.09196" stroke-linecap="round" stroke-linejoin="round"/>
<path d="M242.778 311.277C242.778 311.277 232.556 311.179 221.135 311.527C219.763 322.749 219.441 334.075 220.174 345.357C221.706 363.741 225.536 366.429 235.884 363.365C246.232 360.301 267.276 334.257 273.404 325.065C275.269 322.35 276.922 319.496 278.349 316.527C260.8 313.519 242.778 311.277 242.778 311.277Z" fill="#AD6359" stroke="#263238" stroke-width="1.09196" stroke-linecap="round" stroke-linejoin="round"/>
<path d="M228.598 291.75C228.598 291.75 226.551 339.242 226.927 345.37C227.303 351.498 235.882 358.002 242.01 353.406C248.138 348.81 266.564 321.192 268.472 316.206C270.38 311.22 272.65 288.686 272.65 288.686C272.65 288.686 256.188 298.644 245.088 297.488C233.988 296.332 228.598 291.75 228.598 291.75Z" fill="#AD6359" stroke="#263238" stroke-width="1.09196" stroke-linecap="round" stroke-linejoin="round"/>
<path d="M125.204 419.661C119.466 426.931 113.338 436.123 115.246 443.017C117.154 449.911 126.388 452.975 146.652 452.585C166.916 452.195 223.252 453.741 224.394 454.117C225.536 454.493 265.745 458.295 267.277 458.295C268.809 458.295 277.235 454.841 279.533 451.777C281.831 448.713 283.711 436.847 283.711 436.847C283.711 436.847 289.449 431.109 289.839 426.513C289.898 425.109 289.614 423.713 289.012 422.444C288.411 421.175 287.509 420.071 286.385 419.229C286.298 416.768 285.914 414.327 285.243 411.959C284.087 407.781 275.661 409.661 271.065 408.895C266.469 408.129 259.589 406.597 256.901 409.271C254.213 411.945 232.013 431.109 232.013 431.109C232.013 431.109 197.543 428.421 175.719 420.385C153.894 412.349 141.638 410.803 132.822 419.229" fill="#AD6359"/>
<path d="M125.204 419.661C119.466 426.931 113.338 436.123 115.246 443.017C117.154 449.911 126.388 452.975 146.652 452.585C166.916 452.195 223.252 453.741 224.394 454.117C225.536 454.493 265.745 458.295 267.277 458.295C268.809 458.295 277.235 454.841 279.533 451.777C281.831 448.713 283.711 436.847 283.711 436.847C283.711 436.847 289.449 431.109 289.839 426.513C289.898 425.109 289.614 423.713 289.012 422.444C288.411 421.175 287.509 420.071 286.385 419.229C286.298 416.768 285.914 414.327 285.243 411.959C284.087 407.781 275.661 409.661 271.065 408.895C266.469 408.129 259.589 406.597 256.901 409.271C254.213 411.945 232.013 431.109 232.013 431.109C232.013 431.109 197.543 428.421 175.719 420.385C153.894 412.349 141.638 410.803 132.822 419.229" stroke="#263238" stroke-width="1.09196" stroke-linecap="round" stroke-linejoin="round"/>
<path d="M286.425 419.27L266.133 414.674" stroke="#263238" stroke-width="1.09196" stroke-linecap="round" stroke-linejoin="round"/>
<path d="M213.003 226.487C213.003 226.487 201.861 219.997 200.023 226.487C198.184 232.977 213.003 226.487 213.003 226.487Z" fill="#AD6359" stroke="#263238" stroke-width="1.09196" stroke-linecap="round" stroke-linejoin="round"/>
<path d="M211.611 232.06C211.611 232.06 201.862 239.469 207.433 239.943C213.003 240.416 211.611 232.06 211.611 232.06Z" fill="#AD6359" stroke="#263238" stroke-width="1.09196" stroke-linecap="round" stroke-linejoin="round"/>
<path d="M272.89 195.361C272.89 195.361 225.871 210.806 225.203 214.859C224.534 218.912 211.777 249.789 214.465 271.278C217.153 292.768 233.74 301.626 248.517 302.879C266.511 304.411 285.661 280.289 285.661 280.289C285.661 280.289 295.605 276.459 300.981 273.785C306.357 271.111 307.026 263.702 307.026 263.702C307.026 263.702 293.711 253.814 282.291 234.343C275.436 222.539 272.169 208.992 272.89 195.361Z" fill="#AD6359" stroke="#263238" stroke-width="1.09196" stroke-linecap="round" stroke-linejoin="round"/>
<path d="M249.382 223.563C249.657 228.275 248.486 232.96 246.026 236.989C243.653 240.57 240.084 243.192 235.956 244.384C235.956 244.384 236.625 251.765 242.001 251.765" stroke="#263238" stroke-width="1.09196" stroke-linecap="round" stroke-linejoin="round"/>
<path d="M228.99 232.339C228.99 232.339 234.352 226.977 242.012 233.481" stroke="#263238" stroke-width="2.18392" stroke-linecap="round" stroke-linejoin="round"/>
<path d="M260.008 238.52C260.008 238.52 270.732 237.364 273.406 244.648" stroke="#263238" stroke-width="2.18392" stroke-linecap="round" stroke-linejoin="round"/>
<path d="M245.074 261.111C245.074 261.111 236.648 258.047 229.754 262.643C222.86 267.239 221.328 274.523 225.158 276.821C228.988 279.119 235.493 269.537 240.089 275.289C244.685 281.041 252.345 290.219 255.409 281.403C258.473 272.587 251.202 262.643 245.074 261.111Z" fill="#263238" stroke="#263238" stroke-width="1.09196" stroke-linecap="round" stroke-linejoin="round"/>
<path d="M241.107 276.546C245.745 282.242 252.569 289.596 255.41 281.407C255.699 280.562 255.895 279.689 255.995 278.802C251.218 278.301 246.037 277.507 241.107 276.546Z" fill="#AD6359" stroke="#263238" stroke-width="1.09196" stroke-linecap="round" stroke-linejoin="round"/>
<path d="M251.968 266.056C250.241 263.731 247.831 262.003 245.074 261.112C245.074 261.112 237.345 258.326 230.632 262.128C237.633 263.982 244.766 265.295 251.968 266.056Z" fill="#AD6359" stroke="#263238" stroke-width="1.09196" stroke-linecap="round" stroke-linejoin="round"/>
<path d="M223.124 272.365C223.01 273.223 223.14 274.097 223.5 274.885C223.859 275.674 224.434 276.345 225.157 276.821C227.107 277.977 229.739 276.083 232.469 274.69C228.667 273.813 225.394 272.963 223.124 272.365Z" fill="#AD6359" stroke="#263238" stroke-width="1.09196" stroke-linecap="round" stroke-linejoin="round"/>
<path d="M247.781 220.098C247.781 220.098 247.349 217.466 241.667 217.466C235.984 217.466 226.792 224.429 226.792 224.429" stroke="#263238" stroke-width="1.09196" stroke-linecap="round" stroke-linejoin="round"/>
<path d="M260.479 222.714C260.479 222.714 264.852 218.34 269.225 223.591C272.076 227.19 274.419 231.164 276.189 235.401" stroke="#263238" stroke-width="1.09196" stroke-linecap="round" stroke-linejoin="round"/>
<path d="M286.816 244.26C257.415 225.736 272.889 195.361 272.889 195.361C272.889 195.361 243.641 220.43 225.202 214.859" stroke="#263238" stroke-width="1.09196" stroke-linecap="round" stroke-linejoin="round"/>
<path d="M279.92 264.177C279.92 264.177 275.742 269.163 275.742 271.837C275.742 274.511 284.168 285.625 287.622 281.029C291.076 276.433 286.466 272.993 284.934 268.397C283.402 263.801 279.92 264.177 279.92 264.177Z" fill="#AD6359" stroke="#263238" stroke-width="1.09196" stroke-linecap="round" stroke-linejoin="round"/>
<path d="M335.448 262.643C335.448 262.643 308.986 250.011 300.212 245.415C291.438 240.819 286.814 244.259 286.814 244.259C286.814 244.259 271.104 257.671 271.87 259.969C272.636 262.267 281.452 269.537 281.452 269.537C281.452 269.537 286.814 277.197 293.318 279.119C299.822 281.041 309.404 283.701 311.326 280.637C313.248 277.573 311.326 272.991 311.326 272.991C311.326 272.991 316.674 277.587 320.128 278.353C323.582 279.119 330.852 278.353 330.852 278.353C330.852 278.353 345.406 372.167 345.406 386.331C345.406 400.495 351.534 415.439 362.258 418.893C372.982 422.347 385.224 414.297 387.522 402.807C389.82 391.317 388.678 378.685 381.784 364.507C374.89 350.329 349.236 285.261 344.25 276.055C339.264 266.849 338.512 264.941 335.448 262.643Z" fill="#AD6359" stroke="#263238" stroke-width="1.09196" stroke-linecap="round" stroke-linejoin="round"/>
<path d="M296.775 280.264C296.775 280.264 301.747 266.866 303.669 263.802" stroke="#263238" stroke-width="1.09196" stroke-linecap="round" stroke-linejoin="round"/>
<path d="M288.347 276.056C288.347 276.056 294.851 258.8 297.093 255.749" stroke="#263238" stroke-width="1.09196" stroke-linecap="round" stroke-linejoin="round"/>
<path d="M281.452 269.536C281.452 269.536 286.424 256.138 289.112 251.542" stroke="#263238" stroke-width="1.09196" stroke-linecap="round" stroke-linejoin="round"/>
<path d="M146.414 157.59L133.1 153.148L143.462 123.566H130.927L135.704 104.472C130.849 97.4151 123.46 92.5026 115.074 90.7568C106.688 89.011 97.9524 90.5665 90.6847 95.0994C83.4169 99.6323 78.1773 106.793 76.0564 115.092C73.9355 123.391 75.0968 132.188 79.2986 139.652C90.705 163.649 121.596 189.554 133.615 199.038L146.414 157.59Z" fill="#263238"/>
<path d="M168.616 89.9728C160.144 89.9687 151.991 93.2079 145.831 99.0255L140.497 116.17L155.302 115.432L141.249 148.774L156.04 152.464L142.503 199.692C153.839 190.778 185.872 164.219 197.543 139.651C200.408 134.589 201.896 128.863 201.859 123.046C201.822 117.229 200.261 111.523 197.331 106.498C194.402 101.472 190.207 97.3013 185.164 94.4019C180.121 91.5025 174.406 89.9754 168.588 89.9728H168.616Z" fill="#263238"/>
</svg>
