<svg width="300" height="300" viewBox="0 0 300 300" fill="none" xmlns="http://www.w3.org/2000/svg">
<path fill-rule="evenodd" clip-rule="evenodd" d="M100 75H75.0001V62.5H50.0009V100H250.001V62.5H225.001V75H200.001V62.5H100V75ZM250.001 125H50.0009V250H250.001V125ZM200.001 37.5H100V25H75.0001V37.5H50.0005C36.1934 37.5 25.0005 48.6929 25.0005 62.5V250C25.0005 263.807 36.1934 275 50.0005 275H250C263.808 275 275 263.807 275 250V62.5C275 48.6929 263.808 37.5 250 37.5H225.001V25H200.001V37.5ZM112.501 175H87.5009V150H112.501V175ZM137.5 175H162.5V150H137.5V175ZM212.5 175H187.5V150H212.5V175ZM87.5009 225H112.501V200H87.5009V225ZM162.5 225H137.5V200H162.5V225Z" fill="#A6A6A6"/>
</svg>
