<svg width="300" height="300" viewBox="0 0 300 300" fill="none" xmlns="http://www.w3.org/2000/svg">
<path fill-rule="evenodd" clip-rule="evenodd" d="M135.706 104.225C142.183 95.4971 144.505 86.299 137.18 78.1798C120.744 55.1801 109.689 40.9571 102.756 34.1077C89.5736 21.086 67.8889 22.8474 56.4724 34.0966C50.3404 40.1386 48.2645 42.2135 41.9683 48.6086C6.8977 83.6981 28.2856 157.876 85.1424 214.789C141.986 271.688 216.157 293.088 251.301 257.924C257.111 252.323 262.03 247.401 265.91 243.301C277.098 231.476 278.796 210.747 265.836 197.281C259.192 190.377 245.629 179.857 221.662 162.713C214.321 156.149 205.617 157.571 197.638 162.806C193.8 165.325 191.006 167.872 185.732 173.152L176.154 182.735C174.892 183.997 157.762 175.419 141.134 158.774C124.496 142.12 115.924 124.989 117.179 123.734C119.769 121.145 122.963 117.948 126.764 114.144C128.437 112.469 129.237 111.658 130.263 110.579C132.401 108.333 134.171 106.294 135.706 104.225ZM193.822 200.413L203.402 190.827C206.305 187.922 208.186 186.135 209.716 184.903C230.712 199.981 242.872 209.462 247.838 214.622C250.82 217.721 250.357 223.374 247.765 226.114C244.177 229.906 239.516 234.569 233.797 240.086C211.071 262.821 151.199 245.547 102.814 197.115C54.4144 148.667 37.1486 88.7859 59.7025 66.2195C65.9733 59.8507 67.9601 57.8649 74.0045 51.9091C76.2708 49.6761 82.4441 49.1746 85.201 51.898C90.5393 57.1714 100.442 69.8508 115.009 90.1426C114.255 91.0788 113.313 92.1369 112.167 93.3415C111.325 94.2257 110.625 94.9361 109.092 96.4699C105.295 100.271 102.103 103.465 99.5171 106.05C83.2277 122.338 97.1003 150.06 123.462 176.448C149.806 202.817 177.538 216.706 193.822 200.413Z" fill="black"/>
</svg>
