<svg width="783" height="500" viewBox="0 0 783 500" fill="none" xmlns="http://www.w3.org/2000/svg">
<path d="M233.337 142.367H80.6077V37.8897H233.337V142.367ZM81.8137 141.161H232.131V39.0957H81.8137V141.161Z" fill="#EBEBEB"/>
<path d="M92.548 44.6203C92.548 45.2214 92.3698 45.809 92.0358 46.3088C91.7019 46.8086 91.2272 47.1981 90.6719 47.4281C90.1166 47.6582 89.5055 47.7183 88.916 47.6011C88.3264 47.4838 87.7849 47.1943 87.3599 46.7693C86.9348 46.3443 86.6454 45.8028 86.5281 45.2132C86.4109 44.6237 86.471 44.0126 86.7011 43.4573C86.9311 42.9019 87.3206 42.4273 87.8204 42.0933C88.3202 41.7594 88.9078 41.5812 89.5089 41.5812C90.3149 41.5812 91.0879 41.9014 91.6579 42.4713C92.2278 43.0413 92.548 43.8143 92.548 44.6203Z" fill="#A6A6A6"/>
<path d="M104.959 44.6203C104.959 45.2214 104.781 45.809 104.447 46.3088C104.113 46.8086 103.638 47.1981 103.083 47.4281C102.528 47.6582 101.917 47.7183 101.327 47.6011C100.738 47.4838 100.196 47.1943 99.771 46.7693C99.346 46.3443 99.0565 45.8028 98.9393 45.2132C98.822 44.6237 98.8822 44.0126 99.1122 43.4573C99.3422 42.9019 99.7318 42.4273 100.232 42.0933C100.731 41.7594 101.319 41.5812 101.92 41.5812C102.726 41.5812 103.499 41.9014 104.069 42.4713C104.639 43.0413 104.959 43.8143 104.959 44.6203Z" fill="#EBEBEB"/>
<path d="M117.38 44.6203C117.382 45.2248 117.205 45.8164 116.871 46.32C116.536 46.8236 116.06 47.2166 115.502 47.449C114.944 47.6814 114.329 47.7429 113.736 47.6255C113.143 47.5082 112.598 47.2173 112.171 46.7899C111.744 46.3625 111.453 45.8177 111.335 45.2247C111.218 44.6317 111.279 44.0172 111.512 43.4592C111.744 42.9011 112.137 42.4247 112.641 42.0904C113.145 41.756 113.736 41.5788 114.341 41.5812C115.147 41.5812 115.92 41.9014 116.49 42.4713C117.06 43.0413 117.38 43.8143 117.38 44.6203Z" fill="#3E8A23"/>
<path d="M232.734 49.9613H81.2107V51.1673H232.734V49.9613Z" fill="#EBEBEB"/>
<path d="M732.998 416.024H731.792V264.283L764.029 220.288V138.062H765.235V220.674L732.998 264.681V416.024Z" fill="#EBEBEB"/>
<path d="M764.634 138.712C763.947 138.712 763.275 138.508 762.704 138.125C762.132 137.743 761.687 137.2 761.424 136.565C761.162 135.929 761.094 135.23 761.229 134.556C761.364 133.882 761.696 133.263 762.183 132.778C762.67 132.293 763.29 131.963 763.964 131.83C764.639 131.698 765.338 131.768 765.972 132.033C766.606 132.298 767.148 132.745 767.528 133.317C767.908 133.89 768.11 134.563 768.108 135.25C768.108 135.706 768.018 136.157 767.843 136.578C767.668 136.998 767.412 137.381 767.09 137.702C766.767 138.024 766.384 138.278 765.963 138.452C765.541 138.625 765.09 138.713 764.634 138.712ZM764.634 132.983C764.186 132.983 763.748 133.116 763.375 133.365C763.002 133.614 762.711 133.968 762.54 134.383C762.368 134.797 762.323 135.253 762.411 135.693C762.498 136.133 762.714 136.537 763.031 136.854C763.348 137.171 763.752 137.387 764.192 137.474C764.632 137.562 765.088 137.517 765.502 137.345C765.916 137.174 766.27 136.883 766.52 136.51C766.769 136.137 766.902 135.699 766.902 135.25C766.902 134.649 766.663 134.072 766.238 133.647C765.812 133.222 765.236 132.983 764.634 132.983Z" fill="#EBEBEB"/>
<path d="M741.312 416.021H740.106V269.599L740.215 269.43L772.343 225.592V168.21H773.549V225.99L741.312 269.985V416.021Z" fill="#EBEBEB"/>
<path d="M772.945 168.865C772.257 168.867 771.583 168.665 771.01 168.285C770.437 167.904 769.99 167.362 769.726 166.726C769.462 166.091 769.392 165.392 769.525 164.717C769.659 164.042 769.99 163.422 770.477 162.936C770.963 162.449 771.583 162.118 772.258 161.985C772.933 161.851 773.632 161.921 774.267 162.185C774.902 162.449 775.445 162.897 775.826 163.47C776.206 164.043 776.408 164.716 776.406 165.404C776.403 166.321 776.037 167.199 775.389 167.848C774.74 168.496 773.862 168.862 772.945 168.865ZM772.945 163.136C772.496 163.134 772.056 163.265 771.682 163.513C771.307 163.76 771.015 164.114 770.841 164.528C770.668 164.942 770.621 165.398 770.707 165.839C770.793 166.279 771.008 166.684 771.325 167.003C771.642 167.321 772.046 167.538 772.486 167.627C772.926 167.715 773.382 167.671 773.797 167.5C774.212 167.328 774.567 167.038 774.817 166.665C775.067 166.292 775.2 165.853 775.2 165.404C775.2 164.805 774.963 164.23 774.54 163.805C774.117 163.38 773.544 163.14 772.945 163.136Z" fill="#EBEBEB"/>
<path d="M725.007 215.328H723.801V416.02H725.007V215.328Z" fill="#EBEBEB"/>
<path d="M724.402 215.932C723.714 215.934 723.041 215.732 722.468 215.351C721.895 214.971 721.448 214.428 721.183 213.793C720.919 213.158 720.849 212.459 720.983 211.784C721.116 211.109 721.447 210.489 721.934 210.002C722.42 209.516 723.04 209.185 723.715 209.051C724.39 208.918 725.089 208.987 725.725 209.252C726.36 209.516 726.902 209.963 727.283 210.536C727.664 211.109 727.866 211.782 727.863 212.47C727.86 213.387 727.494 214.266 726.846 214.914C726.197 215.563 725.319 215.928 724.402 215.932ZM724.402 210.203C723.953 210.201 723.513 210.332 723.139 210.579C722.765 210.827 722.472 211.18 722.299 211.594C722.125 212.008 722.078 212.465 722.165 212.905C722.251 213.346 722.466 213.751 722.782 214.069C723.099 214.388 723.503 214.605 723.943 214.693C724.383 214.782 724.84 214.737 725.255 214.566C725.67 214.395 726.024 214.104 726.274 213.731C726.524 213.358 726.657 212.919 726.657 212.47C726.657 211.871 726.42 211.296 725.997 210.871C725.575 210.447 725.001 210.206 724.402 210.203Z" fill="#EBEBEB"/>
<path d="M717.298 416.024H716.092V314.177L694.215 272.895V198.749H695.421V272.605L717.298 313.887V416.024Z" fill="#EBEBEB"/>
<path d="M694.805 199.348C694.118 199.348 693.446 199.144 692.875 198.763C692.304 198.381 691.859 197.839 691.596 197.204C691.333 196.569 691.264 195.871 691.398 195.197C691.532 194.523 691.863 193.905 692.349 193.419C692.835 192.933 693.454 192.602 694.127 192.468C694.801 192.334 695.499 192.403 696.134 192.666C696.769 192.929 697.311 193.374 697.693 193.945C698.074 194.516 698.278 195.188 698.278 195.875C698.278 196.796 697.912 197.679 697.261 198.331C696.61 198.982 695.726 199.348 694.805 199.348ZM694.805 193.62C694.356 193.62 693.917 193.753 693.544 194.002C693.171 194.252 692.88 194.607 692.709 195.022C692.538 195.437 692.494 195.893 692.582 196.334C692.671 196.774 692.888 197.178 693.206 197.494C693.524 197.811 693.929 198.026 694.37 198.112C694.811 198.198 695.267 198.152 695.681 197.978C696.095 197.805 696.448 197.512 696.696 197.138C696.944 196.763 697.075 196.324 697.072 195.875C697.072 195.578 697.013 195.283 696.899 195.009C696.785 194.735 696.618 194.485 696.407 194.276C696.197 194.066 695.947 193.9 695.672 193.788C695.397 193.675 695.102 193.618 694.805 193.62Z" fill="#EBEBEB"/>
<path d="M709.643 416.022H708.437V318.6L682.64 272.964V224.061H683.846V272.639L709.643 318.286V416.022Z" fill="#EBEBEB"/>
<path d="M683.244 224.667C682.556 224.67 681.882 224.468 681.309 224.087C680.736 223.706 680.289 223.164 680.025 222.529C679.761 221.893 679.691 221.194 679.824 220.519C679.958 219.844 680.289 219.224 680.776 218.738C681.262 218.251 681.882 217.92 682.557 217.787C683.232 217.653 683.931 217.723 684.566 217.987C685.202 218.252 685.744 218.699 686.125 219.272C686.505 219.845 686.707 220.518 686.705 221.206C686.702 222.123 686.336 223.001 685.688 223.65C685.039 224.298 684.161 224.664 683.244 224.667ZM683.244 218.939C682.795 218.936 682.355 219.067 681.981 219.315C681.606 219.563 681.314 219.916 681.14 220.33C680.967 220.744 680.92 221.2 681.006 221.641C681.093 222.081 681.308 222.487 681.624 222.805C681.941 223.123 682.345 223.34 682.785 223.429C683.225 223.517 683.681 223.473 684.096 223.302C684.511 223.131 684.866 222.84 685.116 222.467C685.366 222.094 685.499 221.655 685.499 221.206C685.499 220.607 685.262 220.032 684.839 219.607C684.416 219.182 683.843 218.942 683.244 218.939Z" fill="#EBEBEB"/>
<path d="M54.7283 416.021H53.5222V337.028L21.2855 293.032V246.601H22.4915V292.634L54.7283 336.642V416.021Z" fill="#EBEBEB"/>
<path d="M21.8878 247.256C21.1999 247.258 20.5267 247.056 19.9536 246.675C19.3806 246.295 18.9335 245.752 18.6692 245.117C18.4048 244.482 18.335 243.783 18.4686 243.108C18.6023 242.433 18.9333 241.813 19.4198 241.327C19.9063 240.84 20.5263 240.509 21.2011 240.375C21.876 240.242 22.5754 240.312 23.2105 240.576C23.8457 240.84 24.388 241.287 24.7688 241.86C25.1495 242.433 25.3515 243.107 25.3491 243.795C25.3491 244.713 24.9844 245.593 24.3353 246.242C23.6862 246.891 22.8058 247.256 21.8878 247.256ZM21.8878 241.527C21.4389 241.525 20.9993 241.656 20.6249 241.904C20.2505 242.151 19.958 242.504 19.7845 242.919C19.6111 243.333 19.5645 243.789 19.6506 244.229C19.7367 244.67 19.9517 245.075 20.2683 245.393C20.5849 245.712 20.9888 245.929 21.429 246.017C21.8691 246.106 22.3256 246.062 22.7406 245.89C23.1556 245.719 23.5104 245.429 23.7601 245.055C24.0098 244.682 24.1431 244.244 24.1431 243.795C24.1431 243.195 23.9059 242.62 23.4833 242.196C23.0607 241.771 22.4871 241.53 21.8878 241.527Z" fill="#EBEBEB"/>
<path d="M46.4167 416.022H45.2107V342.346L12.974 298.351V276.751H14.18V297.953L46.4167 341.96V416.022Z" fill="#EBEBEB"/>
<path d="M13.6017 277.404C12.9142 277.404 12.2422 277.2 11.6708 276.818C11.0994 276.436 10.6542 275.893 10.3917 275.257C10.1291 274.622 10.061 273.923 10.196 273.249C10.331 272.575 10.663 271.956 11.15 271.47C11.637 270.985 12.257 270.655 12.9315 270.523C13.6061 270.39 14.3048 270.461 14.9393 270.725C15.5737 270.99 16.1153 271.437 16.4955 272.01C16.8757 272.583 17.0774 273.255 17.075 273.943C17.0718 274.862 16.7045 275.742 16.0535 276.391C15.4024 277.04 14.5208 277.404 13.6017 277.404ZM13.6017 271.676C13.1533 271.676 12.7149 271.808 12.3421 272.058C11.9692 272.307 11.6786 272.661 11.507 273.075C11.3354 273.489 11.2905 273.945 11.378 274.385C11.4655 274.825 11.6814 275.229 11.9985 275.546C12.3156 275.863 12.7196 276.079 13.1594 276.167C13.5992 276.254 14.0551 276.209 14.4694 276.038C14.8837 275.866 15.2378 275.575 15.4869 275.202C15.736 274.83 15.869 274.391 15.869 273.943C15.869 273.341 15.6301 272.765 15.2049 272.34C14.7797 271.914 14.203 271.676 13.6017 271.676Z" fill="#EBEBEB"/>
<path d="M62.7226 287.693H61.5166V416.025H62.7226V287.693Z" fill="#EBEBEB"/>
<path d="M62.1189 288.297C61.4315 288.297 60.7595 288.093 60.188 287.711C59.6166 287.329 59.1714 286.785 58.9089 286.15C58.6463 285.515 58.5783 284.816 58.7133 284.142C58.8483 283.468 59.1803 282.849 59.6672 282.363C60.1542 281.878 60.7742 281.548 61.4487 281.416C62.1233 281.283 62.822 281.354 63.4565 281.618C64.0909 281.883 64.6326 282.33 65.0128 282.903C65.393 283.476 65.5946 284.148 65.5922 284.836C65.5891 285.755 65.2217 286.635 64.5707 287.284C63.9197 287.933 63.038 288.297 62.1189 288.297ZM62.1189 282.568C61.6705 282.568 61.2321 282.701 60.8593 282.951C60.4864 283.2 60.1958 283.554 60.0242 283.968C59.8526 284.382 59.8077 284.838 59.8952 285.278C59.9827 285.718 60.1986 286.122 60.5157 286.439C60.8328 286.756 61.2368 286.972 61.6766 287.059C62.1164 287.147 62.5723 287.102 62.9866 286.93C63.4009 286.759 63.755 286.468 64.0041 286.095C64.2533 285.723 64.3862 285.284 64.3862 284.836C64.3862 284.234 64.1474 283.658 63.7222 283.233C63.297 282.807 62.7203 282.568 62.1189 282.568Z" fill="#EBEBEB"/>
<path d="M70.4325 416.023H69.2264V350.066L69.2867 349.921L91.1035 308.784V234.928H92.3095V309.074L92.2492 309.206L70.4325 350.355V416.023Z" fill="#EBEBEB"/>
<path d="M91.704 235.532C91.0171 235.532 90.3455 235.328 89.7744 234.947C89.2032 234.565 88.758 234.022 88.4951 233.388C88.2322 232.753 88.1634 232.055 88.2975 231.381C88.4315 230.707 88.7623 230.088 89.248 229.603C89.7338 229.117 90.3527 228.786 91.0264 228.652C91.7002 228.518 92.3985 228.587 93.0332 228.85C93.6679 229.113 94.2103 229.558 94.592 230.129C94.9736 230.7 95.1773 231.372 95.1773 232.059C95.1773 232.98 94.8114 233.863 94.16 234.515C93.5087 235.166 92.6252 235.532 91.704 235.532ZM91.704 229.803C91.2551 229.803 90.8162 229.937 90.4431 230.186C90.07 230.436 89.7794 230.791 89.6082 231.206C89.4369 231.621 89.3927 232.077 89.4812 232.517C89.5697 232.958 89.7868 233.362 90.1051 233.678C90.4234 233.995 90.8285 234.21 91.2691 234.296C91.7097 234.382 92.166 234.335 92.5801 234.162C92.9942 233.988 93.3474 233.696 93.5951 233.322C93.8428 232.947 93.9737 232.508 93.9713 232.059C93.9713 231.761 93.9126 231.467 93.7985 231.193C93.6844 230.918 93.5172 230.669 93.3065 230.46C93.0958 230.25 92.8458 230.084 92.5708 229.972C92.2958 229.859 92.0012 229.802 91.704 229.803Z" fill="#EBEBEB"/>
<path d="M78.0875 416.023H76.8815V354.468L76.9538 354.323L102.678 308.82V260.242H103.884V309.146L103.8 309.278L78.0875 354.781V416.023Z" fill="#EBEBEB"/>
<path d="M103.281 260.846C102.593 260.848 101.92 260.646 101.347 260.266C100.774 259.885 100.327 259.343 100.063 258.707C99.7983 258.072 99.7285 257.373 99.8622 256.698C99.9958 256.023 100.327 255.403 100.813 254.917C101.3 254.43 101.92 254.099 102.595 253.966C103.27 253.832 103.969 253.902 104.604 254.166C105.239 254.43 105.782 254.878 106.162 255.451C106.543 256.024 106.745 256.697 106.743 257.385C106.739 258.302 106.374 259.18 105.725 259.829C105.077 260.477 104.198 260.843 103.281 260.846ZM103.281 255.117C102.832 255.115 102.393 255.246 102.018 255.494C101.644 255.741 101.352 256.095 101.178 256.509C101.005 256.923 100.958 257.379 101.044 257.82C101.13 258.26 101.345 258.665 101.662 258.984C101.978 259.302 102.382 259.519 102.823 259.608C103.263 259.696 103.719 259.652 104.134 259.481C104.549 259.309 104.904 259.019 105.154 258.646C105.403 258.273 105.537 257.834 105.537 257.385C105.537 256.785 105.299 256.211 104.877 255.786C104.454 255.361 103.881 255.121 103.281 255.117Z" fill="#EBEBEB"/>
<path d="M766.157 117.586L774.599 104.018L770.451 101.449C769.846 101.073 769.359 100.534 769.048 99.8942C768.736 99.254 768.612 98.5388 768.69 97.831C768.754 97.027 768.778 96.223 768.762 95.419C768.74 94.719 768.914 94.0268 769.263 93.4198C769.613 92.8128 770.124 92.3149 770.74 91.9818L775.045 89.6663L767.363 75.6766L763.058 77.9921C762.436 78.3188 761.737 78.4669 761.036 78.4201C760.336 78.3732 759.662 78.1333 759.09 77.7268C758.439 77.2805 757.763 76.8584 757.064 76.5208C756.443 76.191 755.927 75.6945 755.573 75.0873C755.22 74.48 755.042 73.7861 755.062 73.0836L755.219 68.1872L739.263 67.6927L739.106 72.6012C739.08 73.3037 738.858 73.9849 738.466 74.5685C738.074 75.1521 737.527 75.6152 736.887 75.9057C736.525 76.0745 736.176 76.2434 735.838 76.4363C735.5 76.6293 735.151 76.8102 734.813 77.0152C734.216 77.3822 733.529 77.5765 732.829 77.5765C732.128 77.5765 731.442 77.3822 730.845 77.0152L726.66 74.4223L718.218 87.9899L722.379 90.5829C722.985 90.9574 723.472 91.4963 723.783 92.1368C724.095 92.7772 724.219 93.493 724.14 94.2009C724.072 95.003 724.048 95.8082 724.067 96.6129C724.086 97.3154 723.91 98.0094 723.559 98.6181C723.207 99.2268 722.695 99.7266 722.077 100.062L717.844 102.209L725.394 116.283L729.699 113.98C730.32 113.651 731.019 113.501 731.719 113.546C732.419 113.59 733.094 113.828 733.667 114.233C734.32 114.671 734.997 115.074 735.693 115.439C736.314 115.769 736.83 116.265 737.184 116.872C737.537 117.48 737.715 118.173 737.695 118.876L737.551 123.772L753.506 124.267L753.663 119.37C753.689 118.669 753.911 117.989 754.303 117.408C754.695 116.826 755.242 116.365 755.882 116.078L756.931 115.547L757.956 114.956C758.555 114.59 759.244 114.396 759.946 114.396C760.648 114.396 761.337 114.59 761.936 114.956L766.157 117.586ZM752.65 107.515C750.369 108.737 747.776 109.255 745.201 109.004C742.625 108.753 740.182 107.743 738.18 106.103C736.178 104.463 734.707 102.267 733.953 99.7912C733.2 97.3155 733.197 94.6719 733.946 92.1947C734.695 89.7175 736.161 87.518 738.16 85.8741C740.158 84.2303 742.6 83.2161 745.175 82.9597C747.75 82.7032 750.343 83.2161 752.627 84.4335C754.911 85.6509 756.782 87.5181 758.004 89.799C758.814 91.3174 759.316 92.9806 759.482 94.6933C759.648 96.4061 759.475 98.1347 758.972 99.7803C758.469 101.426 757.646 102.956 756.551 104.283C755.456 105.611 754.11 106.709 752.589 107.515H752.65Z" fill="#EBEBEB"/>
<path d="M31.9098 238.196L41.5579 232.601L39.8454 229.634C39.6001 229.207 39.4791 228.719 39.4962 228.227C39.5132 227.735 39.6676 227.257 39.9419 226.848C40.2474 226.382 40.5248 225.899 40.774 225.401C40.9978 224.954 41.3426 224.579 41.769 224.319C42.1955 224.059 42.6865 223.924 43.1861 223.929H46.6111V212.738H43.1861C42.6865 212.743 42.1955 212.608 41.769 212.348C41.3426 212.088 40.9978 211.713 40.774 211.266C40.5248 210.768 40.2474 210.285 39.9419 209.819C39.6676 209.41 39.5132 208.932 39.4962 208.44C39.4791 207.948 39.6001 207.46 39.8454 207.033L41.5579 204.066L31.9098 198.47L30.1973 201.449C29.955 201.868 29.6013 202.212 29.1755 202.442C28.7497 202.672 28.2684 202.779 27.7853 202.752H26.0848C25.6033 202.777 25.1239 202.671 24.6987 202.443C24.2735 202.216 23.9187 201.876 23.6728 201.461L21.9482 198.47L12.3001 204.066L14.0126 207.045C14.2579 207.472 14.3789 207.96 14.3618 208.452C14.3448 208.944 14.1904 209.422 13.9161 209.831C13.613 210.294 13.3352 210.773 13.084 211.266C12.8602 211.713 12.5154 212.088 12.089 212.348C11.6625 212.608 11.1715 212.743 10.6719 212.738H7.21069V223.929H10.6358C11.1353 223.924 11.6263 224.059 12.0528 224.319C12.4793 224.579 12.824 224.954 13.0478 225.401C13.2991 225.894 13.5769 226.373 13.8799 226.836C14.154 227.247 14.3081 227.727 14.3251 228.221C14.3422 228.715 14.2214 229.204 13.9764 229.634L12.2639 232.601L21.912 238.196L23.6366 235.218C23.882 234.802 24.2363 234.46 24.6614 234.231C25.0864 234.001 25.5661 233.892 26.0486 233.915C26.3139 233.915 26.5913 233.915 26.8687 233.915C27.1461 233.915 27.4235 233.915 27.7009 233.915C28.1832 233.893 28.6623 234.003 29.0871 234.233C29.512 234.462 29.8665 234.802 30.1129 235.218L31.9098 238.196ZM26.8687 227.499C25.0564 227.497 23.2855 226.957 21.7798 225.949C20.2741 224.94 19.1012 223.508 18.4093 221.833C17.7174 220.158 17.5376 218.315 17.8927 216.538C18.2477 214.761 19.1216 213.129 20.4039 211.848C21.6862 210.567 23.3194 209.696 25.0971 209.343C26.8747 208.99 28.717 209.173 30.3911 209.867C32.0652 210.561 33.496 211.735 34.5026 213.243C35.5092 214.75 36.0465 216.521 36.0465 218.333C36.0481 219.539 35.8117 220.732 35.3509 221.846C34.89 222.959 34.2139 223.971 33.3612 224.822C32.5085 225.674 31.496 226.349 30.3819 226.808C29.2677 227.268 28.0738 227.502 26.8687 227.499Z" fill="#EBEBEB"/>
<path d="M716.803 127.401L711.219 117.753L708.264 119.429C707.835 119.674 707.346 119.795 706.851 119.778C706.357 119.761 705.878 119.607 705.466 119.333C705.001 119.027 704.517 118.749 704.019 118.5C703.572 118.277 703.198 117.932 702.937 117.505C702.677 117.079 702.542 116.588 702.548 116.088V112.663H691.38V116.088C691.385 116.588 691.25 117.079 690.99 117.505C690.73 117.932 690.355 118.277 689.909 118.5C689.408 118.752 688.921 119.029 688.449 119.333C688.04 119.607 687.562 119.761 687.07 119.778C686.578 119.795 686.091 119.674 685.663 119.429L682.697 117.717L677.113 127.365L680.092 129.077C680.514 129.33 680.86 129.695 681.089 130.131C681.319 130.567 681.424 131.058 681.394 131.55C681.394 131.827 681.394 132.104 681.394 132.37C681.394 132.635 681.394 132.924 681.394 133.202C681.419 133.684 681.31 134.165 681.08 134.59C680.851 135.015 680.509 135.369 680.092 135.614L677.113 137.338L682.697 146.986L685.676 145.274C686.103 145.029 686.59 144.908 687.082 144.925C687.574 144.942 688.052 145.096 688.461 145.37C688.936 145.676 689.418 145.953 689.909 146.203C690.355 146.426 690.73 146.771 690.99 147.198C691.25 147.624 691.385 148.115 691.38 148.615V152.04H702.56V148.615C702.554 148.115 702.689 147.624 702.949 147.198C703.21 146.771 703.584 146.426 704.031 146.203C704.53 145.945 705.012 145.668 705.478 145.37C705.887 145.096 706.365 144.942 706.857 144.925C707.35 144.908 707.837 145.029 708.264 145.274L711.243 146.986L716.827 137.338L713.848 135.626C713.434 135.379 713.095 135.024 712.868 134.599C712.641 134.174 712.533 133.695 712.558 133.214C712.558 132.936 712.558 132.659 712.558 132.382C712.558 132.104 712.558 131.839 712.558 131.562C712.526 131.069 712.631 130.578 712.861 130.142C713.09 129.706 713.436 129.341 713.86 129.089L716.803 127.401ZM706.105 132.358C706.105 134.171 705.567 135.943 704.56 137.451C703.552 138.959 702.12 140.133 700.444 140.827C698.769 141.52 696.925 141.701 695.147 141.346C693.369 140.992 691.736 140.117 690.454 138.834C689.173 137.551 688.301 135.917 687.949 134.138C687.596 132.359 687.78 130.516 688.475 128.842C689.171 127.167 690.347 125.736 691.856 124.731C693.365 123.725 695.138 123.189 696.952 123.192C698.155 123.192 699.346 123.429 700.457 123.89C701.569 124.351 702.578 125.026 703.429 125.877C704.279 126.728 704.953 127.739 705.412 128.851C705.871 129.963 706.107 131.154 706.105 132.358Z" fill="#EBEBEB"/>
<path d="M57.6252 324.202C49.9187 308.368 36.4355 300.239 21.2397 304.737C6.04398 309.236 3.69226 330.413 15.0288 335.768C26.3653 341.123 37.7259 325.493 43.756 322.285C49.7861 319.077 57.6252 324.202 57.6252 324.202Z" fill="#3E8A23"/>
<path d="M65.0773 366.326C65.0773 364.42 64.9687 362.503 64.8964 360.597C64.7677 356.786 64.631 352.975 64.4863 349.164C64.2572 342.205 63.4853 335.379 60.6391 328.939C58.0894 323.114 53.8287 318.201 48.4222 314.853C46.4051 313.622 44.2251 312.68 41.9459 312.055C39.9008 309.979 37.2935 308.545 34.4445 307.93C30.926 307.215 27.3089 307.125 23.7592 307.665C23.7379 307.673 23.7195 307.686 23.7064 307.705C23.6934 307.723 23.6864 307.745 23.6864 307.768C23.6864 307.79 23.6934 307.812 23.7064 307.831C23.7195 307.849 23.7379 307.863 23.7592 307.87C27.1417 307.43 30.5782 307.672 33.8656 308.582C35.275 308.972 36.6409 309.506 37.942 310.174C38.7822 310.611 39.5885 311.111 40.354 311.669C36.1674 310.742 31.7961 311.143 27.8476 312.815C27.0161 312.635 26.165 312.562 25.315 312.598C24.2036 312.633 23.0995 312.791 22.0226 313.068C19.8242 313.689 17.722 314.61 15.7754 315.806C15.6669 315.866 15.7754 316.035 15.884 315.975C17.7977 314.929 19.8474 314.153 21.9743 313.671C23.0068 313.441 24.0549 313.288 25.11 313.213C25.6973 313.198 26.2851 313.214 26.8708 313.261C22.5449 315.264 19.0673 318.733 17.0538 323.054C17.0538 323.174 17.1744 323.271 17.2226 323.15C18.4215 320.645 20.1695 318.442 22.3368 316.705C24.504 314.968 27.0347 313.741 29.7411 313.116C30.0787 313.032 30.4164 312.984 30.7662 312.923C30.6434 313.432 30.5507 313.948 30.4888 314.467C30.3923 315.239 30.2596 315.999 30.1029 316.759C29.7972 318.33 29.3945 319.88 28.8969 321.402C28.3798 322.936 27.7634 324.434 27.0517 325.888C26.371 327.432 25.5087 328.89 24.4828 330.23C24.3864 330.338 24.5673 330.471 24.6396 330.35C25.5562 328.915 26.6175 327.601 27.4496 326.117C28.2588 324.702 28.9563 323.226 29.536 321.703C30.1178 320.164 30.5696 318.578 30.8868 316.964C31.0556 316.107 31.1883 315.251 31.2848 314.383C31.3889 313.867 31.4214 313.339 31.3812 312.815C33.1693 312.54 34.9856 312.499 36.7842 312.694C36.1088 316.481 35.3852 320.413 33.2626 323.693C33.1903 323.802 33.3832 323.91 33.4435 323.79C34.4323 322.049 35.3026 320.244 36.0485 318.387C36.7512 316.586 37.1899 314.693 37.351 312.767C40.4899 313.183 43.5196 314.198 46.2755 315.758C51.4653 318.777 55.6097 323.308 58.1547 328.746C60.8276 334.605 62.3232 340.932 62.5567 347.367C63.0632 355.472 63.1717 363.612 63.9798 371.68C63.9798 372.211 64.8602 372.392 64.9687 371.789C65.1771 369.975 65.2134 368.146 65.0773 366.326Z" fill="#263238"/>
<path d="M47.2776 313.599C46.7651 312.985 46.173 312.441 45.5168 311.983C44.8897 311.465 44.2384 310.958 43.563 310.5C42.2311 309.569 40.7508 308.872 39.1852 308.437C39.0646 308.437 39.0164 308.606 39.1852 308.63C40.75 309.058 42.2055 309.814 43.4545 310.849C44.1057 311.32 44.6605 311.826 45.3238 312.357C45.8577 312.919 46.4523 313.421 47.0967 313.852C47.1302 313.876 47.172 313.886 47.2127 313.879C47.2534 313.873 47.2897 313.85 47.3137 313.816C47.3377 313.783 47.3474 313.741 47.3406 313.7C47.3338 313.66 47.3111 313.623 47.2776 313.599Z" fill="#263238"/>
<path d="M22.6897 319.292C21.413 320.775 20.2327 322.338 19.1561 323.972C18.0968 325.61 17.2155 327.356 16.527 329.182C16.527 329.242 16.527 329.266 16.6114 329.182C18.3736 325.733 20.4572 322.458 22.8344 319.401C22.9189 319.389 22.7621 319.292 22.6897 319.292Z" fill="#263238"/>
<path d="M39.257 317.772C39.0949 318.763 38.8029 319.728 38.3887 320.642C37.9643 321.523 37.4724 322.37 36.9174 323.175C36.9174 323.175 36.9174 323.283 37.0138 323.247C38.3357 321.716 39.175 319.827 39.4259 317.82C39.4741 317.699 39.2811 317.651 39.257 317.772Z" fill="#263238"/>
<path d="M64.005 324.598C64.005 324.598 74.8591 310.886 95.9764 315.746C115.984 320.365 125.222 357.064 104.997 361.454C84.7725 365.844 88.3424 331.882 80.9736 326.118C75.5586 321.897 67.7798 322.801 64.005 324.598Z" fill="#3E8A23"/>
<path d="M112.233 335.792C110.864 334.584 109.413 333.472 107.891 332.464C106.467 331.483 104.912 330.707 103.272 330.16C102.452 328.91 101.533 327.728 100.522 326.627C98.6699 324.629 96.5274 322.921 94.1666 321.561H94.7938C95.9065 321.501 97.0217 321.501 98.1344 321.561C100.381 321.702 102.584 322.25 104.635 323.177C104.755 323.177 104.84 323.045 104.719 322.996C102.638 322.101 100.461 321.445 98.2309 321.043C97.1441 320.85 96.0423 320.753 94.9385 320.753C94.3475 320.753 93.7325 320.753 93.1777 320.862H92.84C90.9207 319.893 88.8978 319.144 86.81 318.631L87.4009 318.474C88.4323 318.246 89.4749 318.073 90.5245 317.955C92.6201 317.734 94.7354 317.779 96.8199 318.088C96.9525 318.088 96.9887 317.907 96.8199 317.895C94.7074 317.642 92.5781 317.557 90.4521 317.642C88.6682 317.686 86.8937 317.916 85.1577 318.329C83.8906 318.096 82.6094 317.947 81.3226 317.883C73.978 317.581 65.9701 320.295 61.4475 326.325C56.925 332.355 56.0446 340.423 55.2486 347.72C54.0152 357.87 53.7447 368.115 54.4406 378.316C54.4406 378.919 55.333 378.811 55.3571 378.244C55.6345 369.585 55.936 360.938 56.7682 352.315C57.142 348.311 57.5762 344.307 58.2395 340.351C58.7215 336.948 59.6966 333.632 61.1339 330.51C62.694 327.311 65.171 324.649 68.2494 322.864C71.3331 321.103 74.7676 320.045 78.3076 319.764C81.4872 319.503 84.688 319.806 87.7627 320.657C87.6668 321.272 87.6668 321.899 87.7627 322.514C87.8362 323.296 87.9897 324.067 88.221 324.818C88.4543 325.521 88.7489 326.203 89.1014 326.856C89.4994 327.579 89.9818 328.231 90.428 328.918C90.428 329.027 90.6692 328.918 90.5848 328.797C89.7205 327.563 89.1624 326.141 88.9567 324.649C88.8234 323.94 88.7387 323.223 88.7034 322.502C88.7034 321.959 88.7034 321.417 88.7034 320.874C92.0456 321.892 95.167 323.528 97.9053 325.698C98.4118 326.108 98.9063 326.542 99.3887 326.988C98.692 327.627 98.0909 328.362 97.6038 329.171C96.8365 330.237 96.1703 331.371 95.6139 332.56C94.639 334.902 93.9819 337.364 93.6601 339.881C93.6675 339.902 93.6814 339.92 93.6997 339.933C93.7181 339.946 93.7401 339.954 93.7626 339.954C93.7852 339.954 93.8071 339.946 93.8255 339.933C93.8439 339.92 93.8577 339.902 93.8651 339.881C94.2607 337.447 95.0769 335.1 96.2772 332.946C96.8369 331.88 97.4611 330.849 98.1465 329.859C98.5083 329.352 98.8701 328.846 99.256 328.363C99.461 328.11 99.6902 327.845 99.8831 327.555C102.359 329.992 104.381 332.851 105.853 335.997C104.854 337.047 104.02 338.242 103.381 339.543C102.623 340.9 101.966 342.311 101.415 343.764C100.393 346.566 99.5508 349.43 98.8942 352.339C98.9016 352.36 98.9155 352.379 98.9338 352.392C98.9522 352.405 98.9742 352.412 98.9967 352.412C99.0193 352.412 99.0412 352.405 99.0596 352.392C99.078 352.379 99.0918 352.36 99.0992 352.339C99.7423 349.413 100.743 346.578 102.078 343.897C102.705 342.582 103.381 341.28 104.08 340.001C104.805 338.812 105.466 337.584 106.058 336.323C107.463 339.392 108.281 342.697 108.47 346.068C108.47 346.2 108.675 346.188 108.675 346.068C108.286 340.779 106.667 335.653 103.947 331.101C105.226 331.644 106.516 332.174 107.758 332.838C109.338 333.679 110.809 334.712 112.136 335.913C112.197 336.033 112.329 335.877 112.233 335.792Z" fill="#263238"/>
<path d="M110.087 331.414C109.258 330.613 108.315 329.938 107.289 329.412C106.25 328.945 105.172 328.565 104.069 328.278C103.949 328.278 103.901 328.447 104.069 328.471C105.155 328.758 106.197 329.188 107.169 329.749C108.168 330.264 109.127 330.853 110.039 331.51C110.087 331.558 110.196 331.462 110.087 331.414Z" fill="#263238"/>
<path d="M74.375 306.278C74.375 306.278 76.389 281.651 94.6963 273.716C109.989 267.047 118.744 284.232 107.962 294.749C99.2309 303.215 85.1688 299.368 74.375 306.278Z" fill="#3E8A23"/>
<path d="M104.551 278.435C101.765 279.562 99.0468 280.851 96.4107 282.294C94.2136 283.558 92.0988 284.96 90.0791 286.491C90.3806 285.876 90.6459 285.213 90.9595 284.61C91.4307 283.656 91.95 282.726 92.5153 281.824C93.6375 279.96 94.9909 278.246 96.5434 276.723C96.6398 276.626 96.5433 276.493 96.3986 276.578C94.8558 278.112 93.4363 279.765 92.1535 281.522C91.5198 282.416 90.9399 283.346 90.4168 284.308C89.8808 285.19 89.4746 286.145 89.2108 287.142C89.1384 287.203 89.0661 287.239 89.0058 287.299C85.8095 289.846 82.88 292.711 80.2622 295.85C80.2622 295.609 80.3587 295.368 80.419 295.15C80.7687 293.944 81.1426 292.738 81.5285 291.532C82.3117 288.985 83.4268 286.552 84.845 284.296C84.9174 284.188 84.7365 284.091 84.6641 284.2C83.2239 286.443 81.9424 288.785 80.829 291.207C80.3445 292.384 79.9415 293.593 79.623 294.825C79.3627 295.632 79.1651 296.459 79.032 297.297C78.2361 298.31 77.4522 299.335 76.7044 300.385C68.8533 311.576 64.8976 325.108 63.9569 338.651C63.6775 342.693 63.6091 346.747 63.7519 350.796C63.7771 354.875 64.1361 358.944 64.8252 362.965C64.8252 363.218 65.2714 363.145 65.2714 362.892C65.1749 359.334 64.8131 355.789 64.7408 352.231C64.6684 348.673 64.7408 345.091 65.0785 341.534C65.6564 334.423 66.9988 327.396 69.0824 320.573C71.2108 313.59 74.3473 306.956 78.3928 300.879C79.1647 300.722 79.9245 300.517 80.6843 300.312C81.4441 300.107 82.5174 299.842 83.4219 299.589C85.1822 299.143 86.8918 298.516 88.5234 297.719C88.5344 297.713 88.5442 297.704 88.552 297.694C88.5598 297.684 88.5656 297.673 88.5689 297.66C88.5723 297.648 88.5732 297.635 88.5716 297.623C88.57 297.61 88.5659 297.598 88.5595 297.587C88.5532 297.575 88.5447 297.566 88.5347 297.558C88.5246 297.55 88.513 297.544 88.5007 297.541C88.4884 297.538 88.4755 297.537 88.4629 297.538C88.4502 297.54 88.438 297.544 88.4269 297.55C86.8081 298.426 85.056 299.029 83.241 299.335C81.8179 299.625 80.3225 299.806 78.8873 300.131C80.2139 298.202 81.625 296.332 83.1445 294.535C86.6367 294.853 90.1573 294.592 93.5645 293.763C95.3753 293.324 97.1559 292.768 98.8951 292.099C100.728 291.4 102.513 290.483 104.274 289.687C104.419 289.627 104.274 289.422 104.202 289.494C100.922 291.285 97.3407 292.458 93.6369 292.955C90.3695 293.475 87.0679 293.749 83.7596 293.776C85.0621 292.28 86.4008 290.821 87.8359 289.458C92.66 284.875 98.3524 280.666 104.72 278.471C104.732 278.592 104.672 278.387 104.551 278.435Z" fill="#263238"/>
<path d="M89.6461 278.519C88.8206 279.557 88.071 280.654 87.4029 281.8C86.7215 283.009 86.1794 284.291 85.7869 285.623H85.8592C86.4743 284.417 86.9929 283.211 87.6079 282.005C88.216 280.821 88.9477 279.705 89.7908 278.676C89.8752 278.555 89.7305 278.411 89.6461 278.519Z" fill="#263238"/>
<path d="M60.1334 301.854C60.0249 302.915 57.3717 292.905 41.8865 284.029C27.8243 275.961 11.0366 254.964 24.8214 241.71C35.9529 231.012 65.2711 254.337 60.1334 301.854Z" fill="#3E8A23"/>
<path d="M70.7932 359.222C70.5804 348.805 69.775 338.409 68.3812 328.083C67.1603 318.598 64.97 309.263 61.8446 300.224C60.6386 296.968 59.4326 293.76 57.9492 290.576C58.046 289.348 58.046 288.114 57.9492 286.886C57.8647 285.306 57.72 283.738 57.5753 282.17C57.4306 280.603 57.2738 279.023 57.0929 277.455C56.912 275.887 56.5622 274.319 56.5019 272.751C56.5019 272.619 56.2728 272.643 56.309 272.751C56.6148 274.396 56.8002 276.061 56.8638 277.732C56.9844 279.252 57.0688 280.771 57.117 282.303C57.1653 283.835 57.117 285.342 57.117 286.874C57.117 287.416 57.117 288.007 57.117 288.586C55.6577 285.511 54.102 282.484 52.4136 279.529C53.4628 273.113 52.1 266.408 50.7854 260.124C50.7854 260.004 50.5684 260.064 50.5925 260.185C51.2355 263.463 51.5786 266.794 51.6176 270.134C51.6176 272.775 51.5452 275.405 51.5452 278.046C51.1714 277.407 50.7975 276.779 50.4116 276.152C48.4096 272.872 46.2669 269.656 43.9835 266.504C44.1707 264.982 44.1219 263.441 43.8388 261.933C43.5809 260.245 43.2062 258.577 42.7172 256.941C42.2274 255.305 41.6558 253.695 41.0047 252.116C40.3293 250.488 39.4369 248.945 38.7856 247.292C38.7856 247.16 38.5324 247.292 38.6047 247.377C39.4304 248.907 40.0817 250.525 40.5464 252.201C41.0576 253.784 41.4804 255.395 41.8127 257.025C42.1383 258.665 42.4037 260.293 42.6328 261.945C42.7896 263.031 42.8861 264.165 43.067 265.262C39.7512 260.806 36.1241 256.591 32.2128 252.647C32.1284 252.551 31.9958 252.647 32.0802 252.792C37.9578 259.427 43.2064 266.593 47.7584 274.199C47.9272 274.488 48.096 274.777 48.2528 275.067C47.4086 274.536 46.4317 274.102 45.6237 273.656C44.1283 272.824 42.6207 272.004 41.1132 271.244L36.7233 268.832C35.9756 268.41 35.2279 267.976 34.4681 267.626C33.5382 267.235 32.6426 266.767 31.7907 266.227C31.6822 266.142 31.5495 266.323 31.6701 266.396C33.1656 267.216 34.4802 268.434 35.9274 269.35C37.3746 270.267 38.8459 271.159 40.3414 271.992C43.0911 273.535 46.082 274.633 48.7835 276.225C50.6648 279.517 52.4015 282.894 53.9934 286.331C52.3533 285.27 50.6648 284.281 48.9644 283.316C47.8669 282.701 46.7694 282.11 45.6599 281.519C44.5538 281.004 43.5099 280.365 42.5484 279.614C42.4519 279.529 42.3192 279.614 42.4037 279.758C44.2088 281.384 46.2102 282.778 48.3614 283.907C50.3513 285.113 52.3533 286.186 54.3914 287.199C56.0477 290.825 57.5391 294.52 58.8657 298.283C65.3903 316.735 67.7782 336.32 68.9239 355.785C69.2736 361.586 69.4425 367.375 69.5148 373.188C69.5872 379.001 69.2857 384.79 69.2977 390.579C69.2977 390.76 69.5751 390.796 69.5993 390.579C70.2987 385.441 70.4193 380.207 70.6485 375.021C70.8776 369.835 70.9138 364.493 70.7932 359.222Z" fill="#263238"/>
<path d="M42.6596 275.682C39.835 274.43 37.0883 273.008 34.4346 271.425C31.7445 269.911 29.136 268.256 26.6197 266.468C26.6197 266.468 26.5353 266.468 26.6197 266.541C28.9945 268.457 31.4967 270.21 34.109 271.787C36.8338 273.327 39.6535 274.692 42.5511 275.875C42.6838 275.875 42.7802 275.73 42.6596 275.682Z" fill="#263238"/>
<path d="M47.143 254.819C46.9139 253.915 46.6365 253.034 46.335 252.154C46.3435 252.139 46.3479 252.123 46.3479 252.106C46.3479 252.089 46.3435 252.072 46.335 252.058C46.1421 251.551 45.937 251.057 45.732 250.562L45.6596 250.381C45.6596 250.285 45.5752 250.2 45.539 250.104C45.5029 250.007 45.4787 250.104 45.539 250.104C45.5993 250.104 45.6355 250.442 45.6958 250.622C45.7144 250.716 45.7386 250.809 45.7682 250.9C46.7903 254.34 47.5563 257.851 48.0596 261.404C48.0596 261.513 48.2405 261.513 48.2405 261.404C48.0855 259.179 47.718 256.974 47.143 254.819Z" fill="#263238"/>
<path d="M87.1604 362.964L86.0509 376.061L82.6741 416.004H46.4334L43.0566 376.061L41.947 362.964H87.1604Z" fill="#37474F"/>
<path d="M87.1604 362.964L86.0509 376.061H43.0566L41.947 362.964H87.1604Z" fill="#263238"/>
<path d="M90.7164 357.718H38.3995V370.285H90.7164V357.718Z" fill="#37474F"/>
<path d="M0 416L97.7715 415.711L195.543 415.602L391.086 415.397L586.629 415.602L684.4 415.711L782.172 416L684.4 416.302L586.629 416.398L391.086 416.603L195.543 416.398L97.7715 416.29L0 416Z" fill="#263238"/>
<path d="M674.439 64.9169H105.695V445.366H674.439V64.9169Z" fill="#EBEBEB"/>
<path d="M670.302 69.5569H109.831V440.719H670.302V69.5569Z" fill="#263238"/>
<path d="M748.511 473.89H31.6207V500H748.511V473.89Z" fill="#DBDBDB"/>
<path d="M31.6207 473.89L105.706 445.367H674.438L748.523 473.89H31.6207Z" fill="#EBEBEB"/>
<path d="M112.314 463.771L160.12 445.367H620.021L667.828 463.771H112.314Z" fill="#263238"/>
<path d="M638.645 97.757H141.515V412.526H638.645V97.757Z" fill="white"/>
<path d="M638.645 97.757H141.092V109.865H638.645V97.757Z" fill="#455A64"/>
<path d="M150.713 103.81C150.713 104.404 150.537 104.984 150.207 105.478C149.877 105.972 149.408 106.357 148.859 106.584C148.311 106.812 147.707 106.871 147.124 106.755C146.542 106.639 146.007 106.353 145.587 105.933C145.167 105.513 144.881 104.978 144.765 104.396C144.649 103.813 144.709 103.209 144.936 102.661C145.163 102.112 145.548 101.643 146.042 101.313C146.536 100.983 147.116 100.807 147.71 100.807C148.507 100.807 149.271 101.123 149.834 101.686C150.397 102.25 150.713 103.013 150.713 103.81Z" fill="#C7C7C7"/>
<path d="M162.978 103.81C162.978 104.404 162.802 104.984 162.472 105.478C162.142 105.972 161.673 106.357 161.124 106.584C160.575 106.812 159.971 106.871 159.389 106.755C158.806 106.639 158.271 106.353 157.851 105.933C157.431 105.513 157.145 104.978 157.029 104.396C156.914 103.813 156.973 103.209 157.2 102.661C157.428 102.112 157.812 101.643 158.306 101.313C158.8 100.983 159.381 100.807 159.975 100.807C160.369 100.805 160.761 100.882 161.126 101.032C161.491 101.183 161.822 101.404 162.102 101.683C162.381 101.962 162.602 102.294 162.752 102.659C162.903 103.024 162.979 103.415 162.978 103.81Z" fill="white"/>
<path d="M175.207 103.81C175.207 104.404 175.031 104.984 174.701 105.478C174.371 105.972 173.902 106.357 173.354 106.584C172.805 106.812 172.201 106.871 171.619 106.755C171.036 106.639 170.501 106.353 170.081 105.933C169.661 105.513 169.375 104.978 169.259 104.396C169.143 103.813 169.203 103.209 169.43 102.661C169.657 102.112 170.042 101.643 170.536 101.313C171.03 100.983 171.61 100.807 172.204 100.807C172.599 100.805 172.99 100.882 173.355 101.032C173.721 101.183 174.052 101.404 174.331 101.683C174.611 101.962 174.832 102.294 174.982 102.659C175.132 103.024 175.209 103.415 175.207 103.81Z" fill="#3E8A23"/>
<path d="M638.644 109.867H629.816V412.516H638.644V109.867Z" fill="#DBDBDB"/>
<path d="M634.215 214.789C633.611 214.789 633.031 214.549 632.604 214.121C632.176 213.694 631.936 213.114 631.936 212.509V113.918C631.936 113.313 632.176 112.734 632.604 112.306C633.031 111.879 633.611 111.638 634.215 111.638C634.82 111.638 635.4 111.879 635.827 112.306C636.255 112.734 636.495 113.313 636.495 113.918V212.509C636.495 213.114 636.255 213.694 635.827 214.121C635.4 214.549 634.82 214.789 634.215 214.789Z" fill="#A6A6A6"/>
<path d="M569.073 188.366H213.106V242.323H569.073V188.366Z" fill="white"/>
<path d="M569.674 242.914H212.501V187.763H569.674V242.914ZM213.707 241.708H568.468V188.969H213.707V241.708Z" fill="#DBDBDB"/>
<path d="M244.535 202.981C245.227 204.982 245.7 207.053 245.946 209.156C246.468 213.26 246.468 217.414 245.946 221.518C245.695 223.621 245.218 225.691 244.523 227.692C243.822 225.693 243.345 223.622 243.099 221.518C242.585 217.413 242.585 213.26 243.099 209.156C243.359 207.053 243.84 204.983 244.535 202.981Z" fill="#37474F"/>
<path d="M256.884 215.334C254.886 216.046 252.815 216.531 250.709 216.782C248.661 217.042 246.599 217.171 244.534 217.168C242.47 217.178 240.407 217.049 238.36 216.782C236.251 216.538 234.176 216.061 232.173 215.359C234.179 214.668 236.253 214.191 238.36 213.935C240.407 213.674 242.47 213.545 244.534 213.549C246.599 213.556 248.661 213.689 250.709 213.947C252.812 214.184 254.882 214.649 256.884 215.334Z" fill="#37474F"/>
<path d="M253.267 206.604C252.342 208.508 251.214 210.308 249.902 211.97C248.643 213.606 247.277 215.157 245.814 216.613C244.355 218.078 242.805 219.448 241.171 220.714C239.504 222.025 237.701 223.153 235.792 224.079C236.717 222.17 237.846 220.367 239.157 218.7C240.423 217.066 241.793 215.515 243.257 214.057C244.719 212.599 246.27 211.234 247.9 209.968C249.565 208.66 251.364 207.532 253.267 206.604Z" fill="#37474F"/>
<path d="M253.269 224.075C251.366 223.146 249.567 222.018 247.902 220.71C246.268 219.444 244.717 218.074 243.259 216.609C241.782 215.151 240.405 213.596 239.134 211.954C237.823 210.287 236.695 208.484 235.77 206.575C237.68 207.496 239.484 208.625 241.148 209.94C244.421 212.469 247.356 215.408 249.88 218.684C251.201 220.353 252.337 222.161 253.269 224.075Z" fill="#37474F"/>
<path d="M292.703 202.981C293.395 204.982 293.868 207.053 294.114 209.156C294.372 211.204 294.505 213.266 294.512 215.331C294.515 217.399 294.387 219.466 294.126 221.518C293.869 223.62 293.392 225.69 292.703 227.692C292.002 225.693 291.525 223.622 291.28 221.518C291.013 219.466 290.884 217.399 290.894 215.331C290.891 213.266 291.019 211.204 291.28 209.156C291.529 207.052 292.007 204.982 292.703 202.981Z" fill="#37474F"/>
<path d="M305.053 215.333C303.054 216.035 300.983 216.512 298.878 216.756C296.83 217.016 294.768 217.145 292.703 217.142C290.635 217.152 288.568 217.023 286.517 216.756C284.412 216.511 282.341 216.034 280.342 215.333C282.345 214.644 284.414 214.167 286.517 213.91C288.569 213.649 290.635 213.52 292.703 213.524C294.768 213.531 296.83 213.664 298.878 213.922C300.981 214.167 303.052 214.64 305.053 215.333Z" fill="#37474F"/>
<path d="M301.436 206.604C300.511 208.508 299.383 210.308 298.072 211.97C296.812 213.606 295.446 215.157 293.983 216.613C292.525 218.078 290.974 219.448 289.34 220.714C287.673 222.025 285.87 223.153 283.961 224.079C284.887 222.17 286.015 220.367 287.326 218.7C288.592 217.066 289.962 215.515 291.426 214.057C292.883 212.594 294.434 211.228 296.07 209.968C297.732 208.657 299.532 207.529 301.436 206.604Z" fill="#37474F"/>
<path d="M301.435 224.075C299.53 223.149 297.731 222.021 296.068 220.71C294.429 219.45 292.878 218.08 291.425 216.609C289.973 215.148 288.62 213.593 287.373 211.954C286.061 210.287 284.933 208.484 284.008 206.575C285.919 207.496 287.723 208.625 289.387 209.94C292.659 212.469 295.594 215.408 298.118 218.684C299.414 220.356 300.526 222.164 301.435 224.075Z" fill="#37474F"/>
<path d="M340.857 202.981C341.559 204.98 342.036 207.051 342.28 209.156C342.54 211.204 342.669 213.266 342.666 215.331C342.675 217.399 342.546 219.466 342.28 221.518C342.035 223.622 341.557 225.693 340.857 227.692C340.166 225.691 339.692 223.621 339.446 221.518C339.181 219.466 339.048 217.399 339.048 215.331C339.054 213.266 339.187 211.204 339.446 209.156C339.691 207.053 340.164 204.982 340.857 202.981Z" fill="#37474F"/>
<path d="M353.22 215.333C351.22 216.034 349.149 216.511 347.045 216.756C344.993 217.017 342.926 217.146 340.858 217.142C338.793 217.151 336.73 217.022 334.683 216.756C332.578 216.512 330.507 216.035 328.508 215.333C330.511 214.642 332.58 214.165 334.683 213.91C336.731 213.65 338.794 213.521 340.858 213.524C342.926 213.53 344.993 213.663 347.045 213.922C349.148 214.169 351.218 214.642 353.22 215.333Z" fill="#37474F"/>
<path d="M349.601 206.604C348.676 208.508 347.548 210.308 346.237 211.97C344.977 213.606 343.612 215.157 342.148 216.613C340.69 218.078 339.139 219.448 337.505 220.714C335.838 222.025 334.035 223.153 332.126 224.079C333.047 222.168 334.176 220.364 335.491 218.7C336.757 217.069 338.122 215.519 339.58 214.057C341.043 212.596 342.598 211.231 344.235 209.968C345.898 208.657 347.697 207.529 349.601 206.604Z" fill="#37474F"/>
<path d="M349.601 224.075C347.697 223.149 345.898 222.021 344.235 220.71C342.595 219.447 341.04 218.077 339.58 216.609C338.119 215.147 336.753 213.592 335.491 211.954C334.176 210.29 333.047 208.486 332.126 206.575C334.037 207.496 335.841 208.625 337.505 209.94C340.778 212.469 343.712 215.408 346.237 218.684C347.549 220.354 348.678 222.162 349.601 224.075Z" fill="#37474F"/>
<path d="M389.027 202.981C389.724 204.982 390.201 207.052 390.45 209.156C390.965 213.26 390.965 217.413 390.45 221.518C390.205 223.622 389.728 225.693 389.027 227.692C388.332 225.691 387.855 223.621 387.604 221.518C387.343 219.466 387.215 217.399 387.218 215.331C387.225 213.266 387.358 211.204 387.616 209.156C387.862 207.053 388.335 204.982 389.027 202.981Z" fill="#37474F"/>
<path d="M401.387 215.333C399.388 216.034 397.317 216.511 395.212 216.756C393.161 217.017 391.094 217.146 389.026 217.142C386.961 217.151 384.898 217.022 382.851 216.756C380.746 216.512 378.675 216.035 376.676 215.333C378.678 214.642 380.748 214.165 382.851 213.91C384.899 213.65 386.961 213.521 389.026 213.524C391.094 213.53 393.16 213.663 395.212 213.922C397.316 214.169 399.386 214.642 401.387 215.333Z" fill="#37474F"/>
<path d="M397.769 206.604C396.844 208.508 395.716 210.308 394.404 211.97C393.141 213.606 391.771 215.157 390.304 216.613C388.851 218.084 387.3 219.454 385.661 220.714C383.998 222.025 382.199 223.153 380.294 224.079C381.21 222.165 382.339 220.361 383.659 218.7C384.921 217.066 386.287 215.516 387.747 214.057C389.209 212.599 390.76 211.234 392.39 209.968C394.059 208.66 395.862 207.532 397.769 206.604Z" fill="#37474F"/>
<path d="M397.769 224.079C395.862 223.151 394.059 222.023 392.39 220.714C390.757 219.448 389.206 218.078 387.747 216.613C386.284 215.162 384.918 213.615 383.659 211.982C382.339 210.321 381.21 208.517 380.294 206.604C382.201 207.524 384.001 208.653 385.661 209.968C387.299 211.224 388.851 212.59 390.304 214.057C391.768 215.52 393.138 217.075 394.404 218.712C395.716 220.375 396.844 222.174 397.769 224.079Z" fill="#37474F"/>
<path d="M437.196 202.981C437.886 204.984 438.363 207.053 438.619 209.156C439.133 213.26 439.133 217.413 438.619 221.518C438.374 223.622 437.896 225.693 437.196 227.692C436.501 225.691 436.023 223.621 435.772 221.518C435.25 217.414 435.25 213.26 435.772 209.156C436.022 207.052 436.499 204.982 437.196 202.981Z" fill="#37474F"/>
<path d="M449.558 215.333C447.554 216.035 445.479 216.512 443.371 216.756C441.323 217.017 439.26 217.146 437.196 217.142C435.131 217.152 433.069 217.023 431.021 216.756C428.92 216.513 426.853 216.035 424.859 215.333C426.861 214.641 428.93 214.164 431.033 213.91C433.081 213.649 435.144 213.52 437.208 213.524C439.273 213.53 441.335 213.663 443.383 213.922C445.486 214.168 447.556 214.641 449.558 215.333Z" fill="#37474F"/>
<path d="M445.94 206.604C445.015 208.511 443.882 210.311 442.563 211.97C440.03 215.239 437.096 218.176 433.831 220.714C432.169 222.025 430.369 223.153 428.465 224.079C429.381 222.165 430.51 220.361 431.829 218.7C433.092 217.066 434.457 215.516 435.918 214.057C437.38 212.599 438.93 211.234 440.561 209.968C442.228 208.657 444.031 207.529 445.94 206.604Z" fill="#37474F"/>
<path d="M445.94 224.079C444.031 223.153 442.228 222.025 440.561 220.714C438.927 219.448 437.376 218.078 435.918 216.613C434.454 215.162 433.089 213.615 431.829 211.982C430.51 210.321 429.381 208.517 428.465 206.604C430.372 207.524 432.172 208.653 433.831 209.968C435.47 211.224 437.021 212.59 438.475 214.057C439.938 215.517 441.304 217.072 442.563 218.712C443.882 220.371 445.015 222.171 445.94 224.079Z" fill="#37474F"/>
<path d="M485.363 202.981C486.055 204.982 486.528 207.053 486.774 209.156C487.296 213.26 487.296 217.414 486.774 221.518C486.523 223.621 486.046 225.691 485.351 227.692C484.65 225.693 484.173 223.622 483.928 221.518C483.413 217.413 483.413 213.26 483.928 209.156C484.187 207.053 484.668 204.983 485.363 202.981Z" fill="#37474F"/>
<path d="M497.713 215.333C495.715 216.036 493.644 216.514 491.539 216.756C489.491 217.017 487.428 217.146 485.364 217.142C483.299 217.152 481.236 217.023 479.189 216.756C477.08 216.512 475.005 216.035 473.002 215.333C475.009 214.642 477.082 214.165 479.189 213.91C481.237 213.649 483.299 213.52 485.364 213.524C487.428 213.53 489.49 213.663 491.539 213.922C493.642 214.166 495.713 214.639 497.713 215.333Z" fill="#37474F"/>
<path d="M494.095 206.604C493.179 208.513 492.05 210.313 490.731 211.97C489.475 213.609 488.109 215.16 486.642 216.613C485.184 218.078 483.633 219.448 481.999 220.714C480.334 222.023 478.535 223.15 476.632 224.079C477.549 222.168 478.673 220.364 479.985 218.7C482.523 215.435 485.46 212.501 488.729 209.968C490.393 208.66 492.192 207.532 494.095 206.604Z" fill="#37474F"/>
<path d="M494.095 224.079C492.192 223.15 490.393 222.023 488.729 220.714C485.468 218.172 482.531 215.24 479.985 211.982C478.673 210.318 477.549 208.514 476.632 206.604C478.538 207.527 480.337 208.656 481.999 209.968C483.633 211.231 485.183 212.596 486.642 214.057C488.106 215.517 489.472 217.072 490.731 218.712C492.05 220.369 493.179 222.169 494.095 224.079Z" fill="#37474F"/>
<path d="M451.953 204.43V270.109H433.393V204.43C433.393 179.453 414.422 159.144 391.086 159.144C367.75 159.144 348.779 179.453 348.779 204.43V270.109H330.219V204.43C330.219 168.659 357.523 139.594 391.086 139.594C424.649 139.594 451.953 168.659 451.953 204.43Z" fill="#455A64"/>
<path d="M330.219 221.508L348.779 222.256V270.11H330.219V221.508Z" fill="#263238"/>
<path d="M451.954 226.466V270.111H433.394V225.706L451.954 226.466Z" fill="#263238"/>
<path d="M475.749 232.71H306.437V386.32H475.749V232.71Z" fill="#3E8A23"/>
<path opacity="0.1" d="M475.734 232.71H391.084V386.32H475.734V232.71Z" fill="black"/>
<path d="M398.248 315.142L405.328 348.753H375.25L382.341 315.142C379.568 313.414 377.433 310.83 376.26 307.781C375.086 304.732 374.937 301.383 375.836 298.242C376.734 295.101 378.632 292.338 381.24 290.37C383.849 288.403 387.028 287.339 390.295 287.339C393.562 287.339 396.74 288.403 399.349 290.37C401.958 292.338 403.855 295.101 404.754 298.242C405.652 301.383 405.504 304.732 404.33 307.781C403.156 310.83 401.021 313.414 398.248 315.142Z" fill="#263238"/>
<path d="M341.907 315.084C341.907 315.084 333.055 385.95 318.511 401.917C301.048 421.045 288.361 418.247 281.317 428.112C274.274 418.235 261.599 421.045 244.112 401.905C229.567 385.95 220.727 315.072 220.727 315.072C259.054 296.476 281.342 275.624 281.342 275.624C282.005 276.275 304.171 296.777 341.907 315.084Z" fill="#EBEBEB"/>
<path d="M281.343 275.635V428.1C274.3 418.222 261.625 421.032 244.137 401.893C229.593 385.937 220.753 315.06 220.753 315.06C259.056 296.475 281.343 275.623 281.343 275.623V275.635Z" fill="#DBDBDB"/>
<path d="M332.509 320.799C332.509 320.799 325.031 380.653 312.742 394.136C297.968 410.321 287.259 407.945 281.301 416.279C275.344 407.945 264.634 410.321 249.873 394.136C237.583 380.653 230.118 320.799 230.118 320.799C262.5 305.121 281.301 287.452 281.301 287.452C281.301 287.452 300.127 305.072 332.509 320.799Z" fill="#DBDBDB"/>
<path d="M230.132 320.8C230.132 320.8 237.609 380.655 249.898 394.138C264.648 410.311 275.309 407.947 281.339 416.256V287.478C280.748 288.009 262.043 305.315 230.132 320.8Z" fill="#C7C7C7"/>
<path d="M298.097 368.653C307.365 359.384 307.365 344.356 298.097 335.087C288.828 325.818 273.8 325.818 264.531 335.087C255.262 344.356 255.262 359.384 264.531 368.653C273.8 377.922 288.828 377.922 298.097 368.653Z" fill="#3E8A23"/>
<path d="M278.614 367.292L268.037 356.293L271.957 352.519L277.782 358.585L290.349 339.313L294.907 342.279L278.614 367.292Z" fill="white"/>
<path d="M199.435 433.803L202.251 419.386L370.661 452.275C372.199 452.575 373.555 453.474 374.43 454.774C375.306 456.074 375.629 457.669 375.328 459.207L374.778 462.024C374.478 463.562 373.578 464.918 372.278 465.794C370.978 466.669 369.384 466.992 367.845 466.691L199.435 433.803Z" fill="#3E8A23"/>
<path opacity="0.1" d="M202.238 419.372L199.421 433.801L219.756 437.772L222.573 423.343L202.238 419.372Z" fill="black"/>
<path d="M137.822 400.987L132.865 426.627C132.027 430.925 132.043 435.347 132.913 439.639C133.783 443.931 135.49 448.01 137.937 451.642C140.383 455.274 143.521 458.389 147.171 460.809C150.821 463.229 154.912 464.906 159.211 465.744C163.509 466.583 167.931 466.566 172.223 465.696C176.515 464.826 180.593 463.119 184.226 460.673C187.858 458.226 190.973 455.089 193.393 451.438C195.812 447.788 197.489 443.697 198.328 439.399L203.321 413.819C205.022 405.134 203.204 396.128 198.265 388.783C193.327 381.438 185.673 376.356 176.987 374.654C168.302 372.952 159.296 374.771 151.951 379.709C144.606 384.648 139.524 392.302 137.822 400.987ZM192.804 407.391C191.321 415.001 184.676 420.488 176.463 421.803C183.578 426.133 187.679 433.694 186.183 441.304C184.205 451.483 172.977 457.875 161.122 455.559C149.267 453.244 141.295 443.101 143.285 432.935C144.769 425.325 151.414 419.837 159.639 418.462C152.511 414.157 148.423 406.571 149.906 398.961C151.896 388.77 163.1 382.403 174.943 384.718C186.786 387.034 194.842 397.212 192.853 407.391H192.804Z" fill="#3E8A23"/>
<path d="M203.502 412.873L198.146 440.298C197.857 441.775 198.821 443.207 200.299 443.496L201.601 443.75C203.078 444.038 204.51 443.075 204.798 441.597L210.154 414.172C210.442 412.695 209.479 411.263 208.001 410.974L206.699 410.72C205.222 410.432 203.79 411.395 203.502 412.873Z" fill="#3E8A23"/>
<path d="M210.156 414.174L204.8 441.599C204.512 443.077 205.476 444.508 206.953 444.797L208.255 445.051C209.732 445.34 211.164 444.376 211.452 442.898L216.808 415.473C217.097 413.996 216.133 412.564 214.656 412.276L213.354 412.021C211.876 411.733 210.445 412.697 210.156 414.174Z" fill="#3E8A23"/>
<path d="M330.412 438.229L335.429 439.206L338.264 424.637L342.557 425.469L341.074 433.067L346.079 434.044L347.562 426.446L351.361 427.182L349.009 439.194L354.026 440.183L356.378 428.171L361.757 429.22L358.633 445.26L363.65 446.237L366.786 430.197L371.875 431.198L367.871 451.7L323.056 442.945L327.048 422.442L333.247 423.648L330.412 438.229Z" fill="#3E8A23"/>
<path d="M503.246 363.128L470.382 389.661C464.075 394.702 458.636 399.236 456.043 401.853C455.373 402.404 454.834 403.096 454.463 403.879C454.463 403.879 454.463 403.879 454.463 403.952C454.692 406.834 493.526 458.415 495.467 459.754C497.409 461.093 501.413 455.617 501.498 452.422C501.582 449.226 495.552 422.814 495.552 422.814L528.114 395.968L503.246 363.128Z" fill="#C95F50"/>
<path d="M477.087 384.247L470.345 389.686C464.038 394.727 458.598 399.262 456.006 401.879C455.401 402.49 454.87 403.17 454.426 403.905C454.426 403.905 454.426 403.905 454.426 403.978C454.655 406.86 493.488 458.441 495.43 459.78C497.372 461.118 501.376 455.643 501.46 452.447C501.545 449.251 495.515 422.84 495.515 422.84L502.437 417.4L477.087 384.247Z" fill="#EBEBEB"/>
<path d="M495.395 459.817C493.43 458.478 454.608 406.909 454.391 404.002C454.282 402.905 461.47 396.766 470.358 389.699L470.648 389.47L496.01 422.466L495.444 422.877C495.444 422.877 501.474 449.264 501.389 452.484C501.305 455.704 497.349 461.167 495.395 459.817Z" fill="#3E8A23"/>
<path d="M496.952 457.728C490.62 448.875 464.257 413.768 457.322 405.495C457.322 405.423 457.226 405.495 457.322 405.495C463.352 414.408 490.053 449.31 496.867 457.8C496.964 457.981 497.096 457.981 496.952 457.728Z" fill="#263238"/>
<path d="M497.482 425.744C495.54 421.849 491.874 418.05 487.46 417.302C487.291 417.302 487.255 417.507 487.376 417.604C490.885 420.064 494.119 422.894 497.024 426.046C497.068 426.095 497.129 426.127 497.194 426.135C497.26 426.144 497.327 426.129 497.383 426.092C497.438 426.056 497.479 426 497.497 425.937C497.515 425.873 497.51 425.804 497.482 425.744Z" fill="#263238"/>
<path d="M497.853 429.341C495.911 425.434 492.233 421.647 487.831 420.899C487.662 420.899 487.626 421.116 487.735 421.2C491.243 423.662 494.478 426.492 497.383 429.643C497.402 429.673 497.428 429.7 497.458 429.721C497.488 429.742 497.522 429.757 497.558 429.765C497.594 429.773 497.631 429.773 497.667 429.767C497.703 429.76 497.738 429.747 497.769 429.727C497.799 429.707 497.826 429.681 497.847 429.651C497.868 429.621 497.883 429.587 497.891 429.551C497.899 429.516 497.899 429.479 497.893 429.442C497.886 429.406 497.873 429.372 497.853 429.341Z" fill="#263238"/>
<path d="M498.218 432.925C496.289 429.03 492.61 425.243 488.209 424.483C488.04 424.483 487.991 424.7 488.112 424.784C491.618 427.248 494.853 430.078 497.76 433.227C497.78 433.257 497.805 433.283 497.835 433.303C497.865 433.323 497.899 433.337 497.934 433.344C497.969 433.352 498.005 433.352 498.041 433.345C498.076 433.338 498.11 433.325 498.14 433.305C498.17 433.285 498.196 433.26 498.216 433.23C498.236 433.2 498.251 433.167 498.258 433.131C498.265 433.096 498.265 433.06 498.259 433.024C498.252 432.989 498.238 432.955 498.218 432.925Z" fill="#263238"/>
<path d="M520.978 331.509C518.65 343.002 470.977 388.843 470.977 388.843L504.214 427.206C504.214 427.206 571.896 359.669 568.362 334.258C565.287 312.176 532.182 223.378 532.182 223.378H494.096C494.096 223.378 523.257 320.208 520.978 331.509Z" fill="#37474F"/>
<path d="M520.978 331.509C518.65 343.002 470.977 388.843 470.977 388.843L504.214 427.206C504.214 427.206 571.896 359.669 568.362 334.258C565.287 312.176 532.182 223.378 532.182 223.378H494.096C494.096 223.378 523.257 320.208 520.978 331.509Z" fill="#37474F"/>
<path d="M507.986 418.089C503.572 412.59 504.922 414.109 500.448 408.658C498.253 405.993 483.841 388.493 481.357 386.359C481.357 386.359 481.212 386.359 481.248 386.455C482.913 389.265 497.626 406.511 499.869 409.14C504.452 414.495 503.198 412.915 507.829 418.222C507.925 418.318 508.07 418.185 507.986 418.089Z" fill="#263238"/>
<path d="M525.717 325.912C525.162 323.042 524.511 320.183 523.944 317.325C522.698 311.488 521.384 305.671 520.001 299.874C517.251 288.369 514.264 276.928 511.04 265.551C507.796 254.142 504.359 242.745 500.391 231.553C499.908 230.166 499.402 228.792 498.895 227.417C498.895 227.394 498.887 227.373 498.871 227.357C498.855 227.341 498.833 227.332 498.811 227.332C498.789 227.332 498.767 227.341 498.751 227.357C498.735 227.373 498.727 227.394 498.727 227.417C502.164 238.633 505.697 249.812 508.905 261.077C512.113 272.341 515.068 283.605 517.866 294.941C519.265 300.634 520.568 306.35 521.846 312.067C522.473 314.877 523.052 317.699 523.679 320.509C524.424 323.369 524.96 326.279 525.283 329.216C525.37 331.999 524.586 334.74 523.04 337.055C521.605 339.395 519.928 341.59 518.3 343.797C515.044 348.211 484.001 382.812 483 383.752C482.916 383.825 483 383.933 483.121 383.861C487.282 380.122 513.621 351.612 516.962 347.198C518.626 345.015 520.23 342.808 521.786 340.565C523.369 338.54 524.645 336.293 525.572 333.896C526.305 331.291 526.355 328.541 525.717 325.912Z" fill="#263238"/>
<path d="M525.631 223.378L518.709 314.251C512.1 283.148 494.094 223.378 494.094 223.378H525.631Z" fill="#263238"/>
<path d="M588.25 473.865C585.995 474.589 521.437 473.588 519.013 471.996C518.619 471.226 518.405 470.376 518.386 469.512C518.38 469.488 518.38 469.463 518.386 469.439C517.915 465.821 517.686 458.73 517.566 450.65L516.143 443.667H557.521L559.137 451.168C559.137 451.168 583.679 462.613 586.176 464.651C588.672 466.69 590.529 473.154 588.25 473.865Z" fill="#EBEBEB"/>
<path d="M588.248 473.87C585.981 474.594 521.435 473.593 519.011 472.001C518.07 471.41 517.672 461.991 517.515 450.606V450.244L559.159 450.425V451.137C559.159 451.137 583.689 462.57 586.174 464.608C588.658 466.646 590.515 473.159 588.248 473.87Z" fill="#3E8A23"/>
<path d="M587.56 471.358C576.706 470.924 532.771 470.152 521.989 470.586C521.905 470.586 521.905 470.647 521.989 470.659C532.759 471.322 576.67 471.696 587.56 471.539C587.789 471.527 587.789 471.37 587.56 471.358Z" fill="#263238"/>
<path d="M562.633 451.315C558.364 450.447 553.118 451.026 549.789 454.029C549.669 454.137 549.789 454.318 549.97 454.282C554.084 453.026 558.322 452.218 562.609 451.87C562.645 451.872 562.682 451.866 562.716 451.853C562.75 451.841 562.782 451.822 562.809 451.797C562.836 451.773 562.857 451.743 562.873 451.71C562.888 451.677 562.897 451.641 562.899 451.605C562.9 451.568 562.894 451.532 562.882 451.498C562.87 451.463 562.85 451.432 562.826 451.405C562.801 451.378 562.771 451.356 562.738 451.341C562.705 451.325 562.67 451.317 562.633 451.315Z" fill="#263238"/>
<path d="M565.68 453.22C561.423 452.351 556.165 452.93 552.848 455.933C552.728 456.054 552.848 456.235 553.029 456.187C557.139 454.932 561.373 454.123 565.656 453.775C565.73 453.778 565.802 453.752 565.856 453.702C565.91 453.652 565.942 453.583 565.946 453.509C565.949 453.436 565.923 453.364 565.873 453.31C565.823 453.255 565.754 453.223 565.68 453.22Z" fill="#263238"/>
<path d="M568.747 455.135C564.478 454.266 559.232 454.845 555.915 457.836C555.783 457.957 555.915 458.138 556.096 458.102C560.208 456.853 564.441 456.044 568.723 455.69C568.759 455.691 568.796 455.686 568.83 455.673C568.864 455.661 568.896 455.641 568.923 455.617C568.95 455.592 568.971 455.562 568.987 455.529C569.002 455.496 569.011 455.461 569.013 455.424C569.014 455.388 569.008 455.351 568.996 455.317C568.984 455.283 568.964 455.251 568.94 455.225C568.915 455.198 568.886 455.176 568.852 455.16C568.819 455.145 568.784 455.136 568.747 455.135Z" fill="#263238"/>
<path d="M528.572 223.378C527.087 229.648 525.992 236.004 525.292 242.409C524.508 250.393 523.507 257.46 522.446 258.34C521.385 259.221 515.21 263.165 513.184 264.371C513.184 264.371 531.973 321.343 536.821 340.349C543.853 367.871 560.688 450.47 560.688 450.47H515.825C515.825 450.47 502.185 371.85 496.215 345.632C491.102 323.164 471.516 255.76 471.516 255.76C469.449 250.563 468.521 244.983 468.794 239.397C469.066 233.812 470.533 228.349 473.096 223.378C473.096 223.378 528.572 223.354 528.572 223.378Z" fill="#37474F"/>
<path d="M559.05 441.787C551.995 441.787 554.021 441.666 546.99 441.702C543.541 441.702 520.868 441.871 517.66 442.462C517.641 442.462 517.622 442.47 517.609 442.483C517.595 442.497 517.587 442.515 517.587 442.534C517.587 442.554 517.595 442.572 517.609 442.586C517.622 442.599 517.641 442.607 517.66 442.607C520.892 443.089 543.553 442.534 547.002 442.45C554.057 442.269 552.031 442.245 559.062 441.992C559.083 441.983 559.101 441.968 559.113 441.949C559.125 441.93 559.131 441.908 559.129 441.885C559.128 441.862 559.12 441.841 559.105 441.823C559.091 441.806 559.072 441.793 559.05 441.787Z" fill="#263238"/>
<path d="M525.593 256.085C521.236 258.483 517.096 261.255 513.219 264.37C513.196 264.396 513.181 264.429 513.179 264.464C513.176 264.499 513.185 264.533 513.205 264.563C513.224 264.592 513.253 264.614 513.286 264.625C513.319 264.635 513.355 264.635 513.388 264.623C517.585 261.994 521.83 259.437 525.919 256.579C525.969 256.53 526 256.465 526.008 256.396C526.015 256.326 525.998 256.256 525.96 256.197C525.921 256.139 525.864 256.096 525.797 256.075C525.73 256.055 525.658 256.058 525.593 256.085Z" fill="#263238"/>
<path d="M522.172 225.091C522.172 224.934 521.858 224.946 521.882 225.091C522.664 230.106 523.191 235.158 523.462 240.226C523.619 242.566 523.74 255.651 519.579 255.338C518.879 255.338 518.373 254.686 518.168 253.686C517.981 252.359 517.956 251.014 518.096 249.682C518.096 246.932 518.096 244.194 517.878 241.444C517.558 236.367 516.717 231.336 515.37 226.43C515.37 226.394 515.356 226.361 515.331 226.336C515.306 226.311 515.272 226.297 515.237 226.297C515.202 226.297 515.168 226.311 515.143 226.336C515.119 226.361 515.105 226.394 515.105 226.43C516.309 233.396 516.986 240.443 517.131 247.511C517.131 250.924 516.25 256.194 519.808 256.158C523.366 256.122 524.427 247.378 524.499 245.026C524.59 238.308 523.807 231.607 522.172 225.091Z" fill="#263238"/>
<path d="M519.731 255.701C519.51 256.618 519.349 257.549 519.249 258.487C519.117 259.229 519.117 259.988 519.249 260.73C519.261 260.759 519.281 260.783 519.307 260.8C519.333 260.817 519.363 260.826 519.394 260.826C519.425 260.826 519.455 260.817 519.481 260.8C519.506 260.783 519.527 260.759 519.538 260.73C519.861 260.012 520.065 259.246 520.141 258.463C520.322 257.594 520.515 256.738 520.672 255.858C520.693 255.733 520.663 255.605 520.59 255.502C520.516 255.399 520.405 255.33 520.28 255.309C520.155 255.288 520.028 255.318 519.925 255.391C519.822 255.465 519.752 255.576 519.731 255.701Z" fill="#263238"/>
<path d="M477.922 255.47C481.786 255.255 485.606 254.533 489.282 253.323C493.457 251.989 497.241 249.654 500.305 246.521C502.04 244.8 503.471 242.798 504.538 240.6C504.538 240.515 504.707 240.6 504.683 240.672C504.028 242.801 503.017 244.803 501.692 246.594C500.322 248.367 498.696 249.928 496.868 251.225C493.25 253.877 488.993 255.521 484.531 255.988C482.33 256.33 480.087 256.298 477.898 255.892C477.548 255.844 477.644 255.494 477.922 255.47Z" fill="#263238"/>
<path d="M510.577 417.062C510.468 416.025 510.323 414.988 510.179 413.951C509.901 411.973 509.564 409.983 509.25 408.005C508.647 404.013 507.96 400.033 507.248 396.065C505.849 388.142 504.221 380.243 502.508 372.379C501.531 367.941 500.41 363.551 499.216 359.113C499.144 358.8 498.709 358.956 498.758 359.246C499.481 363.274 500.181 367.29 501.001 371.306C501.821 375.322 502.641 379.278 503.413 383.27C504.981 391.157 506.44 399.08 508.008 406.968C508.442 409.199 508.852 411.43 509.286 413.661C509.503 414.771 509.72 415.892 509.962 416.99C510.203 418.087 510.54 419.185 510.721 420.294C510.721 420.403 510.902 420.355 510.89 420.294C510.721 419.221 510.709 418.184 510.577 417.062Z" fill="#263238"/>
<path d="M541.526 357.451C540.031 350.01 538.017 342.665 535.99 335.345C531.914 320.631 527.114 306.123 522.326 291.615C520.943 287.442 519.561 283.265 518.178 279.084C517.49 276.998 514.113 265.722 513.691 264.612C513.684 264.594 513.672 264.578 513.656 264.566C513.64 264.555 513.621 264.549 513.601 264.549C513.581 264.549 513.562 264.555 513.546 264.566C513.53 264.578 513.517 264.594 513.51 264.612C514.487 268.447 515.814 274.043 516.935 277.878C518.057 281.713 519.251 285.368 520.421 289.094C522.712 296.439 525.04 303.783 527.259 311.14C531.661 325.697 536.027 340.253 539.596 355.039C540.597 359.188 541.598 363.324 542.503 367.485C543.407 371.646 544.203 375.819 545.072 379.979C545.072 380.1 545.289 380.064 545.277 379.979C544.529 372.43 543.046 364.928 541.526 357.451Z" fill="#263238"/>
<path d="M513.631 396.392C511.159 382.197 508.204 368.075 504.924 354.037C501.643 339.999 497.965 325.912 493.925 312.007C489.885 298.102 485.41 284.269 480.659 270.641C478.239 264.211 476.205 257.643 474.568 250.971C473.085 244.338 472.337 237.162 473.881 230.468C474.257 228.77 474.77 227.104 475.412 225.488C475.412 225.379 475.292 225.283 475.244 225.391C469.853 237.97 473.35 251.718 477.463 264.116C479.706 270.906 482.106 277.648 484.337 284.45C486.568 291.251 488.787 298.439 490.886 305.482C495.022 319.436 498.869 333.474 502.307 347.608C505.744 361.743 508.819 375.974 511.52 390.277C514.222 404.581 516.501 419.041 518.817 433.453C519.118 435.334 519.348 437.215 519.601 439.097C519.601 439.205 519.77 439.205 519.758 439.097C517.973 424.805 516.091 410.574 513.631 396.392Z" fill="#263238"/>
<path d="M512.712 163.816C517.995 183.112 533.215 206.389 540.451 209.645C546.746 212.443 575.956 201.637 586.979 194.618C590.114 192.616 577.15 174.562 573.375 175.816C561.037 179.929 547.614 186.007 546.577 185.657C544.479 184.946 531.382 168.882 521.842 158.076C511.145 145.931 510.614 156.134 512.712 163.816Z" fill="#C95F50"/>
<path d="M607.812 178.247C610.296 177.21 629.411 176.607 629.411 172.458C629.411 168.31 605.074 169.467 605.074 169.467L607.812 178.247Z" fill="#C95F50"/>
<path d="M571.144 178.733C574.484 174.585 577.427 170.11 580.333 169.29C582.335 168.723 603.983 169.652 607.36 169.447C610.737 169.242 622.809 169.556 623.038 172.522C623.436 176.707 609.157 176.671 607.638 178.818C602.367 186.211 582.311 197.149 582.311 197.149L571.144 178.733Z" fill="#C95F50"/>
<path d="M623.414 172.58C623.192 171.81 622.7 171.146 622.027 170.711C620.446 169.846 618.667 169.409 616.865 169.444C614.226 169.207 611.572 169.187 608.929 169.384C608.929 169.384 608.929 169.468 608.929 169.48C610.919 169.48 612.885 169.48 614.863 169.698C616.677 169.765 618.478 170.04 620.23 170.518C621.016 170.72 621.73 171.138 622.292 171.724C622.486 171.944 622.62 172.211 622.681 172.498C622.743 172.785 622.729 173.083 622.642 173.364C622.075 175.185 618.469 175.776 616.805 176.101C614.634 176.584 612.379 177.006 610.196 177.452C610.099 177.452 610.196 177.621 610.196 177.597C612.463 177.151 614.851 176.982 617.13 176.572C619.033 176.386 620.859 175.722 622.437 174.642C622.78 174.428 623.055 174.12 623.228 173.754C623.401 173.389 623.466 172.981 623.414 172.58Z" fill="#263238"/>
<path d="M570.312 176.175L587.437 201.248C587.437 201.248 560.905 214.514 550.75 214.309C541.102 214.08 537.592 212.657 534.541 209.774C532.648 207.989 521.902 192.806 513.135 167.564C505.778 146.41 516.668 149.474 526.401 161.244C531.225 167.081 546.71 184.484 547.482 184.424C548.254 184.364 570.312 176.175 570.312 176.175Z" fill="#3E8A23"/>
<path d="M565.044 180.254C567.612 183.968 570.073 187.755 572.497 191.566C573.703 193.423 578.141 201.021 579.431 203.18C579.431 203.264 579.25 203.409 579.19 203.325C577.851 201.419 573.015 193.833 571.845 191.952C569.433 188.105 567.154 184.246 564.935 180.326C564.93 180.319 564.927 180.311 564.925 180.303C564.924 180.294 564.924 180.286 564.925 180.277C564.927 180.269 564.93 180.261 564.935 180.254C564.94 180.247 564.946 180.24 564.953 180.236C564.96 180.231 564.968 180.228 564.977 180.226C564.985 180.224 564.994 180.224 565.002 180.226C565.01 180.228 565.018 180.231 565.026 180.236C565.033 180.241 565.039 180.247 565.044 180.254Z" fill="#263238"/>
<path opacity="0.1" d="M555.89 213.671C554.208 214.085 552.484 214.299 550.752 214.31C541.104 214.081 537.595 212.658 534.543 209.776C532.662 207.991 521.904 192.819 513.149 167.565C511.773 164.069 510.959 160.377 510.737 156.627C510.737 156.398 510.737 156.156 510.737 155.939C510.724 155.726 510.724 155.513 510.737 155.3C510.756 155.126 510.784 154.953 510.821 154.782C510.944 153.994 511.316 153.267 511.882 152.707C517.876 160.739 545.976 198.692 555.89 213.671Z" fill="black"/>
<path d="M618.757 165.888H553.826V169.373H618.757V165.888Z" fill="#C7C7C7"/>
<path d="M618.758 165.888V169.373H579.322L581.987 165.888H618.758Z" fill="#A6A6A6"/>
<path d="M584.857 169.373H628.285L650.886 130.998H607.457L584.857 169.373Z" fill="#C7C7C7"/>
<path d="M616.25 150.16C615.442 151.932 616.033 153.778 617.576 154.332C618.44 154.532 619.347 154.414 620.131 154C620.915 153.586 621.524 152.903 621.846 152.077C622.654 150.304 622.063 148.459 620.519 147.904C619.655 147.707 618.749 147.826 617.966 148.24C617.183 148.654 616.574 149.335 616.25 150.16Z" fill="white"/>
<path d="M468.911 236.595C469.068 236.764 536.894 236.282 537.509 235.582C538.353 234.593 522.289 161.268 515.234 152.259C513.727 150.329 508.806 149.847 504.633 150.402C503.546 150.537 502.472 150.767 501.425 151.089H501.317C500.47 151.354 499.674 151.762 498.965 152.295C487.448 161.69 478.004 194.204 475.822 203.961C472.204 220.049 468.344 235.956 468.911 236.595Z" fill="#EBEBEB"/>
<path d="M500.594 151.26C500.594 151.26 505.021 181.41 506.07 189.274C507.119 197.137 506.07 238.419 506.07 238.419L463.51 242.037C463.51 242.037 472.434 214.588 472.518 212.851C472.518 212.851 479.574 179.867 486.858 166.251C490.112 160.184 494.834 155.03 500.594 151.26Z" fill="#3E8A23"/>
<path d="M514.766 151.787C514.766 151.787 520.518 182.323 521.025 184.844C521.531 187.364 528.9 236.992 528.9 236.992L539.549 237.221L533.773 214.548C533.773 214.548 521.411 156.478 514.766 151.787Z" fill="#3E8A23"/>
<path d="M512.366 161.547C509.133 161.921 503.007 157.423 501.294 152.659C501.186 152.321 502.151 149.222 503.14 145.423C503.731 143.095 504.346 140.502 504.719 138.09C504.792 137.596 519.264 144.121 519.264 144.121C517.921 146.996 516.937 150.026 516.333 153.142C516.304 153.479 516.304 153.818 516.333 154.155V154.323C516.285 156.265 515.839 161.161 512.366 161.547Z" fill="#C95F50"/>
<path d="M516.283 154.177C516.289 154.233 516.289 154.29 516.283 154.346C515.761 154.327 515.241 154.27 514.727 154.177C505.863 152.573 505.272 141.055 505.26 138.161C507.889 138.969 519.274 144.191 519.274 144.191C517.932 147.071 516.948 150.105 516.343 153.224C516.302 153.54 516.282 153.858 516.283 154.177Z" fill="#263238"/>
<path d="M504.886 118.853C502.558 124.039 503.45 139.958 506.839 143.902C511.76 149.63 520.793 151.258 525.906 145.108C530.863 139.162 529.344 118.431 525.46 114.74C519.744 109.313 508.311 111.207 504.886 118.853Z" fill="#C95F50"/>
<path d="M516.609 130.126C516.609 130.126 516.524 130.126 516.536 130.222C516.621 131.296 516.536 132.526 515.596 132.936C515.596 132.936 515.596 133.008 515.596 132.996C516.777 132.767 516.862 131.151 516.609 130.126Z" fill="#263238"/>
<path d="M515.593 129.057C513.869 129.057 513.905 132.482 515.509 132.519C517.113 132.555 517.041 129.094 515.593 129.057Z" fill="#263238"/>
<path d="M523.219 130.067C523.219 130.067 523.304 130.128 523.304 130.164C523.304 131.237 523.437 132.479 524.413 132.817C524.413 132.817 524.413 132.889 524.413 132.877C523.219 132.733 523.027 131.153 523.219 130.067Z" fill="#263238"/>
<path d="M524.158 128.947C525.883 128.791 526.064 132.252 524.46 132.397C522.856 132.541 522.711 129.068 524.158 128.947Z" fill="#263238"/>
<path d="M514.209 127.536C514.679 127.403 515.089 127.21 515.547 127.042C516.043 126.938 516.489 126.67 516.814 126.282C516.892 126.142 516.923 125.98 516.901 125.821C516.879 125.662 516.806 125.515 516.693 125.401C516.428 125.212 516.118 125.096 515.793 125.067C515.469 125.037 515.143 125.094 514.848 125.233C514.208 125.43 513.666 125.861 513.328 126.439C513.266 126.571 513.242 126.719 513.26 126.864C513.277 127.01 513.335 127.147 513.427 127.261C513.518 127.376 513.64 127.462 513.778 127.511C513.917 127.559 514.066 127.568 514.209 127.536Z" fill="#263238"/>
<path d="M525.483 126.028C525.015 125.94 524.552 125.827 524.096 125.691C523.595 125.635 523.126 125.419 522.757 125.076C522.658 124.945 522.605 124.787 522.605 124.623C522.605 124.46 522.658 124.301 522.757 124.171C523.001 123.957 523.296 123.811 523.613 123.748C523.931 123.684 524.259 123.705 524.566 123.809C525.217 123.931 525.801 124.287 526.206 124.81C526.289 124.933 526.335 125.077 526.34 125.226C526.344 125.374 526.306 125.521 526.23 125.648C526.154 125.776 526.044 125.879 525.912 125.946C525.779 126.014 525.631 126.042 525.483 126.028Z" fill="#263238"/>
<path d="M516.258 140.054C516.511 140.307 516.776 140.645 517.162 140.681C517.581 140.675 517.993 140.576 518.368 140.392C518.368 140.392 518.429 140.392 518.368 140.452C518.215 140.663 518.007 140.83 517.768 140.934C517.528 141.038 517.265 141.075 517.006 141.043C516.787 140.991 516.589 140.874 516.436 140.709C516.284 140.544 516.184 140.337 516.149 140.114C516.137 140.042 516.21 140.018 516.258 140.054Z" fill="#263238"/>
<path d="M517.346 136.834C517.617 137.251 517.971 137.607 518.386 137.881C518.801 138.155 519.268 138.341 519.758 138.426C520.193 138.492 520.636 138.492 521.072 138.426C521.156 138.439 521.241 138.439 521.325 138.426H521.554C521.612 138.416 521.665 138.386 521.704 138.342C521.743 138.299 521.767 138.243 521.772 138.185C521.777 138.149 521.777 138.112 521.772 138.076V137.98C521.772 137.148 521.687 135.893 521.687 135.893C521.989 136.038 523.544 136.714 523.508 136.279C523.366 132.554 522.849 128.853 521.965 125.232C521.965 125.207 521.954 125.182 521.936 125.164C521.918 125.146 521.894 125.136 521.868 125.136C521.842 125.136 521.818 125.146 521.8 125.164C521.782 125.182 521.772 125.207 521.772 125.232C521.88 128.669 522.592 132.07 522.76 135.532C522.208 135.283 521.623 135.112 521.024 135.025C520.903 135.025 521.253 137.437 521.217 137.823C520.541 137.901 519.856 137.842 519.203 137.649C518.55 137.456 517.943 137.134 517.418 136.701C517.37 136.677 517.285 136.75 517.346 136.834Z" fill="#263238"/>
<path d="M520.625 138.065C520.177 138.655 519.588 139.124 518.912 139.427C518.528 139.579 518.107 139.609 517.706 139.512C516.85 139.295 516.826 138.511 516.97 137.836C517.053 137.476 517.179 137.128 517.344 136.798C518.275 137.559 519.424 138.003 520.625 138.065Z" fill="#263238"/>
<path d="M518.925 139.428C518.542 139.58 518.12 139.609 517.719 139.513C516.863 139.296 516.839 138.512 516.984 137.836C517.439 137.847 517.877 138.009 518.229 138.298C518.581 138.586 518.826 138.984 518.925 139.428Z" fill="#FF9BBC"/>
<path d="M503.559 132.613C503.559 132.613 499.711 123.061 501.026 118.141C501.617 115.91 504.958 114.885 504.958 114.885C504.868 113.925 505.045 112.96 505.471 112.095C505.897 111.231 506.554 110.501 507.37 109.988C510.469 107.89 516.885 109.518 516.885 109.518C516.885 109.518 522.095 104.115 527.667 107.504C533.239 110.893 528.246 117.019 528.246 117.019C528.246 117.019 529.934 120.481 524.181 122.036C518.429 123.592 508.334 119.492 508.334 119.492C508.228 123.235 507.566 126.942 506.369 130.49C506.137 131.066 505.754 131.568 505.259 131.942C504.763 132.316 504.176 132.548 503.559 132.613Z" fill="#263238"/>
<path d="M517.951 109.748C516.704 108.993 515.318 108.496 513.875 108.289C512.593 108.078 511.285 108.078 510.003 108.289C508.859 108.424 507.773 108.866 506.86 109.569C505.946 110.272 505.241 111.209 504.817 112.28C504.635 112.844 504.568 113.439 504.619 114.03C504.671 114.62 504.841 115.194 505.119 115.718C505.119 115.718 505.203 115.718 505.179 115.718C504.082 113.776 505.179 111.243 506.892 110.049C508.887 108.818 511.262 108.355 513.573 108.747C515.056 108.972 516.506 109.377 517.891 109.953C517.904 109.957 517.918 109.958 517.932 109.957C517.946 109.955 517.96 109.951 517.972 109.944C517.984 109.937 517.995 109.928 518.004 109.917C518.013 109.907 518.019 109.894 518.023 109.881C518.027 109.867 518.028 109.853 518.027 109.839C518.025 109.825 518.021 109.812 518.015 109.799C518.008 109.787 517.999 109.776 517.988 109.767C517.977 109.758 517.964 109.752 517.951 109.748Z" fill="#263238"/>
<path d="M531.505 111.05C531.361 110.213 531.011 109.426 530.486 108.758C529.962 108.091 529.28 107.565 528.502 107.227C526.744 106.353 524.742 106.098 522.821 106.503C520.89 106.915 519.104 107.835 517.647 109.168C517.647 109.168 517.647 109.253 517.647 109.168C518.954 107.997 520.551 107.199 522.273 106.86C523.994 106.52 525.775 106.651 527.428 107.239C528.198 107.446 528.905 107.84 529.485 108.387C530.065 108.934 530.5 109.616 530.752 110.372C531.004 111.128 531.065 111.935 530.929 112.72C530.793 113.506 530.465 114.245 529.973 114.873C528.818 116.344 527.271 117.46 525.511 118.093C525.511 118.093 525.511 118.177 525.511 118.153C527.159 117.654 528.656 116.75 529.864 115.524C530.44 114.937 530.883 114.235 531.166 113.463C531.449 112.692 531.564 111.869 531.505 111.05Z" fill="#263238"/>
<path d="M507.204 132.204C507.204 132.204 504.213 126.789 501.789 127.814C499.365 128.839 501.246 136.413 503.827 137.703C504.147 137.889 504.502 138.009 504.87 138.055C505.238 138.102 505.612 138.073 505.969 137.972C506.326 137.871 506.658 137.699 506.947 137.466C507.236 137.233 507.475 136.945 507.65 136.618L507.204 132.204Z" fill="#C95F50"/>
<path d="M502.379 129.947C502.379 129.947 502.379 129.947 502.379 130.019C503.198 130.539 503.899 131.225 504.435 132.033C504.971 132.842 505.331 133.754 505.49 134.711C505.4 134.512 505.268 134.335 505.104 134.191C504.939 134.048 504.745 133.942 504.536 133.88C504.326 133.818 504.106 133.802 503.89 133.833C503.674 133.864 503.467 133.941 503.283 134.06C503.283 134.06 503.283 134.18 503.283 134.168C503.627 134.097 503.984 134.135 504.306 134.275C504.628 134.415 504.898 134.652 505.08 134.952C505.37 135.459 505.612 135.992 505.804 136.544C505.876 136.725 506.19 136.665 506.141 136.46C506.443 134.047 504.935 130.49 502.379 129.947Z" fill="#263238"/>
<path d="M492.042 158.206C474.965 177.382 462.121 204.384 462.242 210.752C462.411 217.747 471.311 242.386 479.789 253.963C480.887 255.447 487.496 254.82 493.055 251.744C498.953 248.5 503.789 242.711 502.631 240.987C498.277 234.51 487.966 209.425 488.062 205.506C488.147 201.888 496.601 179.673 499.821 166.829C502.969 154.467 499.99 149.245 492.042 158.206Z" fill="#C95F50"/>
<path d="M469.478 252.043L501.28 236.509C501.28 236.509 488.774 208.602 488.774 205.587C488.774 202.572 496.999 178.982 500.098 168.08C503.198 157.178 502.004 144.925 488.424 161.411C474.844 177.897 462.977 202.415 461.626 208.928C460.276 215.44 469.478 252.043 469.478 252.043Z" fill="#3E8A23"/>
<path d="M490.367 197.582C491.018 195.515 491.693 193.453 492.393 191.395C493.177 189.091 493.985 186.8 494.805 184.521C495.625 182.241 496.554 180.119 497.446 177.924C497.446 177.767 497.784 177.924 497.735 178.032C496.674 180.963 495.685 183.93 494.696 186.896C495.444 185.546 496.192 184.207 496.988 182.88C497.004 182.865 497.025 182.855 497.047 182.852C497.07 182.85 497.093 182.854 497.112 182.864C497.132 182.875 497.148 182.892 497.158 182.912C497.169 182.932 497.172 182.955 497.169 182.977C496.276 184.617 495.335 186.221 494.383 187.801C494.154 188.513 493.912 189.236 493.671 189.948C492.332 193.928 491.054 197.931 489.908 202.008C489.624 202.91 489.434 203.84 489.342 204.782C489.293 205.855 489.453 206.928 489.812 207.941C490.391 209.811 491.018 211.656 491.693 213.489C493.02 217.192 494.467 220.834 495.975 224.452C497.699 228.576 499.665 232.641 501.619 236.657C501.619 236.657 500.413 236.97 500.413 236.994C500.413 237.018 500.316 236.994 500.34 236.934C500.365 236.874 501.088 236.536 501.112 236.536C499.122 233.063 497.229 229.65 495.553 225.995C493.876 222.341 492.417 218.759 491.078 214.972C490.391 213.043 489.727 211.113 489.124 209.159C488.44 207.348 488.253 205.387 488.582 203.479C489.028 201.477 489.752 199.523 490.367 197.582Z" fill="#263238"/>
<path d="M468.935 243.084C470.062 242.475 471.222 241.927 472.409 241.444C473.446 240.962 474.471 240.467 475.52 239.997C477.788 238.972 480.055 237.935 482.334 236.922C484.614 235.909 486.881 234.884 489.16 233.895C491.44 232.906 493.683 231.844 495.998 230.988C496.083 230.988 496.143 231.085 496.071 231.133C493.96 232.435 491.705 233.545 489.486 234.618C487.267 235.692 485.084 236.729 482.853 237.73C480.622 238.731 478.282 239.708 475.979 240.636C474.869 241.082 473.747 241.492 472.614 241.915C471.437 242.423 470.229 242.854 468.996 243.205C468.981 243.206 468.967 243.203 468.954 243.196C468.941 243.189 468.931 243.178 468.924 243.165C468.918 243.152 468.915 243.138 468.917 243.123C468.919 243.109 468.926 243.095 468.935 243.084Z" fill="#263238"/>
</svg>
