<svg width="300" height="300" viewBox="0 0 300 300" fill="none" xmlns="http://www.w3.org/2000/svg">
<path fill-rule="evenodd" clip-rule="evenodd" d="M33.8378 16.1614L16.1601 33.839L66.9705 84.6494C62.2374 88.572 57.5534 92.7845 52.9209 97.2643C42.5557 107.288 33.1784 117.989 24.9234 128.695C19.9421 135.155 16.4055 140.237 14.4691 143.265L10.1616 150L14.4691 156.735C16.4055 159.762 19.9421 164.844 24.9234 171.305C33.1784 182.01 42.5557 192.712 52.9209 202.736C83.3036 232.117 115.905 250 150 250C171.511 250 192.428 242.881 212.568 230.247L266.16 283.839L283.838 266.161L33.8378 16.1614ZM194.307 211.986L175.399 193.078C167.955 197.476 159.273 200 150.001 200C122.386 200 100.001 177.614 100.001 150C100.001 140.728 102.524 132.045 106.923 124.602L84.7455 102.424C79.9033 106.329 75.0841 110.609 70.3001 115.236C60.8725 124.352 52.2794 134.159 44.7214 143.961C43.089 146.078 41.5807 148.098 40.2016 150C41.5807 151.902 43.089 153.922 44.7214 156.039C52.2794 165.841 60.8725 175.647 70.3001 184.764C96.4682 210.07 123.686 225 150 225C164.601 225 179.482 220.402 194.307 211.986ZM125.847 143.526C125.295 145.591 125.001 147.761 125.001 150C125.001 163.807 136.193 175 150.001 175C152.24 175 154.41 174.706 156.475 174.154L125.847 143.526ZM251.226 198.637L233.548 180.959C241.475 172.946 248.762 164.491 255.278 156.039C256.911 153.922 258.419 151.902 259.798 150C258.419 148.098 256.911 146.078 255.278 143.961C247.72 134.159 239.127 124.353 229.7 115.236C203.532 89.9297 176.314 75 150 75C143.471 75 136.887 75.9191 130.277 77.6877L110.502 57.9131C123.408 52.7672 136.588 50 150 50C184.095 50 216.696 67.8828 247.079 97.2644C257.444 107.288 266.821 117.989 275.076 128.695C280.058 135.156 283.594 140.237 285.531 143.265L289.838 150L285.531 156.735C283.594 159.763 280.058 164.844 275.076 171.305C267.937 180.564 259.958 189.82 251.226 198.637Z" fill="#A6A6A6"/>
</svg>
