<svg width="300" height="300" viewBox="0 0 300 300" fill="none" xmlns="http://www.w3.org/2000/svg">
<path fill-rule="evenodd" clip-rule="evenodd" d="M62.5 12.5H192.678L262.5 82.3223V262.5C262.5 276.307 251.307 287.5 237.5 287.5H62.5C48.6929 287.5 37.5 276.307 37.5 262.5V37.5C37.5 23.6929 48.6929 12.5 62.5 12.5ZM162.501 37.5H62.4992V262.5H237.499V112.5H187.501C173.694 112.5 162.501 101.307 162.501 87.5V37.5ZM187.501 42.6793V87.5H232.322L187.501 42.6793ZM99.9992 212.5V187.5H174.999V212.5H99.9992ZM99.9992 137.5V162.5H199.999V137.5H99.9992Z" fill="black"/>
</svg>
