<svg width="295" height="300" viewBox="0 0 295 300" fill="none" xmlns="http://www.w3.org/2000/svg">
<path d="M139.115 1.07848e-06C165.409 -0.00327211 191.166 7.4441 213.4 21.4792C235.635 35.5142 253.438 55.5624 264.746 79.3006C276.053 103.039 280.403 129.495 277.291 155.604C274.179 181.713 263.733 206.406 247.162 226.821L290.546 275.395C293.128 277.96 294.643 281.408 294.785 285.045C294.927 288.682 293.686 292.237 291.312 294.996C288.937 297.754 285.606 299.511 281.989 299.912C278.372 300.313 274.737 299.329 271.816 297.158L270.204 295.757L226.8 247.183C209.507 261.214 189.098 270.889 167.289 275.395C145.479 279.901 122.907 279.106 101.469 273.078C80.0311 267.049 60.3534 255.962 44.0897 240.749C27.826 225.536 15.4515 206.642 8.00619 185.653C0.560893 164.665 -1.73769 142.196 1.30361 120.135C4.34492 98.0741 12.6372 77.0654 25.4837 58.8745C38.3302 40.6836 55.3555 25.8421 75.1287 15.5972C94.902 5.35232 116.846 0.00341738 139.115 1.07848e-06ZM139.115 28.7869C124.624 28.7869 110.274 31.6412 96.8863 37.1868C83.498 42.7323 71.3332 50.8606 61.0862 61.1076C50.8393 71.3545 42.711 83.5193 37.1654 96.9076C31.6198 110.296 28.7656 124.645 28.7656 139.137C28.7656 153.628 31.6198 167.977 37.1654 181.366C42.711 194.754 50.8393 206.919 61.0862 217.166C71.3332 227.413 83.498 235.541 96.8863 241.086C110.274 246.632 124.624 249.486 139.115 249.486C168.382 249.486 196.45 237.86 217.144 217.166C237.839 196.471 249.465 168.403 249.465 139.137C249.465 109.87 237.839 81.8022 217.144 61.1076C196.45 40.413 168.382 28.7869 139.115 28.7869Z" fill="#C5C5C5"/>
</svg>
