<svg width="300" height="300" viewBox="0 0 300 300" fill="none" xmlns="http://www.w3.org/2000/svg">
<path fill-rule="evenodd" clip-rule="evenodd" d="M50 25H250C263.807 25 275 36.1929 275 50V250C275 263.807 263.807 275 250 275H50C36.1929 275 25 263.807 25 250V50C25 36.1929 36.1929 25 50 25ZM50 50V194.823L100.001 144.822L143.751 188.572L225.001 107.322L250 132.322V50H50ZM50 250V230.178L100.001 180.178L169.823 250H50ZM250 250H205.178L161.428 206.25L225.001 142.678L250 167.677V250ZM175 100C175 79.2893 158.211 62.5 137.5 62.5C116.789 62.5 100 79.2893 100 100C100 120.711 116.789 137.5 137.5 137.5C158.211 137.5 175 120.711 175 100ZM125 100C125 93.0964 130.596 87.5 137.5 87.5C144.404 87.5 150 93.0964 150 100C150 106.904 144.404 112.5 137.5 112.5C130.596 112.5 125 106.904 125 100Z" fill="black"/>
</svg>
