<svg width="500" height="234" viewBox="0 0 500 234" fill="none" xmlns="http://www.w3.org/2000/svg">
<path d="M251.77 62.3647H260.855V143.706H250.204V107.75H213.502V143.706H202.75V62.3647H213.502V97.2046H250.204V62.3647H251.77ZM326.913 101.288C328.393 104.977 329.139 108.947 329.139 113.193C329.139 117.557 328.334 121.646 326.725 125.454C325.118 129.255 322.72 132.75 319.536 135.934C316.382 139.087 312.888 141.444 309.076 142.972C305.292 144.487 301.203 145.179 296.831 145.021C292.607 144.912 288.67 144.05 285.052 142.438C281.441 140.831 278.156 138.481 275.229 135.397C272.291 132.3 270.099 128.906 268.643 125.221C267.187 121.525 266.463 117.55 266.463 113.295C266.463 108.877 267.265 104.743 268.856 100.918C270.446 97.0921 272.823 93.593 275.965 90.4515C279.122 87.2507 282.602 84.8729 286.394 83.3345C290.185 81.7982 294.283 81.1026 298.671 81.2634C302.918 81.4242 306.878 82.3221 310.516 83.977C314.099 85.6087 317.36 87.9736 320.272 91.0905C323.209 94.1891 325.431 97.5875 326.913 101.288ZM278.737 120.804C279.654 123.262 281.072 125.56 283.004 127.681C284.951 129.817 287.075 131.426 289.393 132.514C291.712 133.603 294.256 134.191 297.038 134.284H297.062C300.037 134.424 302.766 134.005 305.26 132.998C307.756 131.991 310.037 130.392 312.109 128.178L312.121 128.159C314.262 125.924 315.831 123.527 316.846 120.952C317.862 118.38 318.337 115.611 318.292 112.632C318.197 109.785 317.627 107.149 316.598 104.726C315.567 102.299 314.068 100.065 312.115 98.0174C310.183 95.9905 308.065 94.4834 305.757 93.4887C303.457 92.4974 300.942 92.0048 298.208 92.0048L298.183 91.9994C295.309 91.9544 292.669 92.4477 290.246 93.4581C287.827 94.4671 285.606 96.0061 283.564 98.0466C281.525 100.085 280.009 102.307 278.998 104.726C277.982 107.162 277.46 109.818 277.413 112.71C277.365 115.588 277.799 118.292 278.737 120.804ZM418.605 97.1855C419.722 100.285 420.288 103.735 420.288 107.505V143.706H409.13V106.59C409.13 104.527 408.83 102.617 408.245 100.875C407.657 99.1279 406.776 97.5275 405.617 96.0913C404.498 94.7035 403.183 93.6529 401.701 92.9573C400.215 92.2596 398.53 91.9047 396.672 91.9047C394.724 91.9047 392.924 92.2263 391.266 92.8544C389.607 93.4826 388.061 94.4316 386.623 95.6832C385.276 96.8993 384.266 98.2667 383.598 99.7799C382.927 101.301 382.59 102.998 382.59 104.863V143.706H371.329V104.863C371.329 102.995 370.994 101.3 370.314 99.786C369.637 98.2749 368.597 96.9061 367.193 95.6832L367.174 95.6655C365.785 94.4146 364.261 93.4696 362.611 92.8428C360.975 92.2215 359.184 91.9047 357.246 91.9047C355.404 91.9047 353.751 92.2556 352.293 92.9478C350.826 93.6434 349.527 94.6967 348.404 96.0913C347.256 97.5152 346.402 99.0795 345.84 100.8C345.273 102.541 344.993 104.465 344.993 106.59V143.706H333.833V107.505C333.833 103.708 334.378 100.24 335.479 97.1344C336.581 94.0283 338.24 91.2908 340.466 88.9574C342.531 86.7349 344.927 84.9956 347.65 83.7426C350.358 82.4945 353.382 81.7355 356.711 81.4664C361.214 81.0869 365.277 81.8806 368.896 83.8162C371.922 85.4357 374.611 87.8489 376.959 91.034C379.307 87.8489 381.996 85.4357 385.022 83.8162C388.641 81.8806 392.706 81.0869 397.207 81.4664C400.531 81.7362 403.553 82.4959 406.277 83.7406C409.015 84.9922 411.437 86.7336 413.554 88.9574C415.785 91.2963 417.475 94.0508 418.605 97.1855ZM468.642 131.272C471.655 129.315 474.087 126.377 475.941 122.481L476.368 121.582H487.779L487.066 123.654C485.947 126.902 484.418 129.845 482.479 132.463C480.554 135.066 478.228 137.336 475.51 139.253C472.796 141.169 469.937 142.611 466.926 143.587C463.927 144.561 460.775 145.07 457.463 145.123C453.284 145.176 449.343 144.452 445.642 142.938C441.952 141.427 438.509 139.135 435.321 136.055L435.309 136.043C432.118 132.907 429.692 129.494 428.05 125.783C426.408 122.07 425.551 118.063 425.495 113.737C425.389 109.199 426.141 104.945 427.753 101.007C429.36 97.0792 431.813 93.4792 435.105 90.2409C438.458 86.9441 442.09 84.5166 446.021 82.9796C449.967 81.4385 454.198 80.7933 458.742 81.0597H458.755C462.816 81.3274 466.615 82.2915 470.145 83.962C473.669 85.6299 476.923 88.0008 479.902 91.0844C482.779 94.1189 484.94 97.351 486.386 100.779C487.844 104.232 488.573 107.864 488.573 111.669V117.398H436.779C437.149 119.457 437.787 121.377 438.695 123.142C439.832 125.354 441.404 127.341 443.415 129.071C445.467 130.83 447.67 132.16 450.037 133.031C452.415 133.905 454.974 134.331 457.717 134.284H457.73C461.994 134.238 465.63 133.229 468.642 131.272ZM439.102 102.053C438.193 103.613 437.483 105.316 436.963 107.158H477.392C476.875 105.369 476.174 103.713 475.291 102.194C474.114 100.169 472.6 98.373 470.756 96.8128C468.915 95.2574 466.888 94.0767 464.678 93.2782C462.454 92.4736 460.031 92.0464 457.413 91.9994C454.832 91.9531 452.408 92.3257 450.151 93.0936C447.863 93.8709 445.739 95.0605 443.784 96.6343C441.855 98.1863 440.3 99.9986 439.102 102.053ZM243.486 161.162H227.27V232.06H216.313V161.162H198.633V150.718H245.052V161.162H243.486ZM290.458 219.626C293.472 217.669 295.903 214.732 297.757 210.835L298.184 209.935H309.596L308.881 212.008C307.764 215.256 306.234 218.199 304.296 220.817C302.37 223.42 300.045 225.69 297.326 227.608C294.613 229.523 291.753 230.965 288.742 231.941C285.743 232.914 282.591 233.423 279.279 233.476C275.1 233.53 271.159 232.805 267.458 231.292C263.768 229.78 260.325 227.489 257.137 224.408L257.125 224.397C253.934 221.261 251.508 217.847 249.867 214.136C248.224 210.424 247.367 206.417 247.311 202.091C247.205 197.553 247.958 193.299 249.57 189.361C251.177 185.433 253.629 181.833 256.921 178.595C260.274 175.298 263.907 172.87 267.837 171.333C271.782 169.792 276.015 169.148 280.558 169.413H280.571C284.632 169.681 288.431 170.645 291.961 172.316C295.484 173.984 298.739 176.354 301.718 179.439C304.595 182.473 306.756 185.705 308.203 189.133C309.66 192.585 310.39 196.217 310.39 200.023V205.752H258.595C258.965 207.811 259.603 209.731 260.511 211.496C261.649 213.708 263.22 215.694 265.231 217.424C267.283 219.184 269.487 220.514 271.854 221.385C274.231 222.259 276.79 222.685 279.533 222.638H279.546C283.811 222.591 287.446 221.582 290.458 219.626ZM260.918 190.407C260.009 191.967 259.299 193.67 258.78 195.512H299.208C298.69 193.722 297.99 192.067 297.107 190.548C295.929 188.523 294.416 186.727 292.572 185.167C290.732 183.611 288.705 182.43 286.495 181.632C284.271 180.827 281.847 180.4 279.229 180.353C276.648 180.307 274.224 180.679 271.967 181.447C269.68 182.225 267.555 183.415 265.6 184.988C263.671 186.54 262.116 188.352 260.918 190.407ZM376.74 201.445C376.829 211.635 376.744 221.865 376.744 232.06H366.092V225.311C363.526 227.69 360.753 229.547 357.777 230.877C353.697 232.702 349.249 233.534 344.441 233.375C340.212 233.215 336.305 232.331 332.721 230.713C329.131 229.094 325.87 226.742 322.934 223.649C319.996 220.551 317.775 217.152 316.292 213.452C314.812 209.763 314.066 205.792 314.066 201.546C314.066 197.13 314.868 192.995 316.46 189.17C318.05 185.344 320.427 181.844 323.569 178.704C326.718 175.51 330.198 173.159 334.007 171.643C337.818 170.129 341.944 169.458 346.375 169.617C350.64 169.777 354.596 170.66 358.233 172.292C361.879 173.926 365.197 176.302 368.18 179.444C371.168 182.54 373.388 185.944 374.823 189.637C376.249 193.306 376.89 197.249 376.74 201.445ZM337.843 181.749C335.429 182.744 333.208 184.259 331.167 186.3C329.128 188.339 327.612 190.56 326.601 192.978C325.584 195.414 325.063 198.07 325.015 200.963C324.968 203.84 325.401 206.544 326.339 209.055C327.257 211.514 328.674 213.812 330.607 215.934C332.532 218.045 334.661 219.645 336.983 220.75C339.344 221.872 341.913 222.496 344.671 222.638C347.634 222.777 350.361 222.331 352.858 221.314C355.352 220.301 357.636 218.696 359.718 216.519C361.862 214.279 363.432 211.859 364.449 209.255C365.467 206.651 365.942 203.851 365.894 200.86C365.848 198.027 365.3 195.4 364.282 192.974C363.263 190.543 361.767 188.311 359.819 186.27C357.897 184.256 355.767 182.753 353.447 181.757C351.111 180.755 348.561 180.258 345.81 180.258C342.911 180.258 340.261 180.753 337.843 181.749ZM434.621 211.865H445.757V150.718H456.712V176.681C458.316 175.121 460.055 173.837 461.928 172.829C464.969 171.19 468.351 170.287 472.049 170.125C475.87 169.965 479.405 170.507 482.682 171.765C485.963 173.026 488.964 174.995 491.705 177.68C494.451 180.372 496.527 183.393 497.916 186.729C499.301 190.056 500 193.679 500 197.585V232.06H489.146V196.772C489.146 194.549 488.732 192.492 487.916 190.598C487.095 188.691 485.859 186.922 484.219 185.284C482.591 183.656 480.813 182.45 478.911 181.669C476.997 180.882 474.936 180.51 472.757 180.556C470.496 180.602 468.405 181.005 466.498 181.77C464.633 182.518 462.934 183.624 461.418 185.094L461.399 185.111C459.894 186.526 458.773 188.148 458.032 189.97C457.285 191.808 456.916 193.876 456.916 196.163V232.06H445.757V212.001L443.924 215.897C440.737 221.788 436.653 226.182 431.689 229.098C426.729 232.01 420.922 233.427 414.286 233.375C409.859 233.321 405.756 232.522 401.963 230.979C398.162 229.434 394.67 227.142 391.475 224.109C388.288 221.081 385.887 217.697 384.266 213.975C382.636 210.234 381.8 206.158 381.746 201.769C381.693 197.337 382.443 193.243 384.009 189.47C385.575 185.697 387.954 182.248 391.154 179.102L391.166 179.091C394.398 175.966 397.936 173.575 401.791 171.949C405.648 170.324 409.807 169.468 414.274 169.413C417.459 169.36 420.541 169.757 423.514 170.589C426.515 171.427 429.409 172.711 432.189 174.421L432.201 174.427C434.81 176.077 437.077 177.917 438.972 179.971C440.883 182.043 442.426 184.346 443.565 186.894L445.655 191.634H433.63L433.174 190.858C431.13 187.39 428.572 184.756 425.493 182.977C422.408 181.192 418.769 180.245 414.573 180.151C411.796 180.106 409.179 180.577 406.705 181.577C404.208 182.588 401.849 184.136 399.612 186.229L399.607 186.242C397.284 188.373 395.557 190.707 394.413 193.228C393.265 195.759 392.696 198.504 392.696 201.445C392.696 204.386 393.238 207.105 394.308 209.607C395.381 212.123 396.997 214.446 399.135 216.583C401.275 218.676 403.627 220.243 406.169 221.269C408.705 222.292 411.447 222.787 414.375 222.739H414.388C418.644 222.692 422.341 221.813 425.486 220.117C428.609 218.432 431.211 215.921 433.301 212.599L433.761 211.865H434.621Z" fill="black"/>
<path fill-rule="evenodd" clip-rule="evenodd" d="M122.903 0C133.678 0 142.412 8.73161 142.412 19.5017C142.412 30.2731 133.678 39.0034 122.903 39.0034C112.127 39.0034 103.393 30.2731 103.393 19.5017C103.393 8.73161 112.127 0 122.903 0ZM127.595 58.9499C132.006 56.0789 139.124 54.7252 144.305 52.5572C157.84 46.8963 162.656 44.4436 175.089 37.0657C176.334 36.3292 181.619 32.8716 182.478 32.6304C186.823 31.4123 188.991 35.0416 186.243 38.1885C185.825 38.6668 180.051 41.9629 179.023 42.6388C162.22 53.6855 151.661 71.7421 149.101 92.6616C125.289 92.7665 127.22 90.4569 127.595 58.9499ZM165.394 133.024C167.304 126.955 162.211 124.173 159.619 112.09C157.838 103.791 157.72 95.4331 159.387 87.4728C160.954 79.9832 163.953 73.3616 167.222 67.9507C177.426 51.07 192.055 48.2848 195.317 41.591C198.452 35.1547 194.137 35.3591 199.755 32.0547L225.435 17.2663C228.342 15.6148 231.05 14.1459 234.423 12.2492C238.524 9.94365 239.599 8.73569 237.595 3.47943C232.615 1.38305 230.41 3.51894 226.454 5.88716L193.944 24.6789C188.411 26.5648 186.901 19.2591 177.44 24.5604C153.461 37.9943 149.885 42.4862 117.787 51.4808C112.712 52.9027 97.284 54.02 97.1865 59.8022C97.0413 68.3683 112.646 62.0737 118.097 61.2834C118.186 69.904 116.872 84.3756 120.269 91.0503C126.175 102.656 136.926 101.936 148.826 102.221C149.785 111.422 154.159 141.13 165.394 133.024ZM122.903 9.79785C128.263 9.79785 132.61 14.1425 132.61 19.5017C132.61 24.8601 128.263 29.2055 122.903 29.2055C117.541 29.2055 113.195 24.8601 113.195 19.5017C113.195 14.1425 117.541 9.79785 122.903 9.79785Z" fill="black"/>
<path d="M76.1694 146.072H9.91223C4.43786 146.072 0 150.508 0 155.98V222.211C0 227.683 4.43786 232.119 9.91223 232.119H76.1694C81.6437 232.119 86.0816 227.683 86.0816 222.211V155.98C86.0816 150.508 81.6437 146.072 76.1694 146.072Z" fill="#3E8A23"/>
<path d="M172.685 146.072H106.428C100.954 146.072 96.5159 150.508 96.5159 155.98V222.211C96.5159 227.683 100.954 232.119 106.428 232.119H172.685C178.16 232.119 182.598 227.683 182.598 222.211V155.98C182.598 150.508 178.16 146.072 172.685 146.072Z" fill="#C09728"/>
<path d="M76.1694 49.383H9.91223C4.43786 49.383 0 53.8191 0 59.2912V125.522C0 130.994 4.43786 135.43 9.91223 135.43H76.1694C81.6437 135.43 86.0816 130.994 86.0816 125.522V59.2912C86.0816 53.8191 81.6437 49.383 76.1694 49.383Z" fill="#D2492F"/>
</svg>
