<svg width="300" height="300" viewBox="0 0 300 300" fill="none" xmlns="http://www.w3.org/2000/svg">
<path fill-rule="evenodd" clip-rule="evenodd" d="M87.4995 87.5V125H74.9995C61.6451 125 49.9995 134.705 49.9995 147.917V252.083C49.9995 265.295 61.6451 275 74.9995 275H224.999C238.354 275 249.999 265.295 249.999 252.083V147.917C249.999 134.705 238.354 125 224.999 125H212.499V87.5C212.499 52.9822 184.517 25 149.999 25C115.482 25 87.4995 52.9822 87.4995 87.5ZM187.499 87.5V125H112.5V87.5C112.5 66.7893 129.289 50 149.999 50C170.71 50 187.499 66.7893 187.499 87.5ZM74.9999 250V150H225V250H74.9999ZM162.499 200C162.499 206.904 156.903 212.5 149.999 212.5C143.096 212.5 137.499 206.904 137.499 200C137.499 193.096 143.096 187.5 149.999 187.5C156.903 187.5 162.499 193.096 162.499 200Z" fill="#A6A6A6"/>
</svg>
