<svg width="300" height="300" viewBox="0 0 300 300" fill="none" xmlns="http://www.w3.org/2000/svg">
<path fill-rule="evenodd" clip-rule="evenodd" d="M87.4996 87.5V125H74.9996C61.6452 125 49.9996 134.705 49.9996 147.917V252.083C49.9996 265.295 61.6452 275 74.9996 275H225C238.354 275 250 265.295 250 252.083V147.917C250 134.705 238.354 125 225 125H212.5V87.5C212.5 52.9822 184.517 25 150 25C115.482 25 87.4996 52.9822 87.4996 87.5ZM187.5 87.5V125H112.5V87.5C112.5 66.7893 129.289 50 150 50C170.71 50 187.5 66.7893 187.5 87.5ZM75 250V150H225V250H75ZM162.499 200C162.499 206.904 156.903 212.5 149.999 212.5C143.096 212.5 137.499 206.904 137.499 200C137.499 193.096 143.096 187.5 149.999 187.5C156.903 187.5 162.499 193.096 162.499 200Z" fill="black"/>
</svg>
