<svg width="300" height="300" viewBox="0 0 300 300" fill="none" xmlns="http://www.w3.org/2000/svg">
<path fill-rule="evenodd" clip-rule="evenodd" d="M205.464 24.9994C213.649 24.9994 221.494 28.2671 227.224 34.0422L265.985 72.8034C271.756 78.5744 274.998 86.4015 274.998 94.5629C274.998 102.724 271.756 110.551 265.985 116.322L124.466 257.796C115.735 267.868 103.359 274.056 89.1801 275.028H24.9976V262.528L25.0382 209.841C26.103 196.66 32.2309 184.404 41.5788 176.167L183.69 34.0572C189.452 28.2598 197.289 24.9994 205.464 24.9994ZM88.2951 250.059C94.9729 249.586 101.189 246.479 106.18 240.769L200.707 146.243L153.777 99.3112L58.6966 194.369C53.6322 198.848 50.4991 205.114 49.9953 210.847V250.036L88.2951 250.059ZM171.457 81.6357L218.384 128.565L248.305 98.6441C249.388 97.5615 249.996 96.0933 249.996 94.5623C249.996 93.0313 249.388 91.5631 248.305 90.4805L209.509 51.6845C208.439 50.6056 206.982 49.9988 205.462 49.9988C203.942 49.9988 202.485 50.6056 201.415 51.6845L171.457 81.6357Z" fill="#808080"/>
</svg>
