<svg width="300" height="300" viewBox="0 0 300 300" fill="none" xmlns="http://www.w3.org/2000/svg">
<path fill-rule="evenodd" clip-rule="evenodd" d="M287.5 150C287.5 225.939 225.939 287.5 150 287.5C74.0608 287.5 12.5 225.939 12.5 150C12.5 74.0608 74.0608 12.5 150 12.5C225.939 12.5 287.5 74.0608 287.5 150ZM37.5 150C37.5 212.132 87.868 262.5 150 262.5C212.132 262.5 262.5 212.132 262.5 150C262.5 87.868 212.132 37.5 150 37.5C87.868 37.5 37.5 87.868 37.5 150ZM100 212.499V87.4988C100 77.6809 110.799 71.6953 119.125 76.8988L219.125 139.399C226.958 144.295 226.958 155.703 219.125 160.599L119.125 223.099C110.799 228.302 100 222.317 100 212.499ZM125 110.053L188.915 149.999L125 189.946V110.053Z" fill="black"/>
</svg>
