<svg width="300" height="300" viewBox="0 0 300 300" fill="none" xmlns="http://www.w3.org/2000/svg">
<path fill-rule="evenodd" clip-rule="evenodd" d="M12.4996 150C12.4996 225.939 74.0605 287.5 150 287.5C225.939 287.5 287.5 225.939 287.5 150C287.5 74.0608 225.939 12.5 150 12.5C74.0605 12.5 12.4996 74.0608 12.4996 150ZM262.5 150C262.5 212.132 212.132 262.5 150 262.5C87.868 262.5 37.5 212.132 37.5 150C37.5 87.868 87.868 37.5 150 37.5C212.132 37.5 262.5 87.868 262.5 150ZM150.003 212.479C156.909 212.479 162.507 206.883 162.507 199.979C162.507 193.076 156.909 187.479 150.003 187.479C143.098 187.479 137.499 193.076 137.499 199.979C137.499 206.883 143.098 212.479 150.003 212.479ZM137.499 175H162.499C162.499 165.021 164.067 163.192 174.339 158.055C192.192 149.129 199.999 140.021 199.999 118.75C199.999 91.5079 178.554 75 149.999 75C122.385 75 99.9992 97.3858 99.9992 125H124.999C124.999 111.193 136.192 100 149.999 100C165.964 100 174.999 106.955 174.999 118.75C174.999 128.729 173.431 130.558 163.159 135.695C145.306 144.621 137.499 153.729 137.499 175Z" fill="black"/>
</svg>
