<svg width="672" height="500" viewBox="0 0 672 500" fill="none" xmlns="http://www.w3.org/2000/svg">
<path d="M671.032 439.392H0V439.727H671.032V439.392Z" fill="#EBEBEB"/>
<path d="M603.793 460.986H559.344V461.322H603.793V460.986Z" fill="#EBEBEB"/>
<path d="M404.554 461.161H392.891V461.497H404.554V461.161Z" fill="#EBEBEB"/>
<path d="M557.991 448.531H475.534V448.866H557.991V448.531Z" fill="#EBEBEB"/>
<path d="M302.152 456.45H285.121V456.785H302.152V456.45Z" fill="#EBEBEB"/>
<path d="M273.177 456.45H223.748V456.785H273.177V456.45Z" fill="#EBEBEB"/>
<path d="M104.534 450.788H70.4055V451.123H104.534V450.788Z" fill="#EBEBEB"/>
<path d="M213.093 450.788H112.585V451.123H213.093V450.788Z" fill="#EBEBEB"/>
<path d="M318.072 379.536H58.9327C56.9027 379.532 54.9569 378.723 53.5227 377.287C52.0885 375.85 51.283 373.903 51.283 371.873V7.59609C51.3006 5.57765 52.114 3.6477 53.5463 2.22544C54.9786 0.80317 56.9142 0.00345768 58.9327 0H318.072C320.104 0 322.054 0.80737 323.491 2.2445C324.928 3.68162 325.735 5.63078 325.735 7.66319V371.873C325.735 373.905 324.928 375.854 323.491 377.291C322.054 378.729 320.104 379.536 318.072 379.536ZM58.9327 0.268414C56.9916 0.271969 55.1313 1.04556 53.76 2.41938C52.3887 3.7932 51.6185 5.65499 51.6185 7.59609V371.873C51.6185 373.814 52.3887 375.676 53.76 377.049C55.1313 378.423 56.9916 379.197 58.9327 379.2H318.072C320.014 379.197 321.876 378.424 323.25 377.05C324.623 375.677 325.396 373.815 325.4 371.873V7.59609C325.396 5.65376 324.623 3.79199 323.25 2.41856C321.876 1.04512 320.014 0.271962 318.072 0.268414H58.9327Z" fill="#EBEBEB"/>
<path d="M608.37 379.536H349.217C347.186 379.532 345.239 378.724 343.803 377.288C342.366 375.851 341.558 373.904 341.554 371.873V7.59609C341.575 5.57643 342.392 3.64649 343.826 2.2246C345.261 0.802701 347.198 0.00341997 349.217 0H608.37C610.386 0.00698477 612.318 0.808257 613.748 2.23015C615.177 3.65204 615.989 5.57997 616.006 7.59609V371.873C616.006 373.9 615.203 375.846 613.771 377.282C612.34 378.718 610.398 379.529 608.37 379.536ZM349.217 0.268414C347.275 0.271962 345.413 1.04512 344.04 2.41856C342.666 3.79199 341.893 5.65376 341.89 7.59609V371.873C341.893 373.815 342.666 375.677 344.04 377.05C345.413 378.424 347.275 379.197 349.217 379.2H608.37C610.312 379.197 612.174 378.424 613.548 377.05C614.921 375.677 615.694 373.815 615.698 371.873V7.59609C615.694 5.65376 614.921 3.79199 613.548 2.41856C612.174 1.04512 610.312 0.271962 608.37 0.268414H349.217Z" fill="#EBEBEB"/>
<path d="M256.038 261.044L582.214 261.044V22.7874L256.038 22.7874L256.038 261.044Z" fill="#E6E6E6"/>
<path d="M241.627 261.044L578.874 261.044V22.7874L241.627 22.7874L241.627 261.044Z" fill="#F0F0F0"/>
<path d="M558.672 240.861V42.9736L261.794 42.9736V240.861L558.672 240.861Z" fill="#FAFAFA"/>
<path d="M486.512 240.848L418.925 42.9736H354.385L421.972 240.848H486.512Z" fill="white"/>
<path d="M408.11 240.848L340.523 42.9736H315.373L382.959 240.848H408.11Z" fill="white"/>
<path d="M264.371 240.861V42.9736H261.808V240.861H264.371Z" fill="#E6E6E6"/>
<path d="M86.6578 196.238H201.834L201.834 32.9486H86.6578L86.6578 196.238Z" fill="#E0E0E0"/>
<path d="M78.5097 196.238L197.229 196.238L197.229 32.9486L78.5097 32.9486L78.5097 196.238Z" fill="#F5F5F5"/>
<path d="M185.511 183.354V45.806L90.2249 45.806L90.2249 183.354H185.511Z" fill="white"/>
<path d="M131.425 310.553C139.974 289.456 160.307 281.605 167.339 268.278C176.532 250.831 176.478 224.648 168.681 215.213C161.863 207 139.317 262.507 136.78 268.708C129.821 285.442 125.467 303.143 123.87 321.196C124.057 308.164 124.232 296.193 124.38 286.96C124.863 256.844 125.453 247.154 125.722 244.175C126.661 242.712 127.775 241.021 128.406 240.149C133.868 232.459 145.973 223.292 152.026 212.113C160.857 195.78 159.434 176.239 153.234 168.965C146.752 161.356 135.304 179.34 129.224 197.149C123.145 214.958 125.735 232.042 124.031 246.805C123.682 249.704 123.306 260.722 122.97 276.022C121.118 259.568 117.441 248.55 110.637 238.27C102.262 225.641 95.0285 210.261 88.1303 212.247C81.2321 214.233 84.9362 234.592 90.3984 248.872C95.2835 261.595 119.239 274.291 122.769 284.517C122.353 305.239 121.977 331.489 121.722 355.955C119.83 343.326 121.132 342.266 113.375 322.927C108.771 311.439 89.9153 297.267 87.6338 305.158C85.3523 313.049 88.8014 327.973 95.9277 338.441C101.685 346.87 114.448 346.856 117.401 352.09C118.085 353.311 120.367 357.995 121.669 360.679C121.36 390.527 121.226 416.885 121.373 425.863L122.608 425.957C122.608 423.636 122.702 408.511 122.943 388.38C126.044 377.643 146.913 371.456 153.355 360.33C160.065 348.695 164.95 335.113 162.051 326.027C159.636 318.445 140.578 328.711 132.915 341.313C127.775 349.688 124.634 358.613 123.172 370.611C123.346 356.922 123.547 342.213 123.735 328.336C125.306 324.846 128.835 316.874 131.425 310.553Z" fill="#E6E6E6"/>
<path d="M143.682 439.393H99.8236C98.6646 439.391 97.5415 438.99 96.6441 438.256C95.7468 437.523 95.1301 436.502 94.8983 435.366L91.7847 420.067H151.735L148.621 435.407C148.376 436.535 147.753 437.545 146.854 438.27C145.956 438.995 144.837 439.391 143.682 439.393Z" fill="#F0F0F0"/>
<path d="M152.995 425.959H90.5217C89.7981 425.957 89.1003 425.69 88.561 425.207C88.0216 424.725 87.6782 424.061 87.596 423.342L86.254 412.002C86.2088 411.59 86.2507 411.173 86.377 410.779C86.5033 410.385 86.7112 410.021 86.9871 409.712C87.263 409.403 87.6008 409.156 87.9786 408.986C88.3563 408.817 88.7655 408.728 89.1797 408.727H154.189C154.604 408.726 155.014 408.813 155.393 408.982C155.772 409.151 156.11 409.399 156.387 409.708C156.663 410.017 156.871 410.381 156.996 410.777C157.122 411.172 157.162 411.59 157.115 412.002L155.773 423.342C155.694 424.036 155.372 424.681 154.864 425.16C154.355 425.639 153.693 425.922 152.995 425.959Z" fill="#F0F0F0"/>
<path d="M544.38 429.609H557.787V285.35H544.38V429.609Z" fill="#F0F0F0"/>
<path d="M271.178 439.217L552.649 439.217V429.608L271.178 429.608V439.217Z" fill="#F0F0F0"/>
<path d="M544.394 285.349H266.037V429.608H544.394V285.349Z" fill="#F5F5F5"/>
<path d="M547.548 285.349H561.398V276.25H547.548V285.349Z" fill="#E0E0E0"/>
<path d="M547.55 276.251H262.429V285.35H547.55V276.251Z" fill="#EBEBEB"/>
<path d="M524.413 347.595H286.009C283.161 347.595 280.431 346.463 278.417 344.45C276.404 342.437 275.272 339.706 275.272 336.858V305.991C275.272 303.143 276.404 300.412 278.417 298.399C280.431 296.385 283.161 295.254 286.009 295.254H524.413C527.261 295.254 529.992 296.385 532.005 298.399C534.019 300.412 535.15 303.143 535.15 305.991V336.858C535.15 339.706 534.019 342.437 532.005 344.45C529.992 346.463 527.261 347.595 524.413 347.595ZM286.009 297.938C283.873 297.938 281.825 298.787 280.315 300.297C278.805 301.807 277.957 303.855 277.957 305.991V336.858C277.957 338.994 278.805 341.042 280.315 342.552C281.825 344.062 283.873 344.911 286.009 344.911H524.413C526.549 344.911 528.597 344.062 530.107 342.552C531.617 341.042 532.466 338.994 532.466 336.858V305.991C532.466 303.855 531.617 301.807 530.107 300.297C528.597 298.787 526.549 297.938 524.413 297.938H286.009Z" fill="white"/>
<path d="M524.413 412.269H286.009C283.161 412.269 280.431 411.138 278.417 409.125C276.404 407.111 275.272 404.38 275.272 401.533V370.665C275.272 367.818 276.404 365.087 278.417 363.073C280.431 361.06 283.161 359.929 286.009 359.929H524.413C527.261 359.929 529.992 361.06 532.005 363.073C534.019 365.087 535.15 367.818 535.15 370.665V401.533C535.15 404.38 534.019 407.111 532.005 409.125C529.992 411.138 527.261 412.269 524.413 412.269ZM286.009 362.506C283.873 362.506 281.825 363.354 280.315 364.864C278.805 366.374 277.957 368.422 277.957 370.558V401.425C277.957 403.561 278.805 405.609 280.315 407.119C281.825 408.629 283.873 409.478 286.009 409.478H524.413C526.549 409.478 528.597 408.629 530.107 407.119C531.617 405.609 532.466 403.561 532.466 401.425V370.558C532.466 368.422 531.617 366.374 530.107 364.864C528.597 363.354 526.549 362.506 524.413 362.506H286.009Z" fill="white"/>
<path d="M470.229 326.122H340.183C339.26 326.122 338.374 325.756 337.72 325.105C337.066 324.453 336.697 323.569 336.693 322.646V320.096C336.697 319.173 337.066 318.289 337.72 317.638C338.374 316.986 339.26 316.62 340.183 316.62H470.229C471.152 316.62 472.037 316.986 472.691 317.638C473.345 318.289 473.715 319.173 473.718 320.096V322.646C473.715 323.569 473.345 324.453 472.691 325.105C472.037 325.756 471.152 326.122 470.229 326.122ZM340.183 319.412C339.972 319.415 339.772 319.499 339.622 319.647C339.472 319.794 339.384 319.994 339.377 320.204V322.754C339.384 322.964 339.472 323.163 339.622 323.311C339.772 323.458 339.972 323.542 340.183 323.545H470.229C470.44 323.545 470.643 323.463 470.793 323.314C470.944 323.166 471.031 322.965 471.034 322.754V320.204C471.031 319.993 470.944 319.791 470.793 319.643C470.643 319.495 470.44 319.412 470.229 319.412H340.183Z" fill="white"/>
<path d="M470.229 390.794H340.183C339.26 390.794 338.374 390.429 337.72 389.777C337.066 389.126 336.697 388.242 336.693 387.318V384.769C336.697 383.845 337.066 382.961 337.72 382.31C338.374 381.658 339.26 381.293 340.183 381.293H470.229C471.152 381.293 472.037 381.658 472.691 382.31C473.345 382.961 473.715 383.845 473.718 384.769V387.318C473.715 388.242 473.345 389.126 472.691 389.777C472.037 390.429 471.152 390.794 470.229 390.794ZM340.183 383.977C339.972 383.98 339.772 384.064 339.622 384.212C339.472 384.359 339.384 384.558 339.377 384.769V387.318C339.384 387.529 339.472 387.728 339.622 387.875C339.772 388.023 339.972 388.107 340.183 388.11H470.229C470.44 388.11 470.643 388.027 470.793 387.879C470.944 387.731 471.031 387.53 471.034 387.318V384.769C471.031 384.557 470.944 384.356 470.793 384.208C470.643 384.06 470.44 383.977 470.229 383.977H340.183Z" fill="white"/>
<path d="M328.805 500C472.517 500 589.018 493.198 589.018 484.808C589.018 476.417 472.517 469.616 328.805 469.616C185.094 469.616 68.5923 476.417 68.5923 484.808C68.5923 493.198 185.094 500 328.805 500Z" fill="#F5F5F5"/>
<path d="M502.991 151.321L502.48 159.223L503.819 159.31L504.33 151.408L502.991 151.321Z" fill="#3E8A23"/>
<path d="M505.028 119.229L503.353 145.198L504.692 145.284L506.367 119.315L505.028 119.229Z" fill="#3E8A23"/>
<path d="M489.101 81.518H331.342C327.291 81.5891 323.412 83.1669 320.461 85.9436C317.511 88.7203 315.701 92.4966 315.384 96.5357L294.998 411.25C294.85 413.179 295.103 415.118 295.744 416.944C296.384 418.77 297.397 420.442 298.718 421.856C300.04 423.269 301.64 424.392 303.419 425.154C305.198 425.916 307.115 426.3 309.05 426.281H466.783C470.841 426.214 474.728 424.636 477.686 421.857C480.644 419.078 482.46 415.296 482.78 411.25L503.153 96.5357C503.302 94.6073 503.048 92.6689 502.407 90.8438C501.767 89.0187 500.754 87.3468 499.432 85.9344C498.111 84.522 496.51 83.4 494.731 82.6397C492.953 81.8794 491.035 81.4974 489.101 81.518Z" fill="#3E8A23"/>
<path opacity="0.7" d="M484.095 81.518H331.342C327.291 81.5891 323.412 83.1669 320.461 85.9436C317.511 88.7203 315.701 92.4966 315.384 96.5357L294.998 411.25C294.85 413.179 295.103 415.118 295.744 416.944C296.384 418.77 297.397 420.442 298.718 421.856C300.04 423.269 301.64 424.392 303.419 425.154C305.198 425.916 307.115 426.3 309.05 426.281H461.777C465.835 426.214 469.722 424.636 472.68 421.857C475.638 419.078 477.454 415.296 477.774 411.25L498.147 96.5357C498.296 94.6073 498.042 92.6689 497.401 90.8438C496.761 89.0187 495.748 87.3468 494.426 85.9344C493.105 84.522 491.504 83.4 489.725 82.6397C487.947 81.8794 486.029 81.4974 484.095 81.518Z" fill="white"/>
<path d="M471.213 403.024H303.187C302.558 403.025 301.936 402.897 301.359 402.648C300.782 402.399 300.263 402.035 299.832 401.577C299.402 401.119 299.07 400.577 298.858 399.986C298.645 399.394 298.556 398.766 298.597 398.139L317.037 113.352C317.112 112.189 317.627 111.098 318.476 110.301C319.326 109.503 320.448 109.059 321.613 109.058H489.653C490.282 109.058 490.905 109.188 491.482 109.438C492.059 109.689 492.578 110.055 493.008 110.514C493.438 110.973 493.77 111.515 493.982 112.107C494.195 112.699 494.283 113.329 494.243 113.956L475.803 398.729C475.728 399.895 475.211 400.987 474.359 401.785C473.506 402.583 472.381 403.026 471.213 403.024Z" fill="white"/>
<path d="M433.875 99.7422H372.798C372.483 99.745 372.172 99.6825 371.883 99.5585C371.594 99.4346 371.334 99.2521 371.12 99.0224C370.905 98.7927 370.741 98.521 370.637 98.2245C370.533 97.9279 370.492 97.613 370.516 97.2996C370.578 96.6487 370.875 96.0428 371.352 95.5955C371.829 95.1483 372.453 94.8905 373.106 94.8705H434.184C434.497 94.8658 434.808 94.9266 435.097 95.049C435.386 95.1714 435.646 95.3527 435.861 95.5814C436.075 95.81 436.24 96.0809 436.344 96.3767C436.448 96.6726 436.489 96.9869 436.465 97.2996C436.406 97.953 436.11 98.5621 435.633 99.0122C435.156 99.4622 434.531 99.7219 433.875 99.7422Z" fill="white"/>
<path d="M386.204 414.981C386.105 416.589 385.402 418.101 384.234 419.211C383.066 420.322 381.521 420.949 379.909 420.966C379.136 420.973 378.368 420.821 377.656 420.518C376.944 420.216 376.301 419.77 375.769 419.209C375.236 418.647 374.825 417.982 374.56 417.255C374.296 416.527 374.185 415.753 374.233 414.981C374.334 413.375 375.039 411.866 376.207 410.759C377.374 409.651 378.918 409.026 380.527 409.009C381.3 409 382.067 409.15 382.779 409.451C383.492 409.752 384.134 410.197 384.667 410.757C385.2 411.318 385.611 411.982 385.876 412.709C386.14 413.435 386.252 414.209 386.204 414.981Z" fill="white"/>
<path opacity="0.2" d="M452.905 187.89H309.425L300.299 328.672H452.905C456.887 328.665 460.704 327.081 463.521 324.267C466.338 321.452 467.925 317.636 467.936 313.654V202.961C467.94 198.97 466.358 195.14 463.54 192.314C460.721 189.488 456.896 187.897 452.905 187.89Z" fill="#3E8A23"/>
<path d="M439.538 175.422H263.701C255.4 175.422 248.67 182.152 248.67 190.453V301.187C248.67 309.489 255.4 316.218 263.701 316.218H439.538C447.84 316.218 454.569 309.489 454.569 301.187V190.453C454.569 182.152 447.84 175.422 439.538 175.422Z" fill="#3E8A23"/>
<path d="M243.867 173.799C243.515 173.798 243.178 173.658 242.928 173.41L240.512 171.008C240.259 170.755 240.117 170.412 240.117 170.055C240.117 169.698 240.259 169.355 240.512 169.102C240.765 168.85 241.107 168.708 241.465 168.708C241.822 168.708 242.165 168.85 242.418 169.102L244.82 171.518C245.07 171.769 245.21 172.11 245.21 172.464C245.21 172.819 245.07 173.159 244.82 173.41C244.694 173.535 244.546 173.633 244.382 173.7C244.219 173.767 244.044 173.8 243.867 173.799Z" fill="#3E8A23"/>
<path d="M240.229 182.227H236.834C236.478 182.227 236.136 182.086 235.885 181.834C235.633 181.582 235.492 181.241 235.492 180.885C235.492 180.529 235.633 180.188 235.885 179.936C236.136 179.684 236.478 179.543 236.834 179.543H240.229C240.585 179.543 240.926 179.684 241.178 179.936C241.43 180.188 241.571 180.529 241.571 180.885C241.571 181.241 241.43 181.582 241.178 181.834C240.926 182.086 240.585 182.227 240.229 182.227Z" fill="#3E8A23"/>
<path d="M252.415 170.175C252.075 170.175 251.747 170.047 251.498 169.815C251.249 169.584 251.097 169.266 251.073 168.926L250.831 165.531C250.819 165.355 250.841 165.178 250.897 165.01C250.953 164.842 251.041 164.687 251.157 164.554C251.273 164.42 251.414 164.311 251.573 164.232C251.731 164.154 251.903 164.107 252.08 164.095C252.433 164.073 252.782 164.192 253.048 164.426C253.315 164.66 253.478 164.989 253.502 165.343L253.757 168.739C253.77 168.915 253.748 169.092 253.692 169.26C253.636 169.428 253.547 169.583 253.431 169.716C253.315 169.849 253.174 169.959 253.016 170.037C252.858 170.116 252.685 170.163 252.509 170.175H252.415Z" fill="#3E8A23"/>
<path d="M366.639 301.736L420.63 355.714V301.736H366.639Z" fill="#3E8A23"/>
<path d="M381.442 278.092L378.758 266.698C378.081 263.702 378.081 260.594 378.758 257.598L382.489 241.373C384.016 234.454 383.189 227.223 380.141 220.827C377.092 214.43 371.996 209.235 365.66 206.063C365.779 205.765 365.882 205.46 365.968 205.15C366.189 204.166 366.213 203.148 366.04 202.154C365.867 201.161 365.5 200.211 364.959 199.359C364.419 198.507 363.716 197.77 362.891 197.19C362.066 196.61 361.135 196.198 360.151 195.977C359.166 195.757 358.148 195.733 357.155 195.906C356.161 196.079 355.211 196.446 354.359 196.987C353.507 197.527 352.77 198.23 352.19 199.055C351.61 199.88 351.198 200.811 350.978 201.795C350.911 202.109 350.871 202.428 350.857 202.748C343.774 202.914 336.949 205.439 331.462 209.921C325.976 214.404 322.142 220.588 320.566 227.496L316.929 243.735C316.261 246.725 314.931 249.527 313.037 251.935L305.804 261.128C305.096 262.03 304.628 263.096 304.444 264.227C304.26 265.358 304.364 266.518 304.749 267.598C305.133 268.678 305.785 269.643 306.643 270.403C307.501 271.163 308.537 271.693 309.655 271.945L373.403 286.225C374.518 286.465 375.675 286.421 376.768 286.096C377.861 285.771 378.854 285.175 379.655 284.365C380.457 283.554 381.041 282.554 381.353 281.457C381.665 280.361 381.696 279.203 381.442 278.092Z" fill="white"/>
<path d="M333.302 281.607C332.817 281.5 332.313 281.515 331.835 281.649C331.357 281.783 330.919 282.033 330.561 282.377C330.203 282.721 329.935 283.147 329.781 283.619C329.627 284.091 329.591 284.594 329.678 285.083C330.044 287.24 331.044 289.238 332.55 290.825C334.055 292.411 335.999 293.514 338.134 293.991C340.268 294.469 342.497 294.301 344.535 293.508C346.574 292.715 348.33 291.333 349.581 289.539C349.866 289.134 350.048 288.666 350.11 288.174C350.172 287.683 350.112 287.184 349.936 286.721C349.76 286.259 349.472 285.846 349.099 285.521C348.726 285.195 348.278 284.967 347.796 284.855L333.302 281.607Z" fill="white"/>
<path d="M284.344 259.018C284.011 259.02 283.683 258.939 283.39 258.782C283.097 258.625 282.848 258.397 282.666 258.119C276.328 248.622 274.021 236.997 276.253 225.799C278.486 214.602 285.074 204.75 294.57 198.41C295.015 198.115 295.559 198.008 296.083 198.114C296.606 198.22 297.066 198.529 297.362 198.974C297.657 199.419 297.764 199.963 297.658 200.486C297.553 201.01 297.243 201.47 296.798 201.765C288.202 207.523 282.242 216.458 280.229 226.606C278.216 236.755 280.314 247.288 286.062 255.891C286.359 256.334 286.467 256.877 286.364 257.401C286.261 257.924 285.954 258.385 285.511 258.682C285.165 258.91 284.758 259.027 284.344 259.018Z" fill="white"/>
<path d="M292.865 253.303C292.535 253.301 292.211 253.218 291.921 253.061C291.631 252.904 291.383 252.679 291.201 252.404C286.376 245.17 284.62 236.316 286.319 227.788C288.018 219.26 293.032 211.755 300.26 206.921C300.48 206.774 300.727 206.672 300.987 206.62C301.247 206.569 301.514 206.569 301.774 206.62C302.034 206.672 302.281 206.775 302.501 206.922C302.722 207.069 302.911 207.258 303.058 207.478C303.205 207.699 303.307 207.946 303.359 208.206C303.411 208.466 303.411 208.733 303.359 208.993C303.307 209.253 303.205 209.5 303.058 209.72C302.911 209.94 302.721 210.129 302.501 210.277C296.157 214.511 291.754 221.092 290.261 228.572C288.769 236.052 290.309 243.818 294.543 250.163C294.84 250.606 294.948 251.149 294.845 251.672C294.742 252.196 294.435 252.657 293.992 252.954C293.658 253.178 293.267 253.299 292.865 253.303Z" fill="white"/>
<path d="M301.401 247.598C301.072 247.6 300.747 247.52 300.457 247.365C300.166 247.211 299.919 246.986 299.737 246.712C298.092 244.25 296.95 241.488 296.374 238.584C295.798 235.679 295.801 232.69 296.382 229.787C296.963 226.884 298.111 224.124 299.759 221.665C301.408 219.205 303.526 217.095 305.991 215.456C306.434 215.18 306.967 215.088 307.477 215.198C307.987 215.307 308.434 215.611 308.725 216.044C309.015 216.478 309.126 217.007 309.034 217.52C308.942 218.034 308.655 218.492 308.232 218.797C306.21 220.147 304.474 221.882 303.123 223.903C301.771 225.924 300.831 228.191 300.357 230.575C299.882 232.959 299.881 235.413 300.355 237.798C300.829 240.182 301.768 242.45 303.119 244.471C303.412 244.915 303.519 245.457 303.416 245.98C303.313 246.502 303.008 246.963 302.568 247.263C302.222 247.49 301.815 247.607 301.401 247.598Z" fill="white"/>
<path d="M400.402 287.325C399.952 287.324 399.515 287.172 399.162 286.893C398.808 286.615 398.558 286.226 398.451 285.788C398.345 285.351 398.388 284.891 398.574 284.481C398.759 284.071 399.077 283.735 399.476 283.527C408.671 278.776 415.603 270.568 418.749 260.708C421.895 250.848 420.997 240.143 416.252 230.945C416.108 230.708 416.014 230.445 415.976 230.171C415.938 229.897 415.957 229.618 416.032 229.352C416.106 229.085 416.235 228.837 416.41 228.623C416.585 228.408 416.802 228.232 417.048 228.106C417.294 227.979 417.564 227.904 417.84 227.886C418.116 227.868 418.393 227.908 418.653 228.001C418.913 228.095 419.151 228.242 419.353 228.432C419.554 228.622 419.713 228.851 419.822 229.106C422.414 234.132 423.99 239.62 424.46 245.255C424.931 250.891 424.287 256.564 422.564 261.95C420.842 267.337 418.075 272.331 414.422 276.648C410.769 280.965 406.302 284.52 401.275 287.11C401.003 287.243 400.705 287.316 400.402 287.325Z" fill="white"/>
<path d="M395.691 278.21C395.241 278.209 394.804 278.057 394.451 277.778C394.097 277.5 393.847 277.111 393.74 276.674C393.634 276.236 393.677 275.776 393.862 275.366C394.048 274.956 394.366 274.62 394.765 274.412C398.123 272.68 401.108 270.304 403.547 267.418C405.986 264.533 407.832 261.195 408.98 257.595C410.128 253.995 410.555 250.204 410.237 246.439C409.919 242.674 408.861 239.009 407.125 235.653C406.88 235.178 406.833 234.625 406.996 234.115C407.158 233.605 407.516 233.181 407.991 232.935C408.466 232.69 409.02 232.643 409.529 232.805C410.039 232.968 410.463 233.326 410.709 233.801C412.687 237.627 413.892 241.805 414.254 246.096C414.616 250.388 414.129 254.709 412.82 258.812C411.511 262.915 409.407 266.72 406.627 270.01C403.846 273.299 400.445 276.008 396.617 277.982C396.332 278.134 396.014 278.212 395.691 278.21Z" fill="white"/>
<path d="M390.98 269.098C390.532 269.091 390.098 268.935 389.748 268.655C389.398 268.375 389.15 267.986 389.044 267.55C388.938 267.114 388.98 266.656 389.163 266.246C389.346 265.836 389.659 265.499 390.054 265.287C392.215 264.175 394.135 262.648 395.705 260.793C397.275 258.938 398.463 256.791 399.203 254.476C399.942 252.161 400.217 249.723 400.013 247.302C399.809 244.88 399.129 242.523 398.013 240.365C397.767 239.889 397.72 239.336 397.883 238.826C398.045 238.317 398.403 237.892 398.878 237.647C399.354 237.401 399.907 237.354 400.416 237.517C400.926 237.679 401.35 238.037 401.596 238.512C404.327 243.828 404.838 250.009 403.017 255.701C401.195 261.392 397.19 266.129 391.879 268.87C391.601 269.014 391.293 269.092 390.98 269.098Z" fill="white"/>
<path d="M272.923 95.0827H262.67C262.404 95.0895 262.148 95.1902 261.95 95.3671C261.751 95.5439 261.621 95.7855 261.583 96.049L259.435 116.502C259.42 116.625 259.431 116.75 259.468 116.869C259.505 116.987 259.567 117.097 259.65 117.19C259.732 117.282 259.834 117.356 259.947 117.407C260.061 117.457 260.184 117.483 260.308 117.482H270.561C270.829 117.474 271.086 117.372 271.285 117.192C271.484 117.013 271.613 116.768 271.648 116.502L273.795 96.049C273.811 95.9264 273.8 95.8019 273.763 95.684C273.726 95.5661 273.664 95.4575 273.581 95.3658C273.498 95.2741 273.396 95.2013 273.283 95.1524C273.169 95.1036 273.047 95.0798 272.923 95.0827Z" fill="#3E8A23"/>
<path opacity="0.4" d="M271.997 95.0847H262.67C262.404 95.0915 262.148 95.1922 261.95 95.3691C261.751 95.5459 261.621 95.7875 261.583 96.051L259.435 116.504C259.42 116.627 259.431 116.752 259.468 116.871C259.505 116.989 259.567 117.099 259.65 117.192C259.732 117.284 259.834 117.358 259.947 117.409C260.061 117.459 260.184 117.485 260.308 117.484H269.702C269.969 117.476 270.224 117.373 270.421 117.193C270.618 117.013 270.744 116.769 270.776 116.504L272.923 96.051C272.942 95.9232 272.932 95.7927 272.893 95.6695C272.854 95.5463 272.787 95.4337 272.697 95.3404C272.608 95.2471 272.498 95.1755 272.377 95.1312C272.256 95.0868 272.126 95.0709 271.997 95.0847Z" fill="white"/>
<path d="M221.533 473.278C222.875 473.278 224.217 473.077 224.686 472.459C224.801 472.293 224.862 472.097 224.862 471.896C224.862 471.694 224.801 471.498 224.686 471.332C224.491 471.031 224.189 470.815 223.841 470.728C222.016 470.231 218.312 472.406 218.151 472.499C218.109 472.526 218.076 472.564 218.057 472.61C218.038 472.656 218.033 472.706 218.043 472.754C218.053 472.808 218.079 472.857 218.117 472.895C218.156 472.933 218.205 472.959 218.258 472.969C219.339 473.164 220.434 473.267 221.533 473.278ZM223.17 471.171C223.335 471.15 223.502 471.15 223.666 471.171C223.88 471.223 224.066 471.352 224.19 471.533C224.378 471.855 224.324 472.016 224.19 472.097C223.72 472.808 220.969 472.822 218.942 472.54C220.244 471.801 221.682 471.335 223.17 471.171Z" fill="#3E8A23"/>
<path d="M218.23 472.969H218.337C219.679 472.379 222.122 470.03 221.867 468.795C221.867 468.514 221.585 468.151 220.874 468.084C220.622 468.056 220.367 468.08 220.125 468.154C219.883 468.228 219.658 468.35 219.465 468.514C218.123 469.654 217.975 472.54 217.962 472.701C217.96 472.748 217.97 472.795 217.991 472.837C218.012 472.879 218.044 472.916 218.082 472.942C218.128 472.965 218.179 472.975 218.23 472.969ZM220.699 468.567H220.847C221.317 468.567 221.357 468.796 221.357 468.849C221.518 469.587 219.827 471.439 218.525 472.245C218.607 471.013 219.077 469.838 219.867 468.889C220.1 468.69 220.393 468.577 220.699 468.567Z" fill="#3E8A23"/>
<path d="M217.13 447.551H206.259V472.715H217.13V447.551Z" fill="#AD6359"/>
<path d="M127.427 460.715L138.285 461.896L145.357 437.471L134.5 436.29L127.427 460.715Z" fill="#AD6359"/>
<path d="M143.33 464.354C144.672 464.703 146.014 464.851 146.618 464.354C146.765 464.217 146.866 464.036 146.904 463.839C146.943 463.641 146.918 463.436 146.833 463.253C146.777 463.086 146.69 462.931 146.574 462.797C146.459 462.664 146.319 462.554 146.162 462.475C144.484 461.549 140.324 462.717 140.149 462.757C140.098 462.771 140.052 462.8 140.019 462.841C139.985 462.882 139.965 462.932 139.961 462.985C139.961 463.038 139.976 463.091 140.005 463.136C140.033 463.181 140.074 463.217 140.122 463.24C141.158 463.702 142.231 464.075 143.33 464.354ZM145.45 462.743C145.613 462.783 145.771 462.842 145.92 462.918C146.119 463.013 146.273 463.181 146.349 463.388C146.457 463.75 146.349 463.884 146.349 463.965C145.705 464.515 143.008 463.857 141.089 463.079C142.508 462.689 143.989 462.579 145.45 462.757V462.743Z" fill="#3E8A23"/>
<path d="M140.177 463.266H140.284C141.626 463.011 144.713 461.373 144.767 460.139C144.767 459.843 144.659 459.441 143.975 459.199C143.734 459.113 143.478 459.075 143.222 459.089C142.966 459.103 142.715 459.168 142.485 459.28C140.901 460.045 140.016 462.809 139.975 462.917C139.953 462.956 139.941 463 139.941 463.044C139.941 463.089 139.953 463.133 139.975 463.172C139.998 463.203 140.029 463.229 140.064 463.245C140.099 463.261 140.138 463.269 140.177 463.266ZM143.666 459.656H143.827C144.27 459.817 144.257 460.005 144.257 460.058C144.257 460.81 142.109 462.165 140.633 462.608C141.005 461.447 141.738 460.436 142.727 459.723C143.021 459.588 143.355 459.564 143.666 459.656Z" fill="#3E8A23"/>
<path d="M138.862 460.89L126.984 457.482C126.78 457.42 126.561 457.432 126.365 457.516C126.169 457.599 126.008 457.748 125.911 457.938L121.536 466.621C121.433 466.841 121.381 467.08 121.382 467.323C121.383 467.565 121.437 467.804 121.541 468.023C121.645 468.243 121.795 468.436 121.982 468.59C122.169 468.745 122.388 468.856 122.623 468.916C126.783 470.03 128.863 470.379 134.084 471.868C137.292 472.794 143.827 475.022 148.27 476.297C152.712 477.572 154.349 473.398 152.631 472.486C144.928 468.392 142.458 465.091 140.419 462.031C140.053 461.477 139.5 461.072 138.862 460.89Z" fill="#263238"/>
<path d="M217.011 471.453H205.147C204.934 471.451 204.727 471.525 204.564 471.663C204.401 471.801 204.294 471.994 204.261 472.205L202.53 481.8C202.491 482.04 202.505 482.285 202.57 482.519C202.635 482.752 202.75 482.969 202.907 483.154C203.064 483.339 203.259 483.488 203.479 483.59C203.699 483.692 203.938 483.746 204.181 483.746C208.462 483.666 214.636 483.411 220.017 483.411C226.312 483.411 229.747 483.76 237.129 483.76C241.584 483.76 242.631 479.25 240.739 478.834C232.163 476.982 227.211 476.781 219.668 472.245C218.867 471.753 217.951 471.48 217.011 471.453Z" fill="#263238"/>
<path opacity="0.2" d="M217.13 447.551H206.259V460.529H217.13V447.551Z" fill="black"/>
<path opacity="0.2" d="M134.498 436.305L145.356 437.472L141.423 451.027L130.848 448.893L134.498 436.305Z" fill="black"/>
<path d="M199.254 197.281C199.254 197.281 193.255 279.335 187.887 310.444C181.968 344.519 147.531 448.851 147.531 448.851L127.802 445.241C127.802 445.241 152.671 347.27 155.422 313.531C158.415 276.919 162.012 201.455 162.012 201.455L199.254 197.281Z" fill="#3E8A23"/>
<path opacity="0.3" d="M189.15 231.37C190.223 226.86 192.693 232.537 195.565 242.375C193.391 266.72 190.559 294.917 187.848 310.458C187.244 313.934 186.331 318.148 185.164 322.925C186.197 288.193 186.237 243.569 189.15 231.37Z" fill="black"/>
<path d="M219.75 195.055C219.75 195.055 227.628 277.538 227.896 310.674C228.178 345.151 221.078 458.019 221.078 458.019H202.652C202.652 458.019 197.123 347.165 194.828 313.304C192.318 276.397 181.756 199.229 181.756 199.229L219.75 195.055Z" fill="#3E8A23"/>
<path d="M151.65 442.21C151.73 442.21 148.55 449.363 148.55 449.363L126.352 445.337L127.694 438.693L151.65 442.21Z" fill="#263238"/>
<path d="M224.299 450.678C224.38 450.678 223.588 458.327 223.588 458.327H201.202L200.29 451.51L224.299 450.678Z" fill="#263238"/>
<path d="M162.55 121.536C161.074 124.394 159.45 127.4 157.973 130.366L153.464 139.304C152.001 142.284 150.565 145.277 149.183 148.269C147.801 151.262 146.499 154.242 145.385 157.221L145.278 152.524C146.062 154.936 147.003 157.294 148.096 159.583C148.619 160.764 149.29 161.891 149.867 163.059C150.444 164.227 151.209 165.341 151.894 166.441C153.318 168.716 154.859 170.915 156.511 173.031C157.343 174.091 158.175 175.178 159.061 176.198C159.946 177.218 160.913 178.278 161.745 179.15L162.013 179.446C162.631 180.125 162.988 181.001 163.018 181.919C163.049 182.837 162.752 183.736 162.18 184.454C161.608 185.173 160.8 185.665 159.898 185.841C158.997 186.018 158.063 185.868 157.262 185.418C155.875 184.636 154.531 183.781 153.236 182.854C151.894 181.969 150.713 181.043 149.505 180.063C147.087 178.08 144.817 175.922 142.714 173.608C140.567 171.256 138.615 168.733 136.876 166.065C135.09 163.347 133.536 160.483 132.233 157.503C131.658 156.238 131.558 154.809 131.951 153.477L132.139 152.846C133.159 149.343 134.299 145.948 135.561 142.619C136.823 139.291 138.165 136.03 139.587 132.822C141.01 129.615 142.499 126.448 144.07 123.32C145.64 120.193 147.224 117.134 149.035 114.007C150.037 112.217 151.704 110.895 153.674 110.327C155.645 109.76 157.76 109.993 159.56 110.976C161.359 111.959 162.698 113.612 163.286 115.577C163.874 117.542 163.662 119.659 162.698 121.468L162.55 121.536Z" fill="#AD6359"/>
<path d="M170.255 116.759C170.792 126.999 159.169 145.801 159.169 145.801L135.24 133.843C138.148 125.362 142.649 117.513 148.5 110.719C161.156 96.7351 169.758 107.364 170.255 116.759Z" fill="#263238"/>
<path d="M154.037 183.5L158.855 191.552L168.881 185.137C167.13 181.999 164.387 179.53 161.083 178.118C160.319 177.874 159.493 177.912 158.754 178.224C158.016 178.537 157.414 179.104 157.057 179.822L154.037 183.5Z" fill="#AD6359"/>
<path d="M162.868 194.987L167.525 194.115C167.917 194.042 168.291 193.893 168.625 193.675C168.959 193.458 169.247 193.176 169.471 192.847C169.696 192.517 169.853 192.147 169.934 191.756C170.014 191.366 170.017 190.963 169.941 190.572L168.881 185.203L158.856 191.619L159.527 193.242C159.801 193.871 160.282 194.386 160.89 194.704C161.498 195.021 162.196 195.121 162.868 194.987Z" fill="#AD6359"/>
<path d="M191.149 65.303C191.243 66.1753 191.793 66.8598 192.357 66.8061C192.92 66.7524 193.296 66.0143 193.189 65.1419C193.081 64.2696 192.544 63.5851 191.981 63.6254C191.417 63.6657 191.041 64.4172 191.149 65.303Z" fill="#263238"/>
<path d="M191.714 66.8594C193.072 69.466 194.763 71.8843 196.747 74.0529C195.405 75.6231 192.721 75.1668 192.721 75.1668L191.714 66.8594Z" fill="#FF5652"/>
<path d="M187.388 60.6732C187.458 60.6835 187.529 60.6781 187.596 60.6572C187.664 60.6363 187.726 60.6004 187.777 60.5524C188.243 60.1166 188.808 59.8018 189.423 59.6357C190.039 59.4696 190.686 59.4571 191.307 59.5995C191.37 59.6198 191.437 59.6268 191.504 59.6199C191.57 59.6131 191.634 59.5927 191.692 59.5599C191.75 59.5272 191.8 59.4828 191.84 59.4295C191.88 59.3763 191.909 59.3154 191.924 59.2506C191.958 59.1172 191.939 58.976 191.872 58.8562C191.804 58.7363 191.693 58.6469 191.562 58.6064C190.777 58.4191 189.959 58.4264 189.177 58.6275C188.396 58.8287 187.676 59.2176 187.079 59.7606C187.029 59.8082 186.99 59.8654 186.963 59.9289C186.935 59.9923 186.921 60.0606 186.921 60.1296C186.921 60.1986 186.935 60.2669 186.963 60.3304C186.99 60.3938 187.029 60.4511 187.079 60.4987C187.117 60.5469 187.163 60.5872 187.216 60.6171C187.269 60.6471 187.328 60.6661 187.388 60.6732Z" fill="#263238"/>
<path d="M164.092 75.0195C166.655 82.7901 170.064 97.1099 165.205 102.854C165.205 102.854 168.4 110.678 183.109 109.43C199.307 108.088 189.819 100.774 189.819 100.774C180.72 99.4317 180.102 92.869 180.854 86.6016L164.092 75.0195Z" fill="#AD6359"/>
<path d="M161.729 105.686C160.213 103.257 158.522 100.479 161.394 99.4455C164.548 98.3048 182.263 96.4527 188.571 98.0095C194.878 99.5663 193.59 104.72 193.59 104.72L161.729 105.686Z" fill="#3E8A23"/>
<path d="M213.599 108.961C215.908 111.082 218.404 113.43 220.887 115.578C223.37 117.725 225.879 119.926 228.402 122.046C230.925 124.167 233.502 126.167 236.092 128.113C238.683 130.059 241.313 131.83 243.944 133.481L238.575 132.971C240.806 132.376 242.917 131.4 244.816 130.085C247.034 128.535 249.093 126.768 250.963 124.811C252.977 122.749 254.864 120.567 256.613 118.275C257.512 117.108 258.411 115.927 259.297 114.705C260.182 113.484 260.988 112.196 261.726 111.068L261.873 110.854C262.383 110.075 263.156 109.506 264.05 109.25C264.945 108.993 265.902 109.067 266.746 109.458C267.591 109.848 268.267 110.53 268.651 111.377C269.035 112.225 269.102 113.182 268.839 114.075C268.329 115.819 267.792 117.309 267.175 118.866C266.557 120.423 265.913 121.953 265.188 123.456C263.719 126.522 262 129.462 260.048 132.246C258 135.199 255.613 137.901 252.935 140.299C249.972 142.944 246.534 145.002 242.803 146.365C242.002 146.647 241.153 146.767 240.305 146.719C239.457 146.671 238.628 146.454 237.864 146.083L237.421 145.855C234.089 144.217 230.853 142.389 227.731 140.379C224.685 138.406 221.732 136.353 218.887 134.152C216.042 131.951 213.291 129.723 210.607 127.442C207.922 125.16 205.346 122.771 202.729 120.1C201.336 118.648 200.56 116.713 200.563 114.7C200.567 112.688 201.349 110.755 202.747 109.308C204.144 107.86 206.048 107.009 208.059 106.935C210.07 106.86 212.031 107.567 213.532 108.908L213.599 108.961Z" fill="#AD6359"/>
<path d="M205.403 101.995C205.403 101.995 218.932 115.121 220.502 196.302C198.868 201.55 178.052 203.482 161.974 201.442C161.209 191.256 160.069 155.906 149.735 118.637C149.291 117.067 149.178 115.423 149.404 113.807C149.629 112.191 150.188 110.64 151.045 109.252C151.902 107.864 153.038 106.669 154.381 105.743C155.724 104.818 157.245 104.181 158.847 103.874C160.901 103.472 163.061 103.109 165.209 102.828C173.366 101.661 181.584 100.966 189.822 100.747C195.039 100.79 200.246 101.207 205.403 101.995Z" fill="#263238"/>
<path d="M194.905 116.139C196.247 126.299 213.694 145.826 213.694 145.826L234.402 124.353C228.25 117.895 221.6 111.931 214.512 106.517C199.333 95.1762 193.697 106.718 194.905 116.139Z" fill="#263238"/>
<path d="M267.499 117.643L274.424 111.295L266.13 102.773C263.387 105.109 261.498 108.292 260.762 111.819C260.681 112.625 260.894 113.434 261.363 114.095C261.832 114.756 262.524 115.225 263.312 115.416L267.499 117.643Z" fill="#AD6359"/>
<path d="M276.975 106.679L275.191 102.29C275.039 101.914 274.814 101.571 274.528 101.284C274.242 100.996 273.902 100.768 273.526 100.614C273.151 100.46 272.748 100.383 272.343 100.387C271.937 100.392 271.536 100.478 271.164 100.64L266.078 102.774L274.372 111.296L275.821 110.316C276.403 109.935 276.835 109.365 277.046 108.703C277.256 108.04 277.231 107.325 276.975 106.679Z" fill="#AD6359"/>
<path d="M162.025 65.7583C163.971 76.4948 164.561 82.8562 170.6 87.9695C179.686 95.6595 192.221 89.6739 193.415 78.7092C194.543 68.8316 191.174 52.9281 180.25 49.4656C169.325 46.0031 160.079 55.0218 162.025 65.7583Z" fill="#AD6359"/>
<path d="M183.189 69.6246C186.96 70.4836 189.899 66.1218 190.302 64.8871C188.463 65.0616 185.202 64.1222 184.558 63.2901C186.571 63.4646 188.517 60.9817 188.759 60.0289C186.623 59.6164 184.731 58.3891 183.484 56.6066C186.745 56.5395 190.664 50.7955 187.081 45.6554C183.498 40.5153 168.52 44.8233 166.413 41.1594C163.273 42.9847 166.064 45.4138 166.064 45.4138C166.064 45.4138 144.873 49.44 154.643 57.6132C147.477 58.2574 146.47 66.7258 152.442 71.0338C158.414 75.3418 158.723 78.187 156.348 77.8381C157.301 79.6633 161.555 79.9049 161.796 78.1333C162.803 81.8508 165.702 86.8836 172.385 86.0649C179.069 85.2463 185.618 75.8921 183.189 69.6246Z" fill="#263238"/>
<path d="M156.498 56.3652C151.452 57.0631 149.157 54.2179 150.419 51.7083C144.165 54.9024 150.996 61.9617 156.498 56.3652Z" fill="#263238"/>
<path d="M177.97 67.9877C178.839 70.2369 180.375 72.1665 182.372 73.517C185.056 75.2885 187.486 73.517 187.029 70.8329C186.613 68.3635 184.721 64.4581 181.929 63.7602C181.351 63.5705 180.731 63.5498 180.141 63.7007C179.552 63.8515 179.018 64.1676 178.602 64.6117C178.186 65.0558 177.906 65.6095 177.794 66.2076C177.682 66.8057 177.743 67.4233 177.97 67.9877Z" fill="#AD6359"/>
<path d="M519.08 446.265C509.149 422.833 505.136 395.267 516.503 396.408C528.166 397.535 526.797 439.085 528.689 443.648C525.052 446.775 519.08 446.265 519.08 446.265Z" fill="#3E8A23"/>
<path d="M522.306 401.802C519.863 410.741 517.273 424.55 515.3 436.253C516.428 439.608 517.703 442.963 519.085 446.265C519.085 446.265 525.044 446.775 528.708 443.648C527.204 440.051 527.741 413.425 522.306 401.802Z" fill="#263238"/>
<path d="M522.361 441.971C519.247 392.18 527.729 346.027 550.061 348.107C569.226 349.905 541.284 433.731 541.821 443.393C533.044 446.802 522.361 441.971 522.361 441.971Z" fill="#3E8A23"/>
<path d="M536.827 441.649C540.329 405.856 559.212 364.091 567.318 378.049C577.612 395.764 551.214 437.959 550.502 444.897C543.899 446.32 536.827 441.649 536.827 441.649Z" fill="#3E8A23"/>
<path d="M533.297 361.408C531.029 361.032 529.768 359.623 529.915 357.623C530.077 355.369 531.929 353.127 533.646 353.1C534.478 353.1 535.874 353.53 536.223 356.63L534.881 356.791C534.72 355.315 534.277 354.442 533.687 354.442C532.774 354.442 531.378 356.107 531.271 357.717C531.177 359.059 531.929 359.811 533.526 360.079L533.297 361.408Z" fill="#3E8A23"/>
<path d="M557.402 370.412C556.426 370.333 555.494 369.975 554.718 369.379L555.442 368.265C556.691 369.07 557.657 369.285 558.033 368.829C558.596 368.104 558.207 365.984 557.04 364.87C556.1 363.971 555 364.038 553.778 365.111L552.906 364.091C553.22 363.737 553.603 363.451 554.031 363.249C554.458 363.047 554.923 362.934 555.396 362.916C555.868 362.899 556.34 362.977 556.782 363.147C557.223 363.316 557.626 363.574 557.966 363.903C559.603 365.46 560.153 368.305 559.079 369.661C558.881 369.912 558.625 370.112 558.333 370.242C558.041 370.373 557.721 370.432 557.402 370.412Z" fill="#3E8A23"/>
<path d="M524.504 390.677C523.692 390.735 522.886 390.494 522.238 390C521.591 389.506 521.146 388.792 520.988 387.993C520.451 385.805 521.525 383.108 523.162 382.544C523.927 382.289 525.403 382.262 526.692 385.121L525.457 385.685C524.853 384.343 524.115 383.618 523.591 383.819C522.733 384.114 521.914 386.114 522.249 387.671C522.558 389.013 523.591 389.469 525.121 389.228L525.323 390.57C525.053 390.629 524.78 390.665 524.504 390.677Z" fill="#3E8A23"/>
<path d="M510.213 418.472C509.559 418.487 508.915 418.304 508.367 417.947C507.819 417.591 507.391 417.076 507.14 416.472C506.2 414.419 506.75 411.56 508.24 410.701C508.951 410.299 510.401 410.004 512.199 412.58L511.099 413.345C510.24 412.124 509.421 411.574 508.911 411.869C508.119 412.325 507.69 414.446 508.361 415.895C508.911 417.09 509.958 417.412 511.474 416.875L511.917 418.15C511.372 418.356 510.795 418.465 510.213 418.472Z" fill="#3E8A23"/>
<path d="M533.994 377.956C533.856 377.955 533.72 377.913 533.605 377.835C532.771 377.374 532.133 376.627 531.807 375.731C531.482 374.836 531.491 373.853 531.834 372.964C532.222 372.072 532.887 371.33 533.731 370.846C534.575 370.363 535.552 370.164 536.517 370.279C537.35 370.427 539.296 371.165 539.43 374.735C539.43 374.913 539.359 375.084 539.233 375.21C539.107 375.335 538.937 375.406 538.759 375.406C538.581 375.406 538.41 375.335 538.284 375.21C538.158 375.084 538.088 374.913 538.088 374.735C538.007 372.87 537.376 371.742 536.276 371.541C535.608 371.487 534.94 371.644 534.365 371.988C533.79 372.332 533.337 372.846 533.068 373.46C532.585 374.601 533.068 375.755 534.41 376.708C534.528 376.79 534.616 376.907 534.662 377.043C534.708 377.179 534.709 377.325 534.666 377.462C534.622 377.598 534.536 377.717 534.42 377.801C534.304 377.885 534.164 377.93 534.021 377.929L533.994 377.956Z" fill="white"/>
<path d="M549.899 414.176C549.745 414.178 549.596 414.125 549.477 414.026C549.359 413.928 549.28 413.79 549.255 413.639C549.235 413.553 549.233 413.465 549.248 413.378C549.263 413.292 549.295 413.209 549.343 413.135C549.39 413.062 549.452 412.998 549.524 412.948C549.597 412.899 549.679 412.864 549.765 412.847C551.59 412.471 552.596 411.652 552.623 410.539C552.563 409.871 552.297 409.239 551.862 408.729C551.427 408.219 550.844 407.858 550.194 407.693C548.986 407.398 547.913 408.056 547.201 409.532C547.162 409.611 547.108 409.682 547.042 409.741C546.976 409.799 546.899 409.844 546.816 409.873C546.732 409.901 546.644 409.913 546.556 409.908C546.468 409.902 546.381 409.879 546.302 409.841C546.223 409.802 546.152 409.748 546.093 409.682C546.035 409.616 545.99 409.539 545.961 409.455C545.933 409.372 545.921 409.283 545.926 409.195C545.932 409.107 545.955 409.021 545.993 408.942C546.322 408.051 546.955 407.306 547.78 406.837C548.605 406.368 549.57 406.205 550.503 406.378C551.45 406.612 552.298 407.144 552.921 407.895C553.544 408.646 553.91 409.577 553.965 410.552C553.965 411.398 553.536 413.437 550.046 414.162L549.899 414.176Z" fill="white"/>
<path d="M568.766 402.864C567.988 402.864 566.954 402.408 565.8 400.677L566.914 399.925C567.746 401.16 568.538 401.723 569.062 401.442C569.867 401.012 570.404 398.892 569.692 397.415C569.182 396.221 568.135 395.872 566.606 396.369L566.19 395.094C568.364 394.382 570.135 395.094 570.927 396.892C571.826 398.959 571.222 401.804 569.706 402.623C569.419 402.784 569.095 402.868 568.766 402.864Z" fill="#3E8A23"/>
<path d="M564.767 454.787C564.776 447.625 562.209 440.699 557.533 435.273C557.992 435.206 558.412 434.977 558.717 434.628C559.022 434.278 559.193 433.831 559.197 433.368C559.194 432.843 558.983 432.341 558.611 431.972C558.239 431.602 557.736 431.395 557.211 431.395H512.279C511.789 431.401 511.32 431.591 510.964 431.926C510.607 432.261 510.389 432.718 510.352 433.206C510.315 433.694 510.462 434.178 510.764 434.563C511.066 434.948 511.501 435.206 511.984 435.287C509.045 438.7 506.914 442.732 505.748 447.082C504.583 451.433 504.414 455.991 505.254 460.416C506.093 464.841 507.92 469.019 510.598 472.641C513.276 476.262 516.736 479.233 520.72 481.333C520.286 481.557 519.94 481.92 519.738 482.365C519.535 482.809 519.488 483.309 519.605 483.783C519.721 484.257 519.994 484.679 520.379 484.979C520.764 485.28 521.239 485.442 521.727 485.44H547.75C548.325 485.436 548.876 485.206 549.283 484.799C549.69 484.392 549.92 483.841 549.924 483.265C549.922 482.868 549.812 482.478 549.607 482.138C549.401 481.798 549.107 481.52 548.756 481.333C553.588 478.785 557.633 474.966 560.455 470.288C563.276 465.609 564.767 460.25 564.767 454.787Z" fill="#263238"/>
</svg>
