<svg width="300" height="300" viewBox="0 0 300 300" fill="none" xmlns="http://www.w3.org/2000/svg">
<path fill-rule="evenodd" clip-rule="evenodd" d="M233.2 261.212L260.915 233.498L251.154 198.037L255.406 187.881L287.498 169.772V130.58L255.497 112.396L251.316 102.258L261.2 66.7789L233.466 39.0849L198.002 48.843L187.868 44.5942L169.758 12.4995H130.566L112.382 44.5L102.246 48.6803L66.7728 38.7846L39.0818 66.4756L48.8415 101.945L44.5927 112.079L12.498 130.189V169.37L44.4698 187.594L48.6545 197.741L38.7727 233.214L66.4741 260.916L101.944 251.156L112.079 255.405L130.189 287.487H169.371L187.582 255.514L197.727 251.33L233.2 261.212ZM235.658 170.32L224.761 196.347L232.952 226.107L225.847 233.212L196.15 224.939L170.112 235.678L154.842 262.487H144.786L129.642 235.661L103.644 224.76L73.8681 232.953L66.7751 225.86L75.048 196.163L64.31 170.127L37.4998 154.844V144.788L64.3385 129.644L75.2397 103.644L67.0467 73.8683L74.1249 66.7901L103.822 75.0744L129.869 64.3319L145.116 37.5H155.161L170.306 64.3387L196.305 75.2399L226.087 67.0453L233.198 74.1457L224.926 103.837L235.668 129.882L262.5 145.129V155.174L235.658 170.32ZM149.996 199.999C122.382 199.999 99.9963 177.613 99.9963 149.999C99.9963 122.385 122.382 99.999 149.996 99.999C177.611 99.999 199.996 122.385 199.996 149.999C199.996 177.613 177.611 199.999 149.996 199.999ZM174.998 150C174.998 163.807 163.805 175 149.998 175C136.191 175 124.998 163.807 124.998 150C124.998 136.192 136.191 125 149.998 125C163.805 125 174.998 136.192 174.998 150Z" fill="#787878"/>
</svg>
