<svg width="300" height="300" viewBox="0 0 300 300" fill="none" xmlns="http://www.w3.org/2000/svg">
<path fill-rule="evenodd" clip-rule="evenodd" d="M275 149.989C275 128.958 260.87 112.489 237.5 112.489H199.087C199.199 112.182 199.315 111.867 199.435 111.542C199.783 110.602 200.762 108.021 201.713 105.514L201.714 105.511C202.555 103.294 203.374 101.137 203.714 100.225C206.09 93.8457 207.825 88.7058 209.228 83.6154C211.349 75.9217 212.5 68.9902 212.5 62.4888C212.5 44.0887 201.148 32.6602 184.354 27.7698C176.779 25.5641 170.185 24.9876 162.5 24.9888H156.506L152.753 29.6623C148.514 34.9416 140.188 44.456 130.589 55.4252L130.588 55.4263L130.587 55.4265L130.587 55.4269C112.878 75.6632 90.8363 100.85 82.1295 113.531C79.8703 112.86 77.4775 112.5 75.0004 112.5H50.0004C36.1933 112.5 25.0004 123.693 25.0004 137.5V250C25.0004 263.807 36.1933 275 50.0004 275H75.0004C83.5894 275 91.1668 270.669 95.6674 264.071C99.4595 266.524 103.69 268.571 108.289 270.216C118.818 273.983 129.261 275.14 137.93 274.981L225 274.989C259.439 274.989 275 224.283 275 149.989ZM100 137.489C100 134.486 100.556 131.828 101.772 128.989C103.956 123.889 123.775 101.278 142.559 79.8474L142.559 79.8473C152.254 68.7867 161.673 58.0404 168.25 50.1779C171.393 50.4137 174.355 50.8967 177.365 51.773C184.528 53.8588 187.5 56.8516 187.5 62.4888C187.5 66.4461 186.7 71.2677 185.127 76.9714C183.952 81.2335 182.431 85.7434 180.287 91.4971C179.984 92.3108 179.229 94.3001 178.425 96.4191L178.417 96.4399L178.416 96.4429L178.414 96.4477L178.414 96.4482C177.431 99.039 176.377 101.816 175.987 102.871C174.362 107.266 173.291 110.502 172.559 113.443C169.445 125.943 172.569 137.489 187.5 137.489H237.5C246.141 137.489 250 141.987 250 149.989C250 209.873 237.69 249.989 225 249.989H137.5C137.203 249.993 137.144 249.994 137.086 249.995L137.039 249.996C131.568 250.095 123.883 249.243 116.711 246.677C105.65 242.72 100 236.267 100 224.989V137.489ZM50.0008 250V137.5H75.0009V250H50.0008Z" fill="black"/>
</svg>
