<svg width="300" height="300" viewBox="0 0 300 300" fill="none" xmlns="http://www.w3.org/2000/svg">
<path fill-rule="evenodd" clip-rule="evenodd" d="M187.5 12.5H112.5C98.6929 12.5 87.5 23.6929 87.5 37.5V50H50C36.1929 50 25 61.1929 25 75V100C25 113.807 36.1929 125 50 125H50.9993L62.5442 263.538C62.501 276.307 73.6939 287.5 87.501 287.5H212.501C226.308 287.5 237.501 276.307 237.501 262.5L248.999 125H250C263.807 125 275 113.807 275 100V75C275 61.1929 263.807 50 250 50H212.5V37.5C212.5 23.6929 201.307 12.5 187.5 12.5Z" fill="#C0C0C0"/>
</svg>
