<svg width="300" height="300" viewBox="0 0 300 300" fill="none" xmlns="http://www.w3.org/2000/svg">
<circle cx="150" cy="150" r="150" fill="#D2492F"/>
<path fill-rule="evenodd" clip-rule="evenodd" d="M135 210C135 218.284 141.716 225 150 225C158.284 225 165 218.284 165 210V165H210C218.284 165 225 158.284 225 150C225 141.716 218.284 135 210 135H165V90C165 81.7157 158.284 75 150 75C141.716 75 135 81.7157 135 90V135H90C81.7157 135 75 141.716 75 150C75 158.284 81.7157 165 90 165H135V210Z" fill="white"/>
</svg>
