<svg width="300" height="300" viewBox="0 0 300 300" fill="none" xmlns="http://www.w3.org/2000/svg">
<path fill-rule="evenodd" clip-rule="evenodd" d="M150 287.5C74.0604 287.5 12.4995 225.939 12.4995 150C12.4995 74.0608 74.0604 12.5 150 12.5C225.939 12.5 287.5 74.0608 287.5 150C287.5 225.939 225.939 287.5 150 287.5ZM242.493 214.059C255.108 195.879 262.5 173.803 262.5 150C262.5 87.868 212.132 37.5 150 37.5C87.8679 37.5 37.4999 87.868 37.4999 150C37.4999 173.803 44.8921 195.879 57.5059 214.058C71.57 195.481 104.613 187.505 149.959 187.5C121.989 187.481 99.9991 167.822 99.9991 125C99.9991 96.947 119.738 75 149.999 75C180.177 75 199.999 99.0197 199.999 127.5C199.999 168.475 177.747 187.482 150.039 187.5C195.386 187.505 228.43 195.481 242.493 214.059ZM224.558 234.248C220.9 221.092 194.617 212.5 149.999 212.5C105.382 212.5 79.0999 221.092 75.4408 234.247C95.2907 251.827 121.399 262.5 150 262.5C178.6 262.5 204.708 251.827 224.558 234.248ZM125 125C125 153.366 135.227 162.5 150 162.5C164.721 162.5 175 153.73 175 127.5C175 111.88 165.195 100 150 100C134.171 100 125 110.198 125 125Z" fill="#A6A6A6"/>
</svg>
