<svg width="320" height="300" viewBox="0 0 320 300" fill="none" xmlns="http://www.w3.org/2000/svg">
<path fill-rule="evenodd" clip-rule="evenodd" d="M58.031 0C82.3452 0 102.055 19.4887 102.055 43.5273C102.055 67.5689 82.3452 87.0546 58.031 87.0546C33.7167 87.0546 14.0073 67.5689 14.0073 43.5273C14.0073 19.4887 33.7167 0 58.031 0ZM68.6186 131.575C78.574 125.167 94.6354 122.145 106.326 117.307C136.869 104.671 147.735 99.1971 175.791 82.7299C178.599 81.086 190.527 73.3687 192.464 72.8304C202.269 70.1114 207.162 78.212 200.959 85.2359C200.016 86.3034 186.988 93.6603 184.667 95.1688C146.752 119.825 122.925 160.127 117.149 206.819C63.4171 207.053 67.7727 201.898 68.6186 131.575ZM153.914 296.907C158.224 283.361 146.73 277.15 140.881 250.183C136.863 231.66 136.598 213.005 140.359 195.237C143.896 178.521 150.662 163.741 158.039 151.664C181.063 113.987 214.075 107.771 221.436 92.8301C228.509 78.4644 218.773 78.9206 231.45 71.5454L289.398 38.538C295.958 34.8519 302.068 31.5734 309.678 27.3399C318.933 22.194 321.358 19.4979 316.836 7.766C305.598 3.08693 300.623 7.8542 291.698 13.14L218.337 55.0828C205.851 59.292 202.445 42.9859 181.096 54.8182C126.987 84.8025 118.917 94.8282 46.4883 114.904C35.0364 118.078 0.222204 120.571 0.00227047 133.477C-0.325323 152.596 34.8872 138.547 47.1866 136.783C47.388 156.024 44.4228 188.324 52.0882 203.222C65.4165 229.127 89.6753 227.518 116.529 228.155C118.693 248.691 128.562 315 153.914 296.907ZM58.031 21.8686C70.1273 21.8686 79.9367 31.5658 79.9367 43.5273C79.9367 55.4873 70.1273 65.186 58.031 65.186C45.9315 65.186 36.1253 55.4873 36.1253 43.5273C36.1253 31.5658 45.9315 21.8686 58.031 21.8686Z" fill="white"/>
</svg>
